<?xml version="1.0" encoding="utf-8"?>
<!-- Generator: Adobe Illustrator 26.5.0, SVG Export Plug-In . SVG Version: 6.00 Build 0)  -->
<svg version="1.1" id="Layer_1" xmlns="http://www.w3.org/2000/svg" xmlns:xlink="http://www.w3.org/1999/xlink" x="0px" y="0px"
	 viewBox="0 0 320 317" style="enable-background:new 0 0 320 317;" xml:space="preserve">
<style type="text/css">
	.st0{fill:#B68148;}
	.st1{fill:#C29666;}
	.st2{fill:#D6D6D6;}
	.st3{fill:#B2B2B2;}
	.st4{fill:#FFFFFF;filter:url(#Adobe_OpacityMaskFilter);}
	.st5{mask:url(#mask0_54_9694_00000151522868772422165910000009322496969109324683_);}
	.st6{fill:#FFCD2E;}
	.st7{fill:#FFFFFF;filter:url(#Adobe_OpacityMaskFilter_00000132086399786950373340000001958085818765247670_);}
	.st8{mask:url(#mask1_54_9694_00000015340935581351875160000001119077558537898687_);}
	.st9{fill:#FDDE64;}
	.st10{fill:#FFFFFF;filter:url(#Adobe_OpacityMaskFilter_00000049927983516824488880000007797463413371340200_);}
	.st11{mask:url(#mask2_54_9694_00000067216467066468530460000013729351369075793063_);}
	.st12{fill:#DCA97A;}
	.st13{fill:#FFFFFF;filter:url(#Adobe_OpacityMaskFilter_00000090975643638152250830000016886772288501697723_);}
	.st14{mask:url(#mask3_54_9694_00000146457898404109987430000012840453798992286649_);}
	.st15{fill:#D6A076;}
	.st16{fill:#F5871F;}
	.st17{fill:#FFFFFF;filter:url(#Adobe_OpacityMaskFilter_00000051358369262320030960000003709471037372622511_);}
	.st18{mask:url(#mask4_54_9694_00000178921240177156306190000004110562653415488162_);}
	.st19{fill:#DD2E44;}
	.st20{fill:#FFFFFF;filter:url(#Adobe_OpacityMaskFilter_00000035502349862359516660000007638917276908028301_);}
	.st21{mask:url(#mask5_54_9694_00000034794293116278542790000001938119659178874498_);}
	.st22{fill:#77B255;}
	.st23{fill:#FFFFFF;filter:url(#Adobe_OpacityMaskFilter_00000139268795324276683210000015570033956944619947_);}
	.st24{mask:url(#mask6_54_9694_00000065034323925317854150000010795370959971219611_);}
	.st25{fill:#662113;}
	.st26{fill:#F57E16;}
	.st27{fill:#FFB300;}
	.st28{fill:#006633;}
	.st29{fill:#65882A;}
	.st30{fill:#697D17;}
	.st31{fill:#EDB980;}
	.st32{fill:#E5A157;}
	.st33{fill:#FFD983;}
	.st34{fill:#9E9083;}
	.st35{fill:#F16236;}
	.st36{fill:#CB3F14;}
	.st37{fill:#685A4D;}
	.st38{fill:#FFFFFF;}
</style>
<path class="st0" d="M154.4,130.8l-21.7,0.4l-2-115.6c-0.1-6,4.7-10.9,10.6-11c6-0.1,10.9,4.7,11,10.6L154.4,130.8L154.4,130.8z"/>
<path class="st1" d="M136.5,16.1c-0.1-5.4,3.8-9.9,9-10.8c-1.3-0.5-2.7-0.8-4.1-0.7c-6,0.1-10.8,5-10.7,11l2,115.6l5.8-0.1
	L136.5,16.1z"/>
<path class="st2" d="M227.8,71.2V60.3h23.6v10.8c8.1,4.2,13.3,13.1,13.3,22.9v49.4h-48.8v-41.2C215.9,92.5,219.7,75.4,227.8,71.2z"
	/>
<path class="st3" d="M244.7,71.2V60.3h6.6v10.8c8.1,4.2,13.3,13.1,13.3,22.9v49.4H258V94C258,84.2,252.8,75.4,244.7,71.2z"/>
<defs>
	<filter id="Adobe_OpacityMaskFilter" filterUnits="userSpaceOnUse" x="227.5" y="45.9" width="17.2" height="14.6">
		<feColorMatrix  type="matrix" values="1 0 0 0 0  0 1 0 0 0  0 0 1 0 0  0 0 0 1 0"/>
	</filter>
</defs>
<mask maskUnits="userSpaceOnUse" x="227.5" y="45.9" width="17.2" height="14.6" id="mask0_54_9694_00000151522868772422165910000009322496969109324683_">
	<path class="st4" d="M252.1,45.9h-27.6v14.9h27.6V45.9z"/>
</mask>
<g class="st5">
	<path class="st6" d="M244.8,45.9h-17.2v14.6h17.2V45.9z"/>
</g>
<defs>
	
		<filter id="Adobe_OpacityMaskFilter_00000165955121561098304960000017473476797265345920_" filterUnits="userSpaceOnUse" x="244.8" y="45.9" width="6.6" height="14.5">
		<feColorMatrix  type="matrix" values="1 0 0 0 0  0 1 0 0 0  0 0 1 0 0  0 0 0 1 0"/>
	</filter>
</defs>
<mask maskUnits="userSpaceOnUse" x="244.8" y="45.9" width="6.6" height="14.5" id="mask1_54_9694_00000015340935581351875160000001119077558537898687_">
	<path style="fill:#FFFFFF;filter:url(#Adobe_OpacityMaskFilter_00000165955121561098304960000017473476797265345920_);" d="
		M252.1,45.9H244v14.9h8.1V45.9z"/>
</mask>
<g class="st8">
	<path class="st9" d="M251.4,45.9h-6.6v14.5h6.6V45.9z"/>
</g>
<defs>
	
		<filter id="Adobe_OpacityMaskFilter_00000010275279226303799630000010792683384961727634_" filterUnits="userSpaceOnUse" x="30.1" y="35" width="82" height="129.4">
		<feColorMatrix  type="matrix" values="1 0 0 0 0  0 1 0 0 0  0 0 1 0 0  0 0 0 1 0"/>
	</filter>
</defs>
<mask maskUnits="userSpaceOnUse" x="30.1" y="35" width="82" height="129.4" id="mask2_54_9694_00000067216467066468530460000013729351369075793063_">
	<path style="fill:#FFFFFF;filter:url(#Adobe_OpacityMaskFilter_00000010275279226303799630000010792683384961727634_);" d="
		M142.8,71.8L36,31.9L0,128.3l106.8,39.9L142.8,71.8z"/>
</mask>
<g class="st11">
	<path class="st12" d="M33.5,41.1c-4.2,8.1-4,17.9-1.7,26.8c2.3,8.8,6.7,17,10.5,25.3c2.4,5.1,4.6,10.4,7.3,15.3
		c3.4,6.3,7.5,12.1,11.7,17.9c7.2,10.1,14.4,20.1,22.9,29.1c2.9,3,5.9,5.9,9.7,7.6c3.8,1.7,8.4,2,11.9-0.1c2.6-1.6,4.4-4.3,5.4-7.2
		c1.6-5.1,0.8-10.7,0-16c-1.9-12-6.3-24.7-12.2-35.8c-4.9-9.1-10.4-15.4-15.1-23.3c0,0-4.9-6.8-7.5-10.7c-2.6-4-7.5-10.5-12-14.1
		c-4.5-3.6-14.6-15.7-15-16.6c-0.4-0.8-0.2-2-0.2-2c-0.6-0.4-1.2-0.7-1.9-1c-0.7-0.3-1.5-0.6-2.3-0.8l0,0c0,0-0.9,0.3-2.9-0.4
		c-0.4,0-0.8,0-1.2,0.1c-0.1,0.7-0.7,1.8-3.8,1.4C35.6,37.6,34.4,39.4,33.5,41.1z"/>
</g>
<defs>
	
		<filter id="Adobe_OpacityMaskFilter_00000118369926144723239790000001031485797106843274_" filterUnits="userSpaceOnUse" x="33.9" y="35" width="62.2" height="69">
		<feColorMatrix  type="matrix" values="1 0 0 0 0  0 1 0 0 0  0 0 1 0 0  0 0 0 1 0"/>
	</filter>
</defs>
<mask maskUnits="userSpaceOnUse" x="33.9" y="35" width="62.2" height="69" id="mask3_54_9694_00000146457898404109987430000012840453798992286649_">
	<path style="fill:#FFFFFF;filter:url(#Adobe_OpacityMaskFilter_00000118369926144723239790000001031485797106843274_);" d="
		M111,59.9L36.7,32.2L20.1,76.6l74.3,27.7L111,59.9z"/>
</mask>
<g class="st14">
	<path class="st15" d="M91.9,96.4c-0.3-0.2-0.3-0.5-0.5-0.9c-0.1,0.2-0.1,0.1-0.3,0.1c0.2,0.2,0.2,0.1,0.2,0.6
		c0.2-0.1,0.2,0.3,0.3,0.2c0,0.1-0.1,0.1-0.1,0.2c-0.2-0.3-0.4-0.7-0.6-1c0-0.2,0-0.3,0.2-0.3c-0.2-0.2-0.3-0.1-0.3,0.2
		c0,0.3,0.1,0.6,0.3,0.7c-0.2,0.4-0.3,0.3-0.4,0c-0.1-0.3-0.2-0.7-0.5-1.1c0,0.2,0,0.4,0,0.6c0-0.1,0.1-0.1,0.1-0.2
		c0.1,0.4,0.2,1,0.4,1.2C91.1,96.1,91.8,97.3,91.9,96.4z M92.8,94C92.8,93.9,92.8,93.9,92.8,94c-0.2,0-0.2,0.1-0.4,0.1
		c0.2-0.3-0.1-0.5-0.2-0.2c0.1,0.1,0.2,0.5,0.4,0.4c0,0.1,0,0.2,0,0.3c-0.2-0.2-0.2,0-0.3,0.1c0-0.1,0-0.2,0.1-0.4
		c-0.1-0.2-0.3-0.3-0.4-0.1C92,94.1,92,94,92.2,94c-0.2-0.3-0.2,0-0.3,0.1c-0.1-0.1-0.2-0.1-0.3-0.3c0-0.2,0.5,0.2,0.5-0.2
		c-0.2,0.1-0.4-0.3-0.5,0c-0.1-0.1-0.2-0.7-0.5-0.5c0.1,0.1,0.1,0.2,0,0.2c0.3,0.2,0.5,1.2,0.9,1.1c0,0.3-0.1,0.2-0.1,0.6
		c0.6,0.4,0.7-0.1,1.1,0.1c0-0.1,0-0.2,0-0.2C92.7,94.5,92.9,94.5,92.8,94z M90.8,93.2c-0.1,0.1,0.2,0.4,0.3,0.8
		C91.2,93.8,91,93.3,90.8,93.2z M92,97.6c0-0.2-0.3-0.3-0.1,0c-0.1,0-0.2-0.1-0.2-0.4c0-0.2,0.1,0,0.2-0.1c-0.1-0.1-0.1-0.2-0.2-0.4
		c-0.2,0.1-0.1,0.4,0,0.9C91.8,97.7,91.8,97.7,92,97.6z M89.4,96.3c-0.2,0-0.1,0.2-0.2,0.4C89.3,96.7,89.6,96.8,89.4,96.3z M89.7,96
		c0.2,0.4,0.3-0.2,0.3-0.4C89.8,95.7,89.9,95.9,89.7,96z M90.2,98.1c0.3-0.2-0.3-0.8,0-1.1c-0.2-0.1-0.1,0.5-0.3,0.6
		C90.1,97.8,89.9,98,90.2,98.1z M88.7,99.8c-0.1-0.3,0.2-0.2,0.2-0.4c0.1-0.3-0.1,0.3-0.2,0c0,0.1,0,0.2-0.1,0.2
		c0.1,0.2,0.2,0.1,0.2,0.4C88.9,100.1,88.9,99.7,88.7,99.8z M92.5,97.2c-0.1-0.4,0.4-0.3,0.1-0.8c-0.1,0.2-0.1,0.5-0.3,0.6
		c0,0-0.1,0-0.1-0.1C92.1,96.9,92.4,97.3,92.5,97.2z M89.9,99.1c0,0.1,0.1,0,0.2,0.2c0.2,0-0.2-0.5,0-0.4c-0.1-0.2-0.2,0-0.2,0.1
		C89.9,98.9,90,99,89.9,99.1z M91.4,102.3c-0.1,0.2-0.2,0.3-0.1,0.7c0.1-0.1,0.1-0.1,0.2,0.1C91.6,102.8,91.3,102.7,91.4,102.3z
		 M89.7,95.6C89.1,95.4,89.3,94.6,89.7,95.6L89.7,95.6z M91.4,102c-0.1-0.1-0.2-0.3-0.2-0.5c0-0.1-0.1-0.2-0.3-0.2
		C91.2,101.5,91.2,102.1,91.4,102z M93.3,100c-0.1-0.4-0.1,0.1-0.3-0.3c0,0,0.2,0.9,0.4,0.9C93.4,100.3,93,100,93.3,100z M92,93.2
		c0-0.2,0-0.3,0-0.4c-0.1-0.1-0.1-0.2-0.2-0.3c-0.1,0.3,0.2,0.8,0.4,1.1C92.4,93.6,92.1,93,92,93.2z M92,100.4
		c0.3,0.4,0.3,0.8,0.6,0.9c0-0.4-0.6-0.7-0.3-0.9C92.2,100.3,92.1,100.4,92,100.4z M93.6,99.4c0-0.3-0.1-0.9-0.5-1
		C93.4,98.7,93.4,99.2,93.6,99.4z M81.6,86.7C81.5,86.6,81.5,86.7,81.6,86.7c-0.2,0.1-0.2,0-0.3,0.1c0.1,0.1,0.3,0.2,0.4,0.4
		C81.9,87.1,81.4,86.7,81.6,86.7z M94.1,102c0.1,0.1,0.2,0.1,0.2-0.1c0-0.3-0.2-0.1-0.2-0.5C94,101.6,94,101.8,94.1,102z M80.8,87.6
		c-0.4-0.2-0.1-0.6,0-0.7c-0.2-0.3-0.4-0.2-0.6-0.1c0-0.1,0.1-0.1,0.1-0.2c-0.6,0.1,0.3,0.6,0.3,1.1c0.1-0.1,0.2,0,0.2,0.1
		c0-0.1,0-0.3-0.1-0.4C80.7,87.5,80.8,87.6,80.8,87.6z M93.6,104c0.3,0.2,0.1-0.4-0.1-0.6C93.3,103.5,93.8,103.9,93.6,104z
		 M81.1,86.9c-0.1,0.1-0.2,0.3,0,0.5c0.1-0.2,0.1-0.3,0.3-0.3C81.3,87.1,81.2,87.2,81.1,86.9z M89.4,94.4c0,0.2,0.3,0.6,0.1,0.6
		c0.4,0.4,0-0.3,0.2-0.4C89.6,94.4,89.5,94.3,89.4,94.4z M79.4,88.2c-0.3,0.1,0.2,0.4,0.2,0.5c0.1,0,0.2-0.1,0.2,0
		c0.1-0.2-0.3-0.2-0.4-0.2C79.5,88.4,79.5,88.3,79.4,88.2z M78.9,88.5c0,0.2-0.1,0.4-0.3,0.4c0.2,0.2,0.4,0.2,0.6,0.2
		C79,88.9,79.2,88.6,78.9,88.5z M79.5,87.6c-0.2-0.2-0.5-0.2-0.7-0.5C78.7,87.3,79.4,88.1,79.5,87.6z M90.4,93.9
		c-0.1,0.1,0.1,0.3,0.2,0.2c0.1,0.2,0,0.3,0.1,0.3c0.1,0.2-0.3,0.1-0.2,0.4c0.1,0,0.2-0.1,0.3-0.3c-0.2-0.5-0.3-0.8-0.4-1.1
		C90.2,93.4,90.8,94.2,90.4,93.9z M89.9,94.3c-0.1,0.4,0.4,0,0.4,0C90.2,93.8,90.1,94.6,89.9,94.3z M93.9,99.9
		c-0.1,0,0.1,0.4,0.1,0.6C94.2,100.5,94,100,93.9,99.9z M81.5,87.5c-0.1,0.2,0.2,0.6,0.4,0.4C81.7,87.5,81.6,87.7,81.5,87.5z
		 M94,95.7C94,95.7,93.9,95.7,94,95.7c-0.2,0-0.3-0.2-0.3-0.4c0,0-0.1-0.1-0.1-0.1c0,0.1,0,0.3-0.1,0.3c0.3,0.1,0.2,0.5,0.2,0.7
		c0-0.2,0.2-0.1,0.3,0.3c0.2,0,0.1-0.3,0.1-0.4C94,95.9,94,95.9,94,95.7z M91.5,92c0-0.1-0.1-0.1-0.1-0.2C91.4,91.9,91.4,92,91.5,92
		z M91.8,92.4c0,0-0.1-0.1-0.1-0.1C91.7,92.3,91.7,92.3,91.8,92.4C91.7,92.4,91.7,92.5,91.8,92.4z M91,91.3c0,0-0.1-0.1-0.1-0.1
		C90.9,91.2,90.9,91.3,91,91.3C91,91.4,91,91.3,91,91.3z M91,92.8c0.1,0,0-0.2,0-0.3c0.1,0,0.1,0.1,0.2,0c0,0.1,0,0.2,0,0.3
		c0.3-0.2,0.4,0,0.5,0.2c0.3-0.1-0.1-0.3-0.2-0.6c-0.1,0.6-0.5-0.3-0.8-0.1C90.7,92.7,90.8,92.6,91,92.8z M84.3,89.1
		c0.2,0.2,0.3,0.5,0.2,0.5C84.9,90,84.5,88.9,84.3,89.1z M84,89.9c-0.1,0.3-0.1,0.2-0.3,0.2c0.1,0.1,0.2,0,0.2,0.2
		C84,90.2,84.2,90.2,84,89.9z M83,92.3c0-0.1-0.1,0-0.2,0c-0.1-0.2-0.2-0.4-0.2-0.5C82.6,92,82.8,92.5,83,92.3z M83.6,90.5
		c0.1,0.2,0.2,0.3,0.4,0.3c-0.1-0.1-0.1-0.2-0.2-0.4L83.6,90.5z M88.9,96.9c0.4,0.4,0.4,1.2,0.8,1.2c-0.2-0.5-0.5-1.1-0.7-1.6
		C88.8,96.6,89.2,97,88.9,96.9z M84.9,88.5c-0.3-0.3-0.3-0.4-0.5-0.8c-0.1,0.1-0.2,0.1-0.3,0.2C84.4,88,84.6,88.4,84.9,88.5z
		 M83.5,87c0.1,0.3,0.2,0.4,0.4,0.6c0.1,0-0.1-0.3-0.2-0.5c0.2,0.2,0.1-0.3,0.3,0.1c0.1-0.1,0-0.2,0.1-0.3
		C83.8,86.6,83.8,86.9,83.5,87z M83.5,88.7c0.1,0.2,0.2,0.4,0.4,0.7c0.1-0.2,0-0.4-0.1-0.5c-0.1-0.2-0.3-0.3-0.4-0.6
		c0.2-0.1,0.3,0.2,0.4,0c-0.1-0.2-0.2-0.2-0.2,0c-0.1-0.2-0.2-0.5-0.4-0.6c0,0.1-0.1,0.2-0.2,0.2C83.3,88.3,83.4,88.5,83.5,88.7z
		 M83,91.3c0,0.1-0.1,0.1-0.1,0.2c0.1,0.2,0.2,0.1,0.3,0.3C83.3,91.7,83.1,91.4,83,91.3z M84.9,93.2c0-0.2,0.1-0.3,0-0.5
		c0.1,0.1,0.2,0.1,0.3,0.2c0.1-0.2-0.2-0.5,0.1-0.4c-0.1-0.4-0.3,0-0.4-0.3c-0.1,0.1,0.2,0.3,0.2,0.5c-0.1-0.1-0.3-0.2-0.4,0
		c0,0.1,0.1,0.4,0,0.4C84.7,93.2,84.8,93,84.9,93.2z M83.2,93.1C83.6,93.3,83.9,92.6,83.2,93.1L83.2,93.1z M83.7,91.2
		c0,0.1,0.1,0,0.2,0c0,0.1,0,0.1-0.1,0.1c0,0.1,0.1,0.1,0.1,0.1l0.1,0l-0.2-0.4c0.1-0.1,0.2,0.3,0.4,0.3c0.1,0.2,0,0.2,0.1,0.5
		c0.1,0,0.1,0,0.2,0.1c0-0.2,0.1-0.4-0.1-0.6c0.3,0.1,0.3-0.2,0.6-0.1c-0.3-0.4-0.4-0.1-0.7,0c-0.1,0-0.1-0.2-0.2-0.3
		c0,0.4-0.2,0-0.5,0.1C83.7,91,83.8,91.2,83.7,91.2z M84.9,91.6c0,0.1,0.1,0.3,0,0.2c0.1,0.1,0.2,0.4,0.4,0.3c0-0.2-0.1-0.2-0.2-0.1
		C84.9,91.7,85.1,91.7,84.9,91.6C84.8,91.3,84.8,91.4,84.9,91.6z M84.5,90.5c-0.2,0-0.2,0-0.2,0.2c0.2,0.2,0.1-0.1,0.3,0
		c-0.1-0.2,0-0.2-0.2-0.4C84.4,90.3,84.4,90.4,84.5,90.5z M84.6,94c0.1-0.3-0.4,0-0.5-0.3C84,94.1,84.5,93.9,84.6,94z M84.6,90.2
		l0.2,0.5C85.1,90.6,84.9,89.9,84.6,90.2z M85.2,90.9c0-0.1-0.1-0.1-0.1-0.2l-0.1,0c0.1,0.3,0.2,0.3,0.3,0.5
		C85.4,91.3,85,90.9,85.2,90.9z M83.1,91c0.1-0.1,0-0.3,0.2-0.3c0-0.2-0.1-0.1-0.2-0.2C82.9,90.6,83,90.8,83.1,91z M86.8,94.9
		c-0.1,0.2,0.2,0.3,0.2,0.1c-0.1,0-0.2-0.4-0.3-0.4C86.5,94.2,87.1,95.2,86.8,94.9z M87,93c-0.3,0.2,0.2,0.9,0.2,1.3
		c0-0.1,0.1-0.3,0.2,0c0-0.1-0.1-0.4-0.2-0.6c-0.1-0.3-0.2-0.5,0-0.4C87.4,93.2,87.1,93.1,87,93z M86.9,94.2c0.1,0,0.2,0.3,0.3,0.2
		C87.1,94.2,87,94.3,87,94c-0.1,0-0.1,0-0.2-0.1C86.6,94,87,94.2,86.9,94.2z M87.9,94c0.2,0.4,0.2-0.2,0.3,0.2
		c0.1-0.2-0.2-0.5-0.3-0.6C87.8,93.7,88,93.9,87.9,94z M88.5,96c0.1-0.4-0.4-0.5-0.5-0.7C87.9,95.7,88.4,95.5,88.5,96z M89.6,91.1
		c-0.1-0.1-0.2-0.4-0.3-0.5C89.1,90.7,89.5,91.2,89.6,91.1z M88.3,95.1c0.3,0.1-0.4-0.5-0.3-0.5c-0.2-0.3-0.1,0.2,0,0.3
		C88.1,94.8,88.2,95,88.3,95.1z M88.9,94.7c0.1-0.2-0.3-0.6-0.4-0.8C88.5,94.1,88.8,94.3,88.9,94.7z M86,94.2
		c0.1,0.3,0.2,0.2,0.4,0.1C86.3,94,86.1,94.2,86,94.2z M85.2,95.1c-0.1,0-0.1-0.2-0.2-0.1c0.1,0.2,0.2,0.1,0.2,0.3
		c0.1-0.1,0-0.5-0.1-0.6C84.9,94.9,85.2,95,85.2,95.1z M85.7,91.4c0.5,0.4,0,0.4,0.3,0.7C86.1,92.1,86,91.1,85.7,91.4z M85.4,91.9
		c-0.1,0.1,0,0.2-0.1,0.3C85.5,92.5,85.7,92.1,85.4,91.9z M85.6,93.9c0-0.1,0-0.2-0.1-0.3C85.5,93.5,85.5,93.7,85.6,93.9
		c-0.2-0.2-0.3-0.2-0.4-0.5C85.1,93.7,85.4,94.1,85.6,93.9z M85,88.8c-0.1,0.1,0.1,0.4,0,0.4c0.1,0.1,0.2,0,0.2,0.1
		C85.4,89.3,85.1,88.9,85,88.8z M85.8,94.7c0.1,0.1,0.3,0.1,0.4,0.2c-0.1-0.3-0.3-0.2-0.4-0.4C85.8,94.5,85.9,94.7,85.8,94.7z
		 M86.4,94.1c0.1,0.4,0.1,0.4,0.3,0.2C86.7,94,86.5,94.1,86.4,94.1z M86.3,92.7c0.2,0.1,0.1-0.4,0.3-0.1c0.1,0.1,0.1,0,0-0.1
		C86.5,92.5,86.1,92.4,86.3,92.7z M68.8,65.3c-0.2-0.2-0.8-0.3-0.5-0.6c-0.2-0.2-0.3,0-0.5-0.2c0.4,0.7,0.8,0.8,0.9,1.2
		C68.9,65.6,68.8,65.4,68.8,65.3z M61.5,63.9c-0.4,0,0-0.3-0.6-0.6c-0.2,0.2-0.2,0.2-0.2,0.4c0.4,0,0.4,0.3,0.7,0.5
		C61.5,64.1,61.4,64,61.5,63.9z M61.8,64.1c-0.2-0.2-0.1,0.2-0.2,0.2c0.2,0.2,0.2,0.1,0.4,0.3C62.1,64.4,61.5,64.3,61.8,64.1z
		 M64.7,63.6c0.4,0.3,0.3-0.2,0.2-0.4C64.8,63.1,65.1,63.6,64.7,63.6z M64,61.5c0,0.2-0.1,0.2-0.3,0.1c-0.2,0-0.4-0.1-0.5,0.1
		c0.4,0.3,0.4,0.6,0.7,0.9c-0.1-0.4,0-0.4-0.1-0.8c0.1-0.1,0.4,0.2,0.5-0.1L64,61.5z M62.8,65c0-0.1,0-0.1,0.1-0.2
		c-0.1-0.1-0.1,0-0.2,0c-0.1,0.1-0.3-0.2-0.4-0.2c0,0.1-0.1,0.2,0.1,0.4C62.6,64.9,62.6,64.7,62.8,65z M75.9,78
		c0.6,0.3,1.3,1.4,1.9,1.6c0.1-0.3,0-0.9-0.4-0.8c0.2,0.1,0.3,0.3,0.2,0.4c-0.2-0.3-0.4-0.1-0.6-0.4c0.1-0.2,0.4-0.1,0.4-0.5
		c-0.3-0.1-0.5,0.3-0.8,0.2c-0.2-0.4-0.3-0.5-0.4-0.8C76,77.8,76.1,77.9,75.9,78z M76.8,79.3c0.2,0.1,0.4,0.3,0.6,0.3
		C77.2,79.4,77,79.2,76.8,79.3z M62.4,61.8c-0.1-0.1-0.1,0-0.2,0.1c0.1,0.1,0.2,0.2,0.4,0.3C62.9,62.2,62.3,61.9,62.4,61.8z
		 M62.5,60.4c0.1,0.2,0.1,0.3-0.1,0.4c0.2,0.1,0.3,0.1,0.5-0.1C62.8,60.5,62.6,60.4,62.5,60.4z M67.3,70.7c0.2,0.1,0.4,0.5,0.6,0.2
		C67.7,70.9,67.5,70.7,67.3,70.7z M67.7,68.9c0.3,0.3,0.3,0.5,0.2,0.6c0.3,0.1,0.6,0.3,0.7,0.3c-0.3-0.3-0.8-0.5-0.4-0.8
		c-0.1-0.1-0.2-0.2-0.3-0.3C67.9,68.7,67.8,68.8,67.7,68.9z M64,65.5c-0.2-0.2-0.4-0.3-0.5-0.1C63.8,65.6,63.9,65.7,64,65.5z
		 M68.1,68.3c0.2-0.1,0-0.2,0.2-0.3c-0.1,0-0.3-0.2-0.4-0.2C67.8,68,68,68.3,68.1,68.3z M64.9,66.7c0.1,0.1,0.3,0.3,0.4,0.4
		c0.1-0.1,0.1-0.2,0.1-0.2C65.2,66.7,65.1,66.6,64.9,66.7z M69.3,66.7c0.2,0.2,0.2,0.2,0.4,0.4c0.3-0.2,0-0.3,0-0.5
		C69.5,66.5,69.4,66.7,69.3,66.7z M69.6,66.1c-0.3-0.2-0.1-0.1-0.3-0.4c0,0.1-0.3,0.2-0.3,0C68.6,65.5,69.5,66.5,69.6,66.1z
		 M69.4,68.2c-0.1,0.1,0,0.2-0.2,0.3c0.4,0.2,0.7,0.6,0.9,0C69.8,68.2,69.6,68.4,69.4,68.2z M68.8,67.6c-0.2-0.3-0.4,0.2-0.2,0.3
		C68.9,68,68.7,67.7,68.8,67.6z M36.5,47.2c0.3,0.1,0.4,0,0.2-0.2C36.5,46.9,36.7,47.1,36.5,47.2z M35.5,45.8
		c0.2,0.1,0.4,0.1,0.6,0.1C36.1,45.8,35.6,45.7,35.5,45.8z M36.1,37.6c0,0-0.1-0.1-0.1-0.1c0,0,0,0.1-0.1,0.1
		C36,37.6,36,37.6,36.1,37.6z M41.1,50.6c0.1-0.1,0.2,0,0.3,0.1C41,50.2,39.8,49.9,41.1,50.6z M41.1,51.6
		C40.6,51.8,40.1,51,41.1,51.6L41.1,51.6z M38.8,48.5C39.5,48.6,39.2,49,38.8,48.5L38.8,48.5z M42.3,51.4c0.2,0.1,0.2-0.1,0.4,0.1
		c0-0.1-0.3-0.3-0.4-0.4C42.1,51.2,42.5,51.3,42.3,51.4z M42.5,52c-0.4,0.3,1.7,1.2,2.3,1.1c-0.1-0.3-0.7-0.1-0.6-0.5
		c-0.3,0.1-0.9-0.4-1.1-0.1C42.8,52.4,42.5,52.2,42.5,52z M83.2,85.6c-0.1,0-0.1-0.8-0.4-0.6C83.1,85.2,83,85.4,83.2,85.6z
		 M90.3,92.1c0-0.2,0.2-0.1,0.2,0.1c0.2-0.2-0.1-0.2-0.2-0.5l-0.2,0.1C90.2,91.9,90.2,92,90.3,92.1z M85.1,87.6
		c0.2,0.2,0.3,0.4,0.4,0.6c0.1,0.2,0.2,0.4,0.4,0.6c0.1-0.3-0.2-0.5-0.4-0.8c-0.1-0.3,0.2,0,0.2-0.1c-0.2-0.3-0.1-0.5-0.3-0.6
		c-0.1,0.1,0.1,0.2,0.1,0.3c-0.1,0.1-0.2-0.1-0.2,0.1c-0.1-0.1-0.1-0.2,0-0.2C85,87.1,85.3,87.6,85.1,87.6z M78.1,79.5
		c0.2,0,0.3,0.2,0.5,0.1C78.5,79.5,78.3,79.4,78.1,79.5z M34.6,41c-0.3,0.1-0.4-0.3-0.7-0.5c0.1-0.2,0.3-0.5,0.2-0.7
		c-0.1,0.2-0.2,0.3-0.3,0.5c0.1,0.3,0.4,0.7,0.3,0.8C34.3,41.5,34.8,41.3,34.6,41z M35.7,37.8c0.1,0.2-0.2,0.4-0.1,0.6
		c0.4,0,0.2-0.3,0.4-0.4C35.9,37.9,35.9,37.8,35.7,37.8C35.8,37.7,35.8,37.7,35.7,37.8z M35,40.1c-0.3-0.2-0.2,0.2-0.5-0.1
		C34.5,40.3,34.9,40.2,35,40.1z M36.3,37.5c0.2,0.1,0.3-0.1,0.4-0.2c-0.2,0-0.3-0.1-0.4-0.2c0,0-0.1,0.1-0.1,0.1
		C36.5,37.4,36.5,37.3,36.3,37.5z M45.5,35.6c-0.1,0,0,0.1,0.7,0.4C45.9,35.7,45.6,35.6,45.5,35.6z M66.6,67.3l0.2-0.2
		c-0.3-0.3-0.5-0.5-0.7-0.4C66.1,67,66.4,67,66.6,67.3z M70.9,72.1c-0.2-0.2-0.3-0.4-0.5-0.5c-0.2,0.1,0,0.4-0.1,0.6
		C70.6,72.3,70.9,72.3,70.9,72.1z M74.5,77.7c-0.3-0.3-0.4-0.6-0.8-1c-0.1,0.1,0.2,0.4,0,0.5c0.1,0.1,0.3,0.3,0.4,0.1
		c-0.2,0.2,0.2,0.3,0,0.5c-0.1-0.1,0,0,0.1,0.1C74.2,77.5,74.3,77.7,74.5,77.7z M76.2,80.4c-0.1-0.1-0.2-0.3-0.3-0.1
		c0.1,0.2,0.2,0.4,0.4,0.6C76.3,80.7,76.3,80.5,76.2,80.4z M74.4,76.8c0.3,0.3,0.2-0.1,0.2-0.3C74.4,76.3,74.6,76.8,74.4,76.8z
		 M71.2,69.6c-0.1,0-0.2-0.1-0.2-0.2C70.3,69.8,70.8,69.8,71.2,69.6z M71.6,74.6c0.1-0.1,0.2,0,0.3,0c-0.1-0.2,0-0.4-0.3-0.7
		c0.5,0.4,0.1-0.4-0.3-0.7c-0.1,0.2,0.2,0.3,0.3,0.5c-0.2,0-0.4-0.3-0.6,0c-0.1-0.2,0-0.3,0.1-0.1c0-0.1-0.1-0.2-0.2-0.3
		c-0.1,0.3-0.4,0.3-0.6,0.1c0.1,0.2,0.3,0.4,0.4,0.5c0.2,0.2,0.3,0.3,0.3,0.6c0.2,0,0.8,0.4,0.7,0.6c0.3,0.3,0.2-0.1,0.5,0.1
		c0-0.1-0.4-0.5-0.5-0.4C71.7,74.8,71.7,74.7,71.6,74.6z M73,75.5c-0.2-0.2-0.3-0.2-0.4-0.2C72.7,75.5,72.8,75.6,73,75.5z M71,70.3
		c0-0.3-0.4-0.4-0.6-0.3C70.6,70.4,70.8,70,71,70.3z M74.5,75.3c-0.1,0-0.5-0.1-0.3-0.3c-0.3-0.2-0.5,0.1-0.8,0
		c-0.1,0.4,0.5,0.6,0.2,0.8c0.1,0.1,0.2,0.1,0.3,0c0-0.2-0.1-0.3-0.3-0.4c0.2,0,0.2,0.1,0.4-0.1c0.2,0.5,0.3,0.2,0.6,0.4
		C74.7,75.6,74.4,75.4,74.5,75.3z M76.5,85.4c0.6,0.3,0.6-0.6,1-0.5c-0.1-0.1-0.2-0.2-0.4-0.1c-0.2,0,0,0.3-0.1,0.4
		c-0.1,0.1-0.1,0-0.2,0c-0.1-0.3,0.1-0.2-0.2-0.4c-0.1-0.2,0-0.3,0.2-0.3c-0.1-0.2-0.3-0.2-0.5-0.1c0.2,0.3,0.3,0.5,0.2,0.7
		c-0.1,0-0.2-0.1-0.2-0.2C76.3,85,76.4,85,76.5,85.4z M75.5,80.2c-0.2-0.1-0.4,0.1-0.2,0.3C75.5,80.5,75.8,80.5,75.5,80.2z
		 M76.1,81.7c-0.1-0.2-0.2-0.4-0.4-0.5c0.1-0.1,0.2,0,0.3,0c-0.2-0.4-0.7,0.2-0.9-0.4c-0.1,0.1-0.3,0.1-0.2,0.3
		c-0.1,0-0.2-0.1-0.4-0.3c0,0.3,0.2,0.6,0.4,0.7c0.1-0.5,0.5,0.3,0.7-0.1c0,0.4,0.4,0.8,0.1,1c-0.1,0.1-0.2-0.5-0.4-0.2
		c0.1,0.3,0.2,0.3,0.3,0.5C76.2,82.5,75.9,81.8,76.1,81.7z M78.4,87.3c-0.4-0.3,0,0.5,0.2,0.3C78.6,87.5,78.3,87.5,78.4,87.3z
		 M75.6,76.9c0-0.2,0.5-0.1,0.1-0.6c-0.1,0.1-0.2,0.3-0.2,0.4c-0.1,0-0.2-0.2-0.4-0.3c-0.1,0.1,0,0.3,0.1,0.4c0.1,0.3,0.2,0,0.4,0.2
		c0.1,0.2-0.1,0.2-0.1,0.3c-0.2,0.1-0.3-0.4-0.5-0.1c0.3,0.3,0.7,0.2,1,0.4c0-0.1-0.1-0.2,0-0.3C75.9,77.1,75.7,77.1,75.6,76.9z
		 M76.1,80.1c-0.1-0.4-0.7-0.7-1-1.3c-0.1,0.3-0.4-0.1-0.4,0.2c0.4,0.2,0.7,1,1.1,1c0-0.1-0.1-0.1-0.1,0c-0.1-0.1-0.2-0.3-0.3-0.5
		C75.6,79.5,75.9,80,76.1,80.1z M75.1,78.2c-0.1-0.1-0.3-0.3-0.4-0.3c0,0.2,0.2,0.6,0.4,0.7c0.2-0.1,0.2-0.3,0.3-0.4
		c-0.2-0.2-0.1-0.3-0.2-0.4C74.9,77.8,75.3,78.1,75.1,78.2z M76,76.8c0.3,0.4,0.3,0,0.4-0.1C76.1,76.5,76.2,76.9,76,76.8z
		 M67.5,66.3c0-0.1-0.1-0.2,0-0.2c-0.2-0.2-0.3,0-0.4,0.1C67.2,66.5,67.3,66.1,67.5,66.3z M81.5,88.7c0-0.1-0.1-0.1-0.1-0.1
		l-0.1,0.1c0.1,0.3,0.1,0.2,0.3,0.4C81.6,89,81.4,88.8,81.5,88.7z M67.7,69.5c-0.1,0.3-0.2,0.5-0.3,0.7c0.4-0.2,0.4,0.8,0.9,0.6
		c-0.5-0.1-0.3-0.6-0.6-0.8c0.1-0.2,0.2,0,0.3-0.1C68,69.6,67.9,69.7,67.7,69.5z M65.5,69.2c0.1-0.1-0.3-0.4-0.1-0.5
		C65.2,68.6,65.2,69,65.5,69.2z M67.8,64.1c0.3,0.2,0.5-0.2,0.7,0.3c0.2-0.1-0.2-0.3-0.3-0.5C67.9,63.9,68,64,67.8,64.1z M83.3,86.1
		c0.2,0.3,0.2,0.4,0.4,0.6c-0.1-0.4-0.2-0.8-0.3-1.2C83.3,85.6,83.6,86,83.3,86.1z M72.2,74.8C73,75,72.2,75.3,72.2,74.8L72.2,74.8z
		 M66.2,65.9c0,0.2,0,0.4,0.2,0.6C66.5,66.4,66.3,66.1,66.2,65.9z M66.6,64.5c0,0.1,0.1,0.2,0,0.3c0.1,0,0.2,0.1,0.3,0.2
		c0.1-0.1,0-0.2,0.1-0.2c-0.1-0.1-0.1-0.1-0.2-0.2C66.7,64.6,66.7,64.6,66.6,64.5z M67.4,67.5c-0.1-0.3-0.4-0.4-0.5-0.2
		C67,67.3,67.2,67.6,67.4,67.5z M66.6,63.4c0.3,0,0.2-0.4,0.5-0.1c0-0.1-0.1-0.3-0.1-0.4c0.2,0,0.4,0.3,0.6,0.4
		c0-0.1-0.2-0.4-0.3-0.5c-0.1,0-0.2,0-0.3-0.1c-0.4,0.3-0.6,0.6-0.7,1c-0.1,0.2,0.5,0.2,0.3,0c0.1-0.1,0.3,0.2,0.3,0.1
		c0.1,0.2-0.1,0.4-0.3,0.4c0,0.1,0.1,0.1,0.2,0.1c0.1,0.1,0.1,0.2,0.2,0.3c-0.2-0.5,0.5,0,0.2-0.3c0.2,0,0.2,0.1,0.4,0.3
		C67.6,64.1,67.1,63.9,66.6,63.4z M68.8,65.9c-0.4-0.2-0.4,0.2-0.8,0.2c0.3,0.5,0.5-0.2,0.7,0.3C68.8,66.2,68.7,66,68.8,65.9z
		 M70.1,69.8c-0.5-0.2-1-0.6-1.5-0.4c0.2,0.2,0.2,0.4,0.1,0.5c0.1,0.1,0.2,0.2,0.3,0.4c0.2-0.1-0.1-0.3-0.1-0.4
		c0.1,0,0.2-0.1,0.3-0.2c0.1,0,0.2,0.1,0.3,0.1c0.2,0.2-0.2,0.2,0.1,0.5c0.3,0.2,0.1-0.5,0.4-0.1C70.1,70.1,69.9,69.9,70.1,69.8z
		 M65.8,64.6c0.2,0.2,0.2,0.3,0.4,0.5c0.3-0.2-0.4-0.4-0.2-0.6C65.8,64.2,66,64.6,65.8,64.6z M66.1,65.4c-0.1-0.1-0.2-0.2-0.3-0.3
		l-0.2,0.2C65.8,65.4,66,65.7,66.1,65.4z M65.9,63.8c0,0,0.1-0.1,0.1-0.1c-0.3-0.4-0.3,0.4-0.6,0.2c0.1,0.3,0.5,0.1,0.7,0.3
		C66.2,64.1,66,63.9,65.9,63.8z M66.8,67.5c0,0.2,0,0.5-0.2,0.7c0.2,0,0.3-0.4,0.5-0.6C67,67.4,67,67.9,66.8,67.5z M65.7,64.8
		c-0.1,0-0.4-0.1-0.3-0.4c-0.2,0-0.5,1,0.1,0.8C65.1,65,65.5,64.8,65.7,64.8z M64.9,66.2c-0.2-0.1-0.2-0.3-0.5-0.5
		c-0.1,0.1-0.1,0.1-0.2,0.2c0.2,0.3,0.2,0.2,0.5,0.6C64.9,66.4,64.8,66.2,64.9,66.2z M53.9,59.1c0.2,0.1,0-0.3-0.2-0.4
		c0,0.1-0.1,0.1-0.2,0C53.4,58.9,53.9,58.9,53.9,59.1z M54.6,60c0.1-0.1,0.3,0,0.3-0.2c-0.2-0.2-0.4-0.1-0.6-0.3
		C54.2,59.7,54.5,59.9,54.6,60z M56.6,60.9c-0.2-0.2-0.3,0-0.5-0.3c0,0.2,0.4,0.4,0.4,0.5C56.6,61.1,56.5,61,56.6,60.9z M57.2,60.6
		c0-0.2,0.1-0.1,0.2-0.2c-0.1-0.2-0.5-0.1-0.3,0.1C57.1,60.6,57.1,60.6,57.2,60.6z M53.2,59c0.1-0.2-0.2-0.3,0-0.5
		c-0.1,0-0.3-0.2-0.5-0.3c0,0.1,0.2,0.3,0.3,0.3c-0.3,0.1-0.5-0.2-0.8-0.3c-0.1,0.1,0.4,0.3,0.5,0.5C52.7,58.4,52.9,59.1,53.2,59z
		 M56.2,59.9c-0.1-0.1-0.1,0.1-0.2,0c0,0,0.1,0.1,0.1,0.2c0,0-0.1,0-0.2,0c-0.1-0.2-0.3-0.4-0.5-0.4c-0.1,0.2,0.7,0.5,0.8,0.7
		c0,0-0.1,0-0.2-0.1c0,0.1,0,0.2,0.1,0.3c0-0.1,0.1,0,0.1,0C56.3,60.4,55.9,60.1,56.2,59.9z M87.2,92.4c0,0,0,0.1,0,0.1
		C87.2,92.4,87.2,92.3,87.2,92.4z M74.5,72.1c0,0.1,0,0.2,0.1,0.4c0.1,0,0.1,0,0.2,0C74.8,72.2,74.6,72.2,74.5,72.1z M82.2,87.7
		c0.1,0,0.2,0.4,0.3,0.3c-0.3-0.1-0.1-0.5-0.3-0.6C82.1,87.4,82.5,87.7,82.2,87.7z M87.2,92.8C87.2,92.8,87.2,92.8,87.2,92.8
		C87.2,92.8,87.2,92.8,87.2,92.8z M57,61.2c0-0.2,0.2,0.1,0.4,0.2c0.2-0.2-0.4-0.4-0.3-0.5c-0.2,0-0.4,0.1-0.4,0.3
		c0.3,0.2,0.6,0.3,0.4,0.5c0.2,0.2,0.2-0.1,0.4,0.2C57.6,61.6,57.2,61.3,57,61.2z M61.1,62.1C61.1,62.1,61.1,62.1,61.1,62.1
		C61.1,62.1,61.1,62.1,61.1,62.1C61.1,62.1,61.1,62.1,61.1,62.1z M61.1,62.1c0,0.1,0.1,0.1,0.2,0C61.2,62.2,61.2,62.1,61.1,62.1z
		 M89.5,91.8c-0.3-0.2,0,0.7-0.3,0.7c0.1,0.1,0.2,0.1,0.1,0c0.2,0,0.3,0.1,0.4,0.3c0-0.1,0.2-0.2,0.3-0.2c-0.1-0.1-0.2-0.1-0.4-0.1
		C89.5,92.1,89.3,91.9,89.5,91.8z M85.9,92.7c0.1,0.3-0.3,0.2-0.4,0c-0.1,0.2,0.2,0.4,0.2,0.7c-0.1-0.1-0.1,0-0.2,0.1
		c-0.1-0.1,0-0.2,0-0.2c-0.1-0.1-0.2-0.1-0.2-0.2c-0.2,0.2,0.2,0.4,0.3,0.7c0-0.3,0.2-0.4,0.2-0.7c0.2,0.3,0.3,0,0.4-0.1
		C86.1,92.5,86.1,93,85.9,92.7z M85.3,90c-0.1,0-0.2,0-0.3-0.1c-0.1,0.1,0,0.3,0.1,0.5c0.1-0.7,0.5,0.2,0.7,0.6
		c-0.1-0.3-0.4-0.9-0.5-1.2C85.2,89.8,85.3,89.9,85.3,90z M84.4,86.2c0.2,0.3,0.5,0.6,0.7,0.9c0-0.3-0.2-0.7-0.4-1L84.4,86.2z
		 M87.5,91.3c0.1,0.2,0.2-0.1,0.2-0.1c0,0.2-0.1,0.3,0.1,0.6c0-0.3,0.3-0.1,0.1,0.1c0.1,0.3,0.1-0.3,0.2,0c-0.1-0.5-0.4-1.3-0.8-1.3
		C87.3,90.8,87.6,91.2,87.5,91.3z M84.3,86.1l0.1-0.1C84.4,86,84.3,86,84.3,86.1z M84.8,87.6c-0.1-0.1-0.1-0.2,0-0.2
		c-0.1-0.1-0.1,0-0.1,0c-0.1,0-0.2-0.4-0.3-0.5c0.2-0.1,0.3,0.3,0.4,0.3c0.1-0.1,0-0.2,0-0.2c-0.3-0.1-0.3-0.3-0.5-0.8
		c-0.1,0-0.1-0.1-0.1-0.2c0.2,0.6,0.1,0.7-0.1,1.1c0.1,0.2,0.2,0.2,0.2,0.3C84.2,86.8,84.6,87.8,84.8,87.6z M58.4,62.3
		c-0.1-0.2,0-0.1,0.1-0.4C58.1,61.6,58.1,62.3,58.4,62.3z M96.1,99c-0.2-0.3-0.3-0.5-0.5-0.8c0,0,0,0,0,0c0.1,0.4,0.1,0.3,0.2,0.7
		C95.9,98.9,96,99.1,96.1,99z M88.9,91.6c-0.2-0.1-0.2,0.1-0.1,0.4C88.9,91.9,89,91.9,88.9,91.6z M58.2,61.2c0.1,0,0.2,0.1,0.3,0
		c-0.2-0.2-0.4-0.1-0.5,0l0.2,0.2C58.2,61.3,58.2,61.2,58.2,61.2z M88.4,93.2c-0.1-0.2-0.3-0.3-0.4-0.5c0.2,0,0.3,0.4,0.4,0.1
		c-0.3-0.1-0.4-0.1-0.3-0.5c0,0.2-0.3,0-0.5,0c0,0.3,0.3,0.5,0.5,0.7c0.2,0.2,0.4,0.4,0.4,0.8C88.6,93.5,88.6,93.4,88.4,93.2z
		 M90.1,93.2c-0.1-0.3-0.4,0-0.5-0.4c-0.1,0,0.1,0.4,0.2,0.3c0,0.1,0,0.2,0.1,0.4c-0.2,0-0.1-0.4-0.4-0.3c0.1,0.3,0.3,0.3,0.4,0.7
		c0.1,0,0.2-0.1,0.2-0.1C90,93.8,89.8,93,90.1,93.2z M44.4,51.2c0.3,0.1,0.3-0.1,0.2-0.3c-0.1-0.1-0.2,0-0.3-0.1
		c-1-0.7-0.3-0.2,0.1,0.2c-0.2,0-0.7-0.3-0.4,0.1c-0.4-0.1-0.1-0.2-0.3-0.4c0,0,0,0.2,0,0.2c-0.4-0.2-0.8-0.5-1.3-0.8
		c-0.5-0.3-1.1-0.7-1.7-0.9c0.4,0.3,0.9,0.7,1.5,1c0.6,0.3,1.2,0.6,1.7,1c0.1,0.1,0,0.2-0.1,0.2c0.3,0.4,0.9,0.5,1.2,0.5
		c0.2,0.2-0.2,0.1-0.1,0.2c0.3,0.3,0.3,0,0.6,0.2C45.2,51.7,44.8,51.4,44.4,51.2z M44.9,49.5c-0.3,0-0.6-0.3-1.1-0.5
		c0.1,0,0.2-0.2,0.5,0c0.1-0.1-0.5-0.3-0.4-0.4c-0.5,0-1.1-0.2-1.2,0.1c0.2,0.3,0.4,0.3,0.8,0.5c0.1-0.2-0.2-0.3-0.1-0.5
		c0.2,0.2,0.6,0.7,0.6,0.8c0.2,0.3,0.4,0,0.4-0.2C44.2,49.4,44.7,49.8,44.9,49.5z M45,50.3c0.3,0,0.7-0.1,0.9,0.2
		c0-0.2-0.6-0.9-0.9-0.7c0.2,0.1,0.2,0,0.5,0.2c0.1,0.1,0,0.2,0.2,0.3c-0.3-0.1-0.5-0.1-0.9-0.4C44.5,49.9,45.1,50.1,45,50.3z
		 M42.3,48.2c-0.2-0.1-0.1,0.3-0.1,0.4c0.1,0,0.2,0,0.3,0.1c0-0.1,0-0.2,0.1-0.1C42.7,48.4,42.3,48.3,42.3,48.2z M41.8,48.1
		c0.2,0.1,0.3,0,0.5,0C42.3,47.9,41.9,48,41.8,48.1z M42,47.9c0-0.1-0.4-0.3-0.6-0.4c0,0.1,0,0.2-0.1,0.1c0,0.1,0.1,0.1,0.1,0.1
		c0.1,0.1,0.1,0.2,0.1,0.3c0.1,0,0.2,0,0.3,0.1C41.8,47.9,41.8,47.8,42,47.9z M41.4,47.2c-0.1,0.1,0.4,0.2,0.2,0.3
		c0.5,0.1,0.8,0.5,1,0.2C42.3,47.7,42,47.4,41.4,47.2z M41.1,47.1c-0.2-0.1-0.3-0.2-0.5-0.2c-0.1,0.3,0.2,0.7,0.5,0.7
		C40.9,47.2,41.2,47.5,41.1,47.1z M41.3,45.8c-0.2,0-0.4-0.2-0.6-0.2C40.7,45.7,41.4,46.1,41.3,45.8z M40.3,45.5
		c-0.6-0.3-1.2-0.5-1.6-1.2c-0.2,0-0.5-0.3-0.5,0c0.8,0.4,1.1,0.9,1.9,1.4c-0.1-0.2,0.1-0.2,0.1,0C40.4,45.7,40.3,45.6,40.3,45.5z
		 M39.1,43.8c-0.2-0.1-0.3,0-0.3,0.1c0.2,0.1,0.6,0.4,0.3,0.3c0.2,0.2,0.6,0,0.8,0.4C40.3,44.4,38.9,44.1,39.1,43.8z M41.6,35.2
		c-0.3,0,0.2,0.3,0.5,0.5C42.3,35.5,41.6,35.3,41.6,35.2z M37.9,43.7c0,0.3-0.1,0.1-0.2,0.2c0.4,0.1,0.2,0.3,0.5,0.4
		c-0.1-0.2,0-0.1,0.1-0.2C37.9,44,38.2,43.8,37.9,43.7z M37.2,43.3c0-0.2,0.3,0.1,0.3-0.1c-0.2-0.1-0.3,0-0.6-0.2
		c-0.1,0.2,0.1,0.3,0.1,0.5c-0.2,0.1-0.1-0.3-0.2-0.5c-0.3-0.1,0,0.2-0.1,0.2c-0.1-0.1-0.3-0.2-0.2-0.4c-0.3-0.2-0.3,0.2-0.4-0.1
		c-0.3,0.1-0.1,0.7-0.1,1c0.1,0,0.2,0,0.3,0.1c0,0.1-0.1,0.1-0.2,0c0.3,0.2,0.3,0.5,0.8,0.8c0-0.1-0.2-0.3-0.4-0.4
		c0.7,0-0.6-1,0.2-0.8c0.3,0.2-0.3,0.3,0.3,0.5c0.1-0.1-0.1-0.2-0.1-0.3c0.5,0.4,1,0.9,1.8,1.5c-0.4-0.4-0.9-1.1-1.6-1.4
		c-0.1-0.1,0-0.1,0-0.2c0-0.1,0.3,0.1,0.5,0.2C37.8,43.5,37.4,43.4,37.2,43.3z M37.7,38.1c-0.2,0-0.3-0.1-0.2-0.2
		c-0.5,0,0.1,0.2,0,0.4C37.7,38.5,37.8,38.3,37.7,38.1z M37.6,37.7c-0.1,0-0.2-0.1-0.3-0.1c0,0.1-0.1,0.1-0.1,0.2
		C37.3,37.8,37.6,37.9,37.6,37.7z M36.4,38.6c0.2,0,0.6,0.2,0.4,0.4c0.5,0,0.3-0.5,0.3-0.8C36.9,38.4,36.6,38.5,36.4,38.6z
		 M35.9,39.7c0,0.1,0.1,0.3,0.1,0.4c0.2,0.1,0.2,0,0.5,0.2c0.1-0.1,0.1-0.2,0.1-0.3c-0.1,0-0.2,0-0.3,0C36,39.9,36,39.8,35.9,39.7z
		 M35.6,40.8c0,0.2,0.1,0.4,0.3,0.7c0-0.1-0.1-0.5,0.3-0.3c0-0.1,0-0.1,0-0.2C35.9,40.8,35.9,40.7,35.6,40.8z M37,46.5
		c0.3,0.2,0.4,0.4,0.8,0.6c0-0.1-0.2-0.2,0-0.4c-0.4-0.2-0.4-0.5-0.7-0.5C36.9,46.3,37.2,46.6,37,46.5z M39.1,46.1
		c-0.1,0.1,0.1,0.4,0.5,0.6c0.3,0.3,0.8,0.6,1.1,0.7c0.1-0.2-0.6-0.4-0.2-0.5c-0.2-0.2-0.4-0.3-0.8-0.6c0.2,0.3,0,0.1-0.3,0.1
		c-0.2-0.1,0.2-0.1,0-0.3C39.4,46.2,39.2,46,39.1,46.1C39,46.1,39.1,46.1,39.1,46.1z M46.7,51.1c0-0.1,0.1-0.1,0.1-0.2
		c-0.1-0.2-0.5-0.4-0.7-0.5c0,0.1,0,0.2-0.1,0.1C46,50.6,46.5,50.9,46.7,51.1z M48.5,52.1c0-0.2-0.8-0.3-0.7-0.7c-0.1,0-0.2,0-0.3,0
		c-0.1-0.1,0.1-0.2-0.2-0.4c0,0.1,0,0.1,0,0.2c-0.1-0.1-0.1-0.3-0.3-0.3C47.4,51.7,47.9,51.9,48.5,52.1z M49.1,53
		c0.4-0.1,0.2,0.3,0.7,0.6c0.2,0.1-0.6-0.7,0.1-0.3c-0.1-0.2-0.6-0.5-0.7-0.7c0,0.1-0.1,0.1-0.2,0C48.9,52.8,49.2,52.8,49.1,53z
		 M49.9,51.1c0,0.1,0,0.2-0.1,0.3c0.1,0.1,0.2,0.2,0.3,0.2c0-0.1-0.1-0.2-0.1-0.3c0.1,0,0.1,0.1,0.2,0.1
		C50.4,51.3,50,51.2,49.9,51.1z M50.6,54.7c0,0.1-0.1,0.1-0.3,0c-0.3,0,0.5,0.2,0.2,0.3c0.2,0.1,0.3,0,0.3-0.1
		c-0.2-0.1-0.2-0.3-0.4-0.4c0.1-0.1,0.4,0,0.5,0c0-0.1-0.2-0.2-0.2-0.3c-0.1-0.1-0.1,0,0,0.1c-0.2,0.1-0.3-0.3-0.5-0.3
		c0,0.1,0.1,0.2,0,0.3c-0.3-0.2-0.5-0.3-0.7-0.4C49.8,54.1,50.2,54.4,50.6,54.7z M51.3,54.8c-0.1,0-0.1,0.1-0.1,0.1
		c0.1,0,0.4,0.2,0.5,0c-0.2,0-0.2-0.2-0.5-0.4C51.1,54.4,51,54.7,51.3,54.8z M51.6,56.6c-0.1-0.1-0.1-0.1-0.1-0.2
		c-0.2-0.1-0.3,0.1-0.5,0C51,56.6,51.5,56.8,51.6,56.6z M52.2,57.5c-0.1-0.2,0-0.3,0.3,0c0.2-0.3-0.1-0.4-0.4-0.6
		c0.2,0.4-0.2,0.1-0.6-0.2C51.3,57.1,52,57.3,52.2,57.5z M53.1,56.6c-0.3,0-0.4-0.4-0.4-0.6c0-0.1,0.3,0.2,0.2,0.3
		c0.1,0,0.3,0.2,0.3,0c-0.1-0.1-0.1,0-0.1,0c-0.1-0.1,0-0.1,0-0.2c-0.3-0.1-0.3-0.1-0.6-0.3c0.1,0.2,0.4,0.8-0.3,0.3
		c0.1,0.2,0.3,0.4,0.4,0.6C52.6,56.3,52.9,56.8,53.1,56.6z M51.7,56.3c0,0.2,0.4,0.2,0.6,0.4c0.1-0.1-0.1-0.3-0.3-0.4
		C52.1,56.4,51.9,56.5,51.7,56.3z M52.5,54.5c-0.3-0.2,0.1,0.4-0.2,0.2c0.1,0.3,0.4,0.1,0.5,0.1C52.8,54.7,52.5,54.7,52.5,54.5z
		 M54.6,56.8c0.1-0.1,0-0.1-0.1-0.2c0.1,0,0.2,0.1,0.3,0l-0.5-0.4C54.2,56.4,54.4,56.6,54.6,56.8z M55,58.4c0.2,0.2,0.3,0.2,0.4,0.3
		c0-0.1-0.1-0.3-0.4-0.5C55.1,58.2,55.1,58.3,55,58.4z M56.5,58c0.1-0.1,0-0.3,0.2-0.2c0.1,0.2,0.1,0.4,0.5,0.5
		c-0.2-0.2-0.2-0.4-0.4-0.6C56.6,57.7,56.1,57.6,56.5,58z M56.7,59c-0.1-0.2,0.1-0.1,0.3,0.1c-0.1-0.4-0.5-0.3-0.7-0.4
		C56.3,59,56.6,58.8,56.7,59z M56.9,59.1c-0.3-0.3-0.3,0.1-0.5-0.1C56.3,59.3,56.8,59.3,56.9,59.1z M56.7,59.8c0-0.1,0.1-0.1,0.2,0
		c0-0.1-0.1-0.2,0-0.2c-0.1-0.2-0.5-0.2-0.7-0.2C56.4,59.4,56.5,59.6,56.7,59.8z M57.9,59.3c0.1-0.1,0-0.3-0.1-0.4
		c0,0.1,0,0.2-0.1,0.3C57.7,59.1,57.8,59.2,57.9,59.3z M58.3,59.7c0-0.3,1.1,0.5,0.8,0.9c0.3,0.2,0.5,0.2,0.4,0.5
		c0.1,0,0.4,0.1,0.3,0.3c0.1,0,0.2,0,0.3,0c0.2,0.1,0.1,0.2,0.3,0.4c0,0.1-0.1,0-0.1,0c0.1,0.3,0.3-0.1-0.1-0.3
		c0.2-0.1,0.4,0,0.5-0.1c0.2-0.1-0.1-0.3,0.1-0.4c-0.2-0.1-0.1-0.2-0.3-0.4c-0.2,0.2-0.2,0.2-0.3-0.1c-0.1,0.1,0.2,0.4,0.2,0.5
		c-0.1-0.2-0.5-0.1-0.7,0c0-0.2-0.2-0.5,0-0.7c-0.2-0.1-0.2,0.2-0.4,0c-0.2-0.3,0.6,0.1,0.1-0.3c0.1-0.3,0.4,0.1,0.5,0
		c-0.5-0.3-0.7-0.4-1-0.3c-0.1-0.1,0-0.5,0.2-0.3c-0.2-0.4-0.6,0.1-0.3,0.4c-0.2,0.1-0.3-0.2-0.6-0.4C58,59.3,58.1,59.5,58.3,59.7z
		 M58.8,60.6c-0.1-0.2-0.2-0.2-0.4-0.3C58.3,60.4,58.8,60.9,58.8,60.6z M60,62.2c0-0.2-0.4-0.3-0.5-0.4c0.1-0.3,0.4,0.1,0.5-0.1
		c-0.3-0.3-0.7,0.1-0.8-0.4c0.2-0.1,0.2,0,0.3,0.2c0.1-0.3-0.3-0.3-0.5-0.5c0.2,0.3,0,0.1-0.2,0.2C59.2,61.6,59.4,62,60,62.2z
		 M61.3,61.4c-0.1-0.4,0.4-0.4,0.6-0.1c-0.1-0.5-0.5-0.5-1-1c0,0,0.1,0.1,0.1,0.2C60.7,60.5,60.7,61.1,61.3,61.4z M60.5,59.9
		c-0.1,0-0.2-0.1-0.3-0.1c-0.1,0.2,0,0.4,0.3,0.6C60.8,60.3,60.3,60.1,60.5,59.9z M62.5,59.8c-0.1-0.2-0.2-0.4,0.1-0.4
		c-0.2-0.1-0.4-0.5-0.5-0.3c0-0.2-0.4-0.6,0-0.6c-0.5-0.4-0.6-0.4-1.1-0.8c0,0.2,0.4,0.4,0.4,0.6c0.2,0.2,0.2-0.1,0.4,0.1
		c0,0.2,0.1,0.4,0.2,0.6c-0.1,0.1-0.3-0.3-0.3-0.1c-0.1-0.1-0.3-0.2-0.3-0.3c-0.3-0.2,0,0.2,0,0.3c-0.1,0.1-0.2,0-0.3,0.2
		c-0.1-0.1-0.2-0.2-0.2-0.2c-0.2,0.1,0.2,0.4,0.6,0.7c-0.4-0.2-0.1,0.1,0.1,0.3c-0.2,0-0.3-0.1-0.5-0.3c-0.1,0.3,0.4,0.8,0.7,1
		c0-0.1,0-0.1,0.1-0.2c-0.1-0.1-0.2-0.1-0.3-0.2c0.1-0.1,0.1-0.2,0.1-0.3c0.3,0.2,0.7-0.3,0.2-0.6c0.1,0,0.2,0,0.4,0.1
		C62.3,59.4,62.1,59.5,62.5,59.8z M60.3,57.1c-0.1,0.1,0.3,0.3,0.2,0.4c0.1,0.1,0.2,0,0.3-0.1C60.6,57.2,60.5,57.3,60.3,57.1z
		 M62.9,59.7c0,0.2,0.1,0,0-0.1c0,0,0.1,0,0.2,0.1c0.1-0.1,0.1-0.2,0.1-0.3c-0.1-0.1-0.2-0.1-0.3-0.2C62.7,59.3,62.8,59.5,62.9,59.7
		z M67.4,62.2c0.1-0.1,0-0.1,0.1-0.2c0,0.3,0.4,0.4,0.4,0.2c0.1,0.4,0.5,0.9,0.9,0.8c-0.2-0.2-0.3-0.3-0.3-0.1
		c-0.2-0.2-0.1-0.3-0.1-0.5c-0.3,0-0.1-0.1-0.5-0.4l-0.2,0.2c0-0.1-0.2-0.3,0-0.4c-0.2-0.2-0.3-0.2-0.6-0.5c0.1,0.4-0.4,0-0.5-0.3
		C66.3,61.3,67.4,62,67.4,62.2z M68.4,62c0,0.1,0.2,0.2,0.1,0.3c-0.1,0.1-0.2-0.4-0.3-0.1c-0.3-0.5-0.7-0.7-1.4-1.2
		c0,0.2,0.4,0.6,0.9,0.9c0.4,0.3,0.9,0.7,1.2,0.8C68.5,62.4,68.8,62.3,68.4,62z M69.4,63.9c0.1-0.1,0.2,0,0.3-0.1
		c-0.1-0.3-0.4-0.3-0.6-0.4C69,63.5,69.3,63.7,69.4,63.9z M69.8,65.1c0,0,0.1,0.1,0.2,0.1c0.1-0.2,0-0.2-0.2-0.3l-0.2,0.2
		C69.7,65.3,69.8,65.3,69.8,65.1z M71.5,68.9c0.2,0,0.7,0,0.6,0c0.3,0.2,0.1-0.3,0.2-0.4c-0.2-0.2-0.3-0.1-0.5-0.4
		c-0.3,0.3-0.6,0.1-1,0C70.9,68.7,71.5,68.5,71.5,68.9z M72.7,68.1c-0.2-0.3-0.3-0.2-0.4-0.4c-0.1,0.1,0,0.3,0.1,0.5
		C72.5,68.3,72.6,68.3,72.7,68.1z M73,67.7c-0.2-0.2-0.4-0.4-0.6-0.3c0.1,0.3,0.5,0.2,0.3,0.4C72.8,68,72.9,67.7,73,67.7z M72.6,69
		c0.1,0.1,0.2,0.2,0.3,0.3c0.2,0.2,0.1-0.2,0.1-0.2c-0.2-0.2-0.3-0.4-0.4-0.4C72.4,68.8,72.5,68.9,72.6,69z M72.4,70.1
		c0.2,0.2,0.4,0,0.6,0.3c0.2,0.4,0,0.6-0.1,0.8c0.1,0.2,0.3,0.2,0.4,0.4c0.2,0,0-0.2,0.2-0.3c-0.1-0.2-0.2-0.2-0.3-0.1
		c-0.2-0.3,0.3-0.5,0.2-0.8C73.1,70,72.5,69.7,72.4,70.1z M72.3,71.1c-0.2,0.1-0.4,0-0.6,0.1c0.2,0.2,0.3,0.6-0.1,0.7
		c0.5,0.1,0.9,0.2,1.5,0.7l0.2-0.2C73,72.2,72.6,72,72.5,72c0-0.1,0.1-0.4-0.2-0.5c0.4-0.1,1,0.6,1.1,0.2
		C73,71.5,72.7,71.7,72.3,71.1z M71.8,72.8c0.2-0.1,0.1-0.2,0.1-0.3c-0.1,0-0.3,0-0.4-0.3c-0.1,0.1-0.1,0.1-0.2,0
		C71.2,72.4,71.6,72.6,71.8,72.8z M72.5,73.5c-0.1-0.1-0.3-0.3-0.4-0.2C72.1,73.5,72.4,73.7,72.5,73.5z M73.4,73.1
		c0.2-0.4,0.1,0.1,0.3,0.4c0,0,0.1-0.1,0.2-0.1c0.3,0.3,0.1,0.5,0.4,0.7c0.1-0.1,0-0.3,0-0.5c-0.4-0.3-0.7-1-1.1-0.8L73.4,73.1z
		 M75.3,74.4c0.1-0.2,0.3,0,0.4-0.2c-0.3-0.4-0.9-0.7-1.3-1.4c-0.1,0.1-0.1,0-0.2-0.1c-0.2,0.1,0.3,0.2-0.1,0.2
		c-0.1-0.1-0.1-0.2-0.1-0.3c0.3,0,0.4-0.1,0.5-0.1c0.3,0.3,0.4,0.7,0.7,0.6c0.1,0.4,0.3,0.5,0.6,1c-0.1-0.5-0.3-0.8-0.5-1.1l0.2-0.1
		c0.2,0.2,0,0.3,0.2,0.5c0.1-0.1,0.3-0.2,0-0.3c0.1-0.1,0.1,0,0.2,0c0.2,0.2,0.1,0.4,0.4,0.6c0.1-0.3,0.2-0.4-0.1-0.9
		c-0.1,0,0,0.2,0.1,0.3c-0.3,0-0.2-0.2-0.5-0.5c-0.4,0.1-0.6-0.3-1-0.3c-0.1-0.2,0.1-0.2-0.1-0.4c-0.1,0.1,0.1,0.3-0.1,0.4
		c0-0.1-0.1-0.1-0.1-0.2c-0.1-0.1,0.1-0.2,0.1-0.2c-0.2-0.4-0.6-0.5-0.9-1c0,0,0,0.1,0.1,0.2c-0.3,0-0.3,0-0.3,0.3
		c0.1,0,0.4,0.3,0.4,0.5c-0.2,0.1-0.4,0.4-0.3,0.7c-0.2-0.1-0.4-0.2-0.6-0.4c0.3,0.6,1.1,1.4,1.8,1.5c0,0.2,0.1,0.1,0.2,0.2
		c-0.1,0.1-0.2-0.1-0.3,0.1C74.9,74,75.1,74.2,75.3,74.4z M76,74.6c0-0.2-0.2-0.4-0.4-0.2C75.8,74.5,75.9,74.7,76,74.6z M76.1,74.5
		c0.3,0.2,0.2-0.4-0.1-0.4C75.9,74.2,76.2,74.4,76.1,74.5z M77,74.4c0.2,0.2,0.1,0.2,0.3,0.5c0.2-0.1,0.4,0.3,0.5,0.1
		c0-0.4-0.7-0.4-0.6-0.7c-0.2,0-0.2,0.1-0.4-0.3c-0.4,0.4-0.6-0.7-1-0.4c0.1,0.4,0.4,0.7,0.6,0.9C76.7,74.5,76.9,74.5,77,74.4z
		 M77.5,75.9c-0.1-0.1-0.2-0.2-0.1-0.3c-0.1,0-0.3-0.4-0.4-0.2C77.3,75.6,77.2,75.9,77.5,75.9z M76.1,72.1c0,0.3,0.3,0.5,0.5,0.7
		C76.6,72.5,76.2,72.4,76.1,72.1z M75.9,71.3c0.2,0.4,0.3,0.1,0.5,0.3C76.4,71.3,76,71.2,75.9,71.3z M75.7,71.6
		c0-0.1-0.1-0.1-0.1-0.2c0,0.3-0.1,0.2-0.3,0c0,0.2,0.3,0.2,0.3,0.5c0.2,0-0.1-0.4,0.1-0.2C75.7,71.7,75.7,71.7,75.7,71.6z
		 M75.9,70.8c-0.4-0.2-0.3-0.4-0.6-0.7c-0.1,0.1,0,0.3,0.1,0.4c-0.1,0-0.3-0.2-0.5-0.4c0,0.5-0.5,0.2-0.9-0.2
		c-0.1,0.1,0.1,0.4,0.3,0.4c-0.1,0.2-0.2-0.2-0.3,0c0.2,0.4,0.4,0.2,0.6,0.4c0.1-0.1,0-0.3,0.1-0.4c0.2,0.1,0.2,0.3,0.2,0.5
		c0.2,0.1,0.4-0.2,0.7,0.3c0.2-0.1,0.1-0.4,0.3,0C75.9,71,75.8,70.9,75.9,70.8z M74.3,68.9c0,0.3-0.4-0.4-0.7-0.2
		c0.2,0.4,0.3,0.3,0.5,0.7c0.1-0.2,0.4-0.1,0.3,0.1c0.2,0.2,0-0.2,0.2-0.2C74.4,69.2,74.5,69.1,74.3,68.9z M73.3,69.8
		c0.2,0.1,0.4,0.4,0.6,0.4c0.1-0.1-0.3-0.3,0-0.3c-0.2-0.2-0.4-0.4-0.6-0.6C73.1,69.4,73.5,69.8,73.3,69.8z M71.5,67.1
		c-0.2,0.1,0,0.2-0.2,0.3C71.5,67.5,71.8,67.4,71.5,67.1z M78.2,78.4c0.1-0.2,0.1-0.4,0-0.7c-0.2,0-0.1,0.4-0.3,0.2
		C77.9,78.1,78.2,78.1,78.2,78.4z M78.7,77.4c-0.1-0.3-0.2-0.1-0.3-0.3c-0.1,0.1,0.2,0.3,0.2,0.5C78.6,77.5,78.6,77.4,78.7,77.4z
		 M79.1,77.2c-0.1-0.1-0.1-0.2-0.2-0.3c-0.5,0-0.2,0.1,0,0.5C79,77.3,79,77.3,79.1,77.2z M78.9,78.8c0.1,0.2,0.2-0.1,0.2-0.1
		c-0.2-0.1-0.4-0.5-0.6-0.3C78.7,78.6,79.1,78.5,78.9,78.8z M79.7,77.5c0.1,0,0.2,0,0.3,0.1c0.1-0.2-0.4-0.3-0.3-0.4
		C79.5,76.9,79.5,77.3,79.7,77.5z M79.3,79.2c0.1,0,0,0.1,0.2,0.3c0-0.1,0-0.1,0.1-0.2c-0.1-0.1-0.1-0.2-0.2-0.3
		C79.3,79,79.3,79.1,79.3,79.2C79.3,79.3,79.3,79.2,79.3,79.2z M79.5,81.8c0.4,0.4,0.5,0.5,0.9,0.9c-0.1,0.3,0,0.5,0.3,0.9
		c0.1-0.1,0.1-0.6,0.4-0.2c0-0.2-0.2-0.7-0.4-0.5c0-0.1,0.1-0.2,0-0.3l-0.2,0.1c0-0.1,0-0.2,0-0.2c-0.1-0.1-0.1,0-0.2,0
		c-0.3-0.4-0.4-0.4-0.4-0.8C79.6,81.7,79.5,81.6,79.5,81.8z M79,82.5c-0.1,0.2-0.2,0.3-0.3,0.5c0.4,0.2,0.2-0.4,0.6-0.1
		C79.2,82.5,79.1,82.7,79,82.5z M78.3,84.1c-0.1,0-0.2,0.1-0.1,0.3c0,0-0.1,0-0.1-0.1c-0.1,0.1,0.3,0.2,0.4,0.1
		C78.4,84.3,78.4,84.2,78.3,84.1z M79,84.4c-0.4-0.4-0.5,0.6,0,0.7C79,84.9,78.8,84.6,79,84.4z M78.6,86c0.2,0-0.2-0.4,0.1-0.4
		c0,0.5,0.2,0.7,0.4,1.2c0.2,0,0.6,0.1,0.3-0.3c-0.2,0.1,0,0.2-0.2,0.1c0-0.2,0-0.3-0.1-0.5c0.1,0,0.3,0.1,0.4,0.1
		c0,0.1-0.1,0.2,0,0.3c0.1-0.1,0.1-0.2,0.3-0.3c0-0.1-0.3-0.4-0.2-0.5c-0.2-0.1-1.3-0.2-1-0.6c-0.1-0.1-0.3,0-0.4,0
		c-0.1-0.2,0.2-0.2,0.2-0.3c-0.2-0.3-0.4-0.3-0.7-0.3C78,85.2,78.2,85.7,78.6,86z M80.5,84.4c0.1,0.2,0.1,0.4,0.1,0.5
		c0.2,0-0.1-0.4,0.1-0.4c-0.2-0.3-0.4-0.6-0.6-0.6C80.4,84,80.4,84.2,80.5,84.4z M80.6,85.9c-0.1-0.2-0.1-0.5-0.3-0.4
		C80.4,85.7,80.5,86.1,80.6,85.9z M81.3,84.5c0.2,0.2,0.3,0.6,0.5,0.5c-0.1-0.2-0.2-0.2-0.3-0.5c0.1-0.1,0.1-0.3,0.1-0.4
		c0.3,0.1,0.3-0.1,0.5-0.1c0-0.1,0-0.2,0-0.2c-0.2-0.1-0.3-0.5-0.3-0.1c-0.2-0.3-0.3-0.4-0.5-0.5c0,0.1,0,0.2,0,0.3
		c0.1,0,0.2,0,0.3,0.2c-0.1,0.2-0.2-0.1-0.3-0.1C81.4,84.2,81.3,84.2,81.3,84.5z M81.5,85.7c0-0.2,0.2-0.4,0.2-0.1
		c0.3,0.2-0.1-0.2,0-0.3c-0.1-0.1-0.1,0-0.1,0c-0.1,0.1-0.3,0-0.4-0.2C80.9,85.2,81.3,85.4,81.5,85.7z M82.3,85.9
		c0-0.2-0.1-0.5-0.3-0.6C81.9,85.4,82.3,85.7,82.3,85.9z M82.2,81.6c-0.2,0.2-0.3-0.3-0.4-0.1c0.1,0,0.2,0.2,0.2,0.3
		c0.1,0.2,0.2-0.1,0.3,0.1c-0.1,0.2,0.2,0.2,0.1,0.4C82.7,82.3,82.4,81.9,82.2,81.6z M81.4,80.9c0.3,0.2,0.5,0.4,0.8,0.5
		C81.8,81.1,81.8,80.9,81.4,80.9z M81.1,83.7c-0.1-0.1-0.3-0.3-0.3-0.1c0.1,0.1,0.1,0,0.2,0c0,0.1-0.1,0.2,0,0.3
		C81.1,83.9,80.9,83.7,81.1,83.7z M81.8,82.4c-0.1-0.1-0.1,0-0.2,0c0-0.1,0-0.1,0.1-0.1c-0.1-0.1-0.1-0.1-0.2-0.1l-0.1,0.1
		C81.6,82.5,81.8,82.7,81.8,82.4z M81.6,82.9c0.1,0.4,0.5,0.2,0.2-0.1C81.6,82.7,81.8,82.8,81.6,82.9z M80.5,82.2
		c0.2,0.4,0.4,0.3,0.6,0.6c-0.1,0.2-0.2-0.4-0.4-0.1c0.1,0.3,0.2,0.2,0.3,0.4c0.2-0.1-0.1-0.5,0.2-0.6c-0.2-0.4-0.3-0.1-0.3-0.5
		C80.9,82.3,80.7,82.2,80.5,82.2z M80.2,81.9c0,0,0.1,0,0.1-0.1c0.1,0.1,0,0.2,0.1,0.4c0.1-0.1,0.2-0.2,0.3-0.4
		C80.4,81.4,80.2,81.7,80.2,81.9z M80.9,80.1c0.2,0.2,0.1,0.3,0.4,0.5C81.4,80.4,81,80,80.9,80.1z M78.9,80.4
		c-0.2,0.2,0.3,0.3,0.2,0.5c0.1,0.1,0.2,0,0.3,0C79.2,80.6,79,80.7,78.9,80.4z M77.7,82c-0.2-0.3-0.1,0.1-0.4,0
		c0.2,0.3,0,0.3,0.2,0.6C77.7,82.4,77.4,82.1,77.7,82z M84.2,82.3c0.1-0.1,0.2,0.1,0.3-0.1c-0.3-0.1-0.6-0.8-0.9-0.8
		C83.8,81.5,84,82,84.2,82.3z M85,84.2C85,84.2,84.9,84.1,85,84.2C84.9,84.2,85,84.2,85,84.2z M84.7,84.8c-0.1,0.3,0.2,0.6,0.4,0.9
		c0.1-0.2,0.2-0.5,0-0.7C85,85.5,85,85.1,84.7,84.8z M85.5,86.3c0.1-0.2,0-0.5-0.2-0.5c0-0.2,0.2-0.3,0.3-0.3c0-0.4-0.3-0.5-0.5-0.8
		c-0.1,0.3,0.3,0.2,0.4,0.6c0.1,0.3-0.2-0.2-0.3,0C85.3,85.7,85.2,85.9,85.5,86.3z M86.5,87.6c0.1,0,0.1-0.2,0.2-0.1
		c0.1-0.1-0.1-0.3-0.1-0.4c-0.2,0.3-0.3-0.6-0.7-0.7C86.1,87,86,87.2,86.5,87.6z M86.9,88.2c-0.1-0.2-0.2-0.3-0.1-0.5
		C86.4,87.4,86.6,88.4,86.9,88.2z M86.3,88.2c0.2,0.4,0.3,0.6,0.5,0.8C86.9,88.7,86.5,88.2,86.3,88.2z M87.7,89.8
		c-0.1-0.4-0.6-0.9-0.8-1.4C87,88.8,87.5,89.6,87.7,89.8z M88.3,89.3C88.3,89.4,88.3,89.4,88.3,89.3l0.2,0l-0.2-0.4
		C88.1,89,88.4,89.2,88.3,89.3z M87.8,90.6c0.2,0.2,0.4,0.1,0.5,0.3c0-0.1,0-0.3,0.1-0.4c-0.1-0.3-0.2-0.2-0.4-0.4
		c-0.1,0.1,0.1,0.2,0.1,0.3c-0.2,0-0.3-0.1-0.4-0.2C87.7,90.3,87.9,90.6,87.8,90.6z M88.9,90c0.1-0.2-0.2-0.1-0.2-0.4
		c-0.1,0.1-0.2,0.2-0.3,0.3C88.7,90.2,88.7,89.7,88.9,90z M88.6,89.4c-0.1,0.2-0.3,0-0.2,0.4C88.6,89.7,88.7,89.6,88.6,89.4z
		 M87.2,87.1c-0.1,0,0.1,0.3,0,0.4c0.1,0.1,0.2,0.3,0.4,0.2C87.5,87.3,87.3,87.3,87.2,87.1z M86.5,85.5c-0.1,0.1,0.1,0.5,0.1,0.7
		c0.1-0.2,0.2,0.4,0.4,0.2C86.7,86,86.7,86.1,86.5,85.5z M85.9,84.4c0-0.3,0-0.2-0.1-0.5c-0.1,0.2,0.1,0.6,0.3,0.8
		C86.1,84.7,86,84.4,85.9,84.4z M85.5,84.4c0.2,0.3,0.2,0.3,0.3,0.5C85.9,84.9,85.6,84.2,85.5,84.4z M85.8,89.7
		c0,0.1,0.3,0.8,0.5,0.8C86.1,90.1,85.9,90,85.8,89.7z M47.6,53.9c0.1-0.1,0-0.2,0.1-0.3c0.2,0.1,0.4,0.4,0.5,0.3
		c-0.2-0.1-0.1-0.3-0.2-0.4c-0.2-0.2-0.2,0-0.4-0.2c0.1,0.3-0.4-0.1-0.5,0c0.1,0.1,0.2,0.1,0.3,0.1c-0.2,0.1-0.1,0.2-0.2,0.1
		c0-0.2-0.2-0.3-0.3-0.5c-0.5-0.2-1-0.5-1.4-0.6c0.2,0.1,0.4,0.3,0.4,0.4c-0.1,0.1-0.4-0.3-0.5-0.2c0.4,0.3,0.8,0.6,1,0.8
		c-0.3,0-0.8-0.3-1.2-0.6c-0.4-0.3-0.7-0.6-0.4-0.7c-0.7-0.7-1.5-0.8-2.2-1.3c-0.5-0.4-1.5-0.9-2-1.3c-0.5-0.3-0.6-0.7-1.1-1.2
		c-0.2-0.2-0.4-0.3-0.7-0.5c-0.2-0.2-0.4-0.3-0.5-0.5c-0.3-0.1-1.3-0.7-1.6-1c-0.1-0.6-0.2-2-1.4-2.6c-0.1-0.3-0.3-0.7-0.3-1
		c-0.3,0-0.5-0.3-0.7-0.4c0.1-0.5,1-0.2,0.7-0.8c0.5,0.2,1.2,0.1,0.9-0.2c0,0.1-0.2,0.1-0.4,0c0.3-0.2,0.1-0.5-0.1-0.7
		c0,0.1-0.1,0-0.1,0.1c0,0.1,0.1,0.2,0.3,0.3c-0.2,0.2-0.5,0.1-0.7,0.1c0.3-0.1,0.3-0.4,0.1-0.6c0.4,0.2,0.6-0.1,0.5-0.3
		c0.3,0.2,0.4,0.1,0.5,0.1c-0.1-0.1,0-0.2-0.2-0.4c-0.2-0.1-0.5,0-0.6-0.2c0.4-0.1,0.1-0.5,0.1-0.7c-0.1-0.1-0.2-0.1-0.3-0.1
		c0-0.1-0.1-0.3-0.1-0.4c0,0,0-0.1,0.1-0.1c0,0,0,0,0,0c0.1,0.4,0.2-0.1,0.5,0c-0.1,0.3,0.8,0.6,0.7,1c0-0.1,0.1,0,0.1-0.1
		c-0.5-0.5,0.4-0.7-0.5-1.1c0.8,0.1,0-0.8,0.6-0.8c-0.1,0.2-0.2,0.5,0.1,0.7c0-0.3-0.1-0.5,0.3-0.5c-0.2,0.1-0.3,0.2-0.1,0.4
		c0.2-0.3,0-0.6,0.3-0.9c-0.4-0.1-0.2-0.1-0.3-0.3c-0.1,0-0.2-0.1-0.3-0.1c0.1-0.1,0.2-0.2,0.3-0.3c0.2,0.1,0.3,0.2,0.4,0.3
		c0.1-0.2,0-0.4-0.1-0.5c0.1-0.1,0.3-0.2,0.4-0.3c2.1-1.4,4.8-1.6,7.3-1c0.1,0,0.1,0,0.2,0.1c0,0,0,0,0,0c0,0,0.1,0,0.1,0
		c0,0.1,0,0.2,0,0.4c0.7,0.4,1.2,0.8,1.6,0.8c0,0.3,0.6,0.5,0.8,0.5c-0.5-0.4,0.1-0.1,0.1-0.4c0.3,0.5,0.7,0.6,1.1,0.3
		c-0.1,0.1-0.1,0.2,0.1,0.3c0.2-0.1,0.3-0.1,0.5-0.1c2.3,1.4,4.2,3.3,6.1,5.3c10.8,11.2,20.2,23.7,28,37.2c0.3,0.5,0.6,1,0.9,1.5
		c0,0.3,0.2,0.6,0.4,0.7c0,0,0,0,0-0.1c1.4,2.3,2.9,4.5,4.5,6.7c0,0.1,0,0.1,0.1,0.2c0,0,0,0,0,0c0.4,0.5,0.7,1.1,1.1,1.6
		c-0.1,0-0.2,0-0.4,0c0,0.3,0.4,0.5,0,0.5c0.3,0.2,0.5,0.6,0.7,1c0.2,0,0.1-0.3,0-0.5c-0.1,0-0.2,0-0.2-0.1c0-0.4,0.3,0.2,0.4,0
		c-0.2-0.3-0.4-0.4-0.6-0.5c-0.1-0.2,0.3,0,0.4,0.1c0,0.1,0.1,0.1,0.1,0c0.1,0.1,0.2,0.2,0.3,0.4c0,0.2,0.1,0.4-0.1,0.2
		c0.2,0.1,0.1,0.2,0.2,0.5c0.1-0.1,0.2,0.1,0.3,0c0,0.2,0.3,0.5,0.1,0.5c-0.2-0.3-0.1,0.2-0.1,0.2C90.9,92,91,92.1,90.7,92
		c-0.1-0.5-0.4-0.3-0.6-0.6c-0.1,0.1-0.2,0.1-0.2,0.3c0.2,0.1,0.2,0.2,0.3,0.5c0.1-0.2,0.3,0.1,0.2,0.2c-0.2-0.1-0.1,0,0,0.2
		c0.1,0.2,0.2,0.4,0.1,0.4c-0.2-0.5-0.7-1.2-0.8-1.5c0.1,0.2,0.2,0,0.3,0c-0.4-0.3,0.3-0.1,0.2-0.4c-0.2-0.1-0.3-0.1-0.4,0
		c0-0.3,0-0.6-0.3-0.4c-0.2-0.3,0.1-0.2,0-0.5c-0.1,0-0.2-0.5-0.3-0.4c0.1,0.3,0.1,1.1-0.2,0.7c0.1,0,0.2-0.2,0.1-0.4
		c-0.1,0-0.2-0.1-0.3-0.1c0,0.3,0.1,0.1,0.2,0.3c0,0.4-0.4-0.5-0.4-0.1c0.2,0.3,0.5,0.4,0.7,0.8c-0.1,0-0.2,0.1-0.1,0.3
		c-0.4,0.1-0.5-0.2-0.7,0.2c0.1-0.1,0.2,0.1,0.1,0.2c-0.1-0.2-0.1,0.1-0.2,0.1c-0.1-0.3-0.6-0.6-0.4-0.8c0.1,0.1,0.1,0.4,0.2,0.4
		c0-0.5-0.6-0.5-0.8-1c0.1,0.1,0.1,0.2,0.2,0.3c-0.3,0-0.3-0.2-0.5-0.2c0.3,0.4,0.2,1,0.5,1.2c0.4,1.1-0.3-0.3-0.4-0.6
		c0-0.1,0-0.2-0.1-0.3c0,0-0.3-0.1-0.2,0.1c0.2,0.4,0.5,0.7,0.4,1.1c-0.1-0.8-0.2,0.2-0.4-0.3c0.1-0.2-0.4-1-0.5-1.1
		c0,0.4,0.2,0.7,0.4,1c0.2,0.3,0.3,0.5,0.4,0.8c0,0.1,0,0.4,0,0.4c-0.2-0.4-0.2-0.5-0.5-0.7c0.2-0.3-0.4-0.6-0.6-0.7
		c0.2-0.1,0.3,0.1,0.4,0c-0.3-0.5-0.6-0.4-1.1-1.1c0-0.3,0.2,0.2,0.4,0.1c-0.2-0.6-0.4-0.6-0.5-0.5c0.1-0.2,0-0.5,0-0.8
		c-0.3-0.1-0.3-0.4-0.3-0.6c-0.1,0,0,0.1-0.1,0.1c0-0.3-0.4-0.4-0.3-0.5c0.1,0.1,0-0.1,0.1-0.1c0.2,0.1,0.3,0.1,0.3-0.1
		c0,0.1,0.1,0.1,0.1,0.1c0,0.1,0.1,0.1,0.1,0.2c-0.1,0.2-0.4,0.2-0.4,0.3c0.1,0.1,0.5,0,0.4,0.4c0-0.1-0.1-0.2-0.1-0.2
		c0.3,0.8,0.5-0.4,0.5,0.3c-0.3-0.1,0.1,1.1,0.3,1.1c0-0.2,0.1-0.4,0.3,0c-0.1,0.1-0.3-0.2-0.2,0.1c0.2,0.1,0.3,0.5,0.5,0.7
		c0,0,0.1,0,0.1,0c-0.1-0.3-0.2-0.3-0.3-0.6c0.2,0.1,0.4,0.4,0.6,0.1c-0.3,0-0.3-0.1-0.3-0.4c-0.1,0.1-0.2-0.1-0.4,0.1
		c-0.1-0.3-0.3-0.3-0.4-0.6c0.2,0-0.1-0.3,0.1-0.3c0.1,0.6,0.1-0.1,0.3,0.1c0.2,0.5,0.5,0.7,0.9,1.3c0-0.5-0.5-0.6-0.2-0.7
		c-0.2-0.2-0.2,0.3-0.3-0.1c0.2-0.4-0.6-0.4-0.4-0.8c-0.3-0.2-0.2-0.2-0.3,0c0-0.2-0.3-0.3-0.2-0.5c0,0.1,0.3,0.2,0.2,0
		c-0.1-0.3-0.3-0.4-0.4-0.6c0.3,0.1,0.1-0.3,0.3-0.2c0.2,0.4,0.1,0.4,0.2,0.7c0.3,0.1,0-0.5,0.3,0c-0.2-0.6-0.5-0.5-0.5-1
		c-0.1,0-0.2-0.1-0.3-0.1c-0.1-0.4-0.2-0.8-0.6-1.2c0.1,0.4,0.2,0.7,0.5,0.8c-0.1,0.1-0.2-0.1-0.2,0.1c0.1,0.4,0.4,0.4,0.4,0.7
		c-0.3,0.1-0.3-0.5-0.6-0.6c0.2,0,0-0.2,0-0.4c-0.3-0.1-0.5-0.6-0.7-0.8c0.1-0.1,0.2,0.1,0.2-0.1c-0.2-0.2-0.2,0.1-0.5-0.2
		c0,0.1,0.1,0.2,0.1,0.3c-0.2,0.1-0.4-0.1-0.6-0.3c0.3,0,0.6-0.1,0.8-0.2c0.2,0.1,0,0.3,0.2,0.3c-0.1-0.3-0.2-0.5-0.2-0.8
		c0.1,0.1,0.1,0.1,0.2,0c-0.1-0.2-0.1-0.3,0-0.5c-0.4-0.4,0-0.6-0.4-0.5c0.1,0.2,0.3,0.6,0,0.3c0.1-0.1-0.3-0.4-0.4-0.3
		c0.1,0.2,0.2,0.3,0.2,0.5c0.1,0.1,0.2,0.2,0.3,0.3c-0.1,0.2-0.2-0.3-0.4-0.2c-0.1,0.2,0.3,0.2,0,0.3c-0.1,0-0.1-0.1-0.1-0.3
		c-0.1,0-0.1,0-0.2,0l0.2,0.5c-0.3,0.1-0.3-0.5-0.3-0.7c-0.3-0.2-0.6-0.7-0.9-1c0.3-0.4,0.6,0.5,0.9,0.5c0.1,0.2,0.1,0.4,0.2,0.6
		c0.1-0.1,0.2-0.1,0.3,0c-0.3-0.4-0.3-0.6-0.4-0.8c0.2,0.2,0.1-0.5-0.1-0.4c-0.2,0,0.3,0.6,0,0.3c-0.2-0.4-0.4-0.4-0.6-0.5
		c0.2,0.2,0,0.4-0.1,0.2c0.2-0.3-0.1,0-0.3-0.3c0.2-0.2,0.4,0,0.3-0.3c-0.3-0.2-0.4,0.2-0.6,0.2c0.2,0.2,0.3,0.1,0.5,0.4
		c-0.2,0-0.3,0-0.2,0.2c0.4,0.3,0.2,0.6,0.4,0.8c0.1,0,0.1-0.1,0.2-0.1c0.1,0.3,0.3,0.7,0.5,0.9c-0.3,0.1-0.5-0.5-0.7-0.5
		c-0.1,0.3,0.5,0.8,0.4,0.8c-0.4-0.3-1-1.1-1.2-1.3c-0.1,0-0.1,0-0.2,0c0.1,0.3,0.3,0.4,0.3,0.6c-0.1-0.1-0.3-0.4-0.3-0.2
		c0,0,0.1,0,0.1,0.1c0.1,0.3-0.2,0.3,0.2,0.7c0.1,0,0.2-0.3,0.3-0.1c0,0.2-0.3,0.1-0.3,0.3c0.2,0.1,0.7,1.1,0.6,0.5
		c0,0.1,0.1,0.1,0.1,0.2c0,0,0.1,0,0.1,0.1c-0.2,0-0.1,0.7-0.2,0.3c-0.2-0.4-0.5-0.8-0.8-0.8c0.1,0.1,0,0.2,0,0.3
		c0.3-0.2,0,0.4,0.3,0.4c-0.3,0-0.3,0.2-0.5,0.1c0-0.1,0.1-0.2,0.1-0.3c-0.1-0.1-0.2-0.3-0.4-0.1c0.3,0.4-0.1,0-0.2-0.1
		c0,0.2,0.2,0.2,0.3,0.4c-0.2,0.1-0.1,0.3-0.2,0.4c-0.2-0.3-0.4-0.3-0.5-0.1c-0.2-0.3-0.3-0.5-0.5-0.5c0.1,0.1,0.1,0.2,0.1,0.3
		c-0.2,0.1-0.3-0.2-0.3,0.1c-0.3-0.2-0.5-1-0.8-0.8c0.2,0.1,0.1,0.2,0.1,0.4c0.1,0.2,0.2,0.1,0.3,0.4c-0.4-0.1-0.3,0.4-0.3,0.7
		c-0.3,0-0.3-0.1-0.3,0.3c-0.2,0.1-0.3-0.2-0.5-0.2c0.1,0.2,0.2,0.2,0.1,0.4c-0.2-0.4-0.4-0.8-0.7-1.1c-0.3-0.3-0.5-0.7-0.9-1
		c0-0.2,0-0.6-0.3-0.7c0.1,0,0.1-0.1,0-0.2c0.1-0.1,0.2,0.1,0.3-0.1c0-0.3-0.2-0.3-0.3-0.6c0.2-0.2,0.3,0.3,0.4,0.2
		c0-0.2-0.2-0.5,0-0.5c0.2,0.5,0.5,0.6,0.7,0.5c-0.1-0.2,0-0.3-0.1-0.5c-0.1,0-0.2,0.1-0.2,0.2c-0.3-0.3,0.2-0.2,0-0.5
		c-0.2,0.1,0,0.4-0.2,0.2c-0.2-0.3,0.2-0.3,0.1-0.5c-0.1,0-0.1-0.1-0.2-0.1c0,0.2-0.1,0.3-0.3,0.4c-0.3-0.4,0.2,0,0.1-0.3
		c-0.1,0-0.2,0-0.3,0c0,0.2,0.2,0.6,0.4,0.7c-0.1,0-0.2,0.1-0.4,0c0-0.1,0.1-0.2,0.1-0.3c-0.1,0-0.2-0.4-0.3-0.4
		c0.1,0.3-0.1,0.2-0.3,0.1c0,0.2-0.1,0.4-0.2,0.6c0.2,0.1,0.1-0.1,0.3-0.2c0.2,0.2,0,0.3,0.2,0.4C77,83.8,77,84,76.8,84
		c-0.7-0.6-0.1-1-0.5-1.8c0.2-0.1,0.2-0.3,0.2-0.5c0,0.3,0.4,0.4,0.4,0.1c-0.1-0.3-0.2-0.1-0.3-0.3c0.1,0,0.1-0.1,0-0.2
		c0.2-0.1,0.4,0.2,0.6,0c-0.3-0.2,0-0.3-0.4-0.7c0.1-0.1,0.3,0.1,0.4,0c-0.2-0.1-0.4-0.4-0.6-0.4c0-0.3-0.7-0.9-1.1-1.3
		c0.4,0,0.7,0.5,1.1,0.8c0.3,0.4,0.6,0.7,0.9,0.4c0.1,0.1,0.2,0.2,0.3,0.2c0.1-0.1,0.1-0.2,0.1-0.3c-0.1-0.2-0.4,0-0.3-0.3
		c0.3,0.1,0.9,0.4,0.8,0.9c-0.1-0.1-0.2-0.3-0.4-0.2c0,0.2,0.1,0.4,0,0.5c-0.1-0.1-0.2-0.3-0.4-0.1c0.1,0.1,0.3,0.1,0.2,0.3
		c-0.1-0.1-0.5-0.4-0.4-0.2c0.5,0.3,0.5,1.1,0.9,1.2c0.1-0.2,0.2-0.2,0.2-0.4c-0.2,0.2-0.1-0.6-0.5-0.7c0.1-0.1,0.1-0.2,0.3-0.3
		c0.2,0.1,0.1,0.4,0.2,0.3l0.2-0.1c-0.5-0.3,0.2-0.4-0.3-0.7c0.2,0,0.2-0.1,0-0.3c0.2-0.2,0.4,0,0.6-0.2c0,0.5,0.7,0.5,0.6,0.9
		c0.3,0.1,0.1-0.3,0.3-0.4c0.1,0.1,0.2,0.2,0.3,0.2c-0.2-0.2,0.2-0.2,0.1-0.4c-0.2-0.4-0.3,0.3-0.4,0c0.1-0.1,0.2-0.1,0.1-0.3
		c-0.2,0.1-0.2,0.3-0.4,0.4c-0.1-0.5-0.5-0.6-0.6-0.8c0.1,0.1,0.2,0.1,0.3,0.1c-0.3-0.2-0.1-0.4-0.1-0.5c-0.1,0-0.1-0.1-0.2-0.1
		c-0.1,0.4-0.3,0.2-0.7,0c0.1,0.2,0.3,0.2,0.2,0.3c-0.2,0-0.2-0.2-0.4-0.3l0.3-0.2c0.2,0.1,0.1,0.4,0.4,0.2
		c-0.3-0.6-0.8-0.6-0.9-1.1c-0.1,0-0.2-0.1-0.4,0c0.2,0.2,0.5,0.2,0.7,0.6c0,0.1-0.2,0.4-0.2,0.1c0.2-0.2-0.4-0.5-0.5-0.5
		c0,0.1-0.1,0.4-0.3,0.2c0.1-0.1,0.1-0.1,0-0.2c-0.3,0.2-0.1-0.2-0.5-0.2c0.2-0.1-0.1-0.2-0.2-0.3c0.3-0.3,0.4,0.3,0.6,0.3
		c0-0.3,0-0.4,0.1-0.5c-0.1,0-0.1,0-0.2-0.1c0.3-0.1-0.1-0.3-0.1-0.4c0.1-0.2,0.3-0.1,0.4,0.1c-0.1,0.1-0.2,0.1-0.2,0.2
		c0.2,0.3,0.3,0.4,0.5,0.4c0-0.4,0.1-0.7,0.2-1c-0.4-0.4-1.2-0.9-1.8-1.2c0.5,0.5,1,1,1.5,1.1c0.1,0.2,0.1,0.4,0,0.5
		c-0.1-0.3-0.2-0.3-0.4-0.3c-0.4-0.7-0.7-0.7-1.1-1c0,0.3,0.4,0.5,0,0.4c0.2,0.1,0.3,0.5,0.1,0.3c0,0,0.1-0.1,0-0.1
		c-0.1-0.2-0.2,0.1-0.4-0.2c0.2-0.1,0-0.3-0.1-0.4c0.1-0.1,0.1-0.3,0.1-0.4c-0.2-0.2-0.4-0.2-0.6-0.2c-0.1,0.2,0.4,0.3,0.3,0.5
		c-0.2-0.3-0.3-0.1-0.4-0.4c0-0.1,0.1-0.2,0-0.3c-0.2-0.3-0.5-0.5-0.7-0.4c-0.2-0.3-0.1-0.5-0.1-0.7c-0.2-0.2-0.9-0.1-0.6,0.1
		c-0.2,0.2-0.4-0.3-0.5-0.2c0,0.2-0.2,0.3,0.1,0.5c-0.2,0,0,0.2-0.2,0.3c-0.2-0.2-0.5-0.4-0.6-0.7c0.1-0.1,0.2,0,0.3-0.1
		c-0.1-0.1-0.1-0.2-0.2-0.3c-0.4,0.1-0.6-0.2-0.9-0.5c-0.3,0.1,0.1,0.4-0.1,0.5c-0.2-0.3-0.2-0.5-0.1-0.8c0.1-0.1,0.2,0.2,0.3,0.1
		c-0.1-0.3,0.1-0.4,0-0.7c-0.1-0.1-0.1,0-0.2-0.1c0.2-0.3,0.1-0.6,0.5-0.4c-0.2-0.3-0.4-0.4-0.5-0.6c0.1-0.1,0.2,0,0.3-0.1
		c0.1,0.1,0.3,0.5,0.4,0.4c0-0.1,0.1-0.1,0.1-0.2c-0.1-0.1-0.2-0.1-0.3-0.3c0.3,0,0.3-0.1,0.7-0.3c0.2,0.2,0.6,0.6,0.9,0.7
		c-0.1-0.2-0.2-0.4-0.5-0.5c-0.1-0.4-0.3-0.6-0.5-1c0.1-0.2,0.3,0.2,0.4,0.2c-0.2-0.2-0.2-0.4-0.2-0.6c-0.1,0.3-0.6-0.3-0.5,0.2
		c-0.3,0-0.7-0.8-0.9-0.4c-0.2-0.4-0.6-0.5-0.2-0.6c-0.1-0.1-0.2-0.1-0.3-0.3c0.2-0.2,0.3-0.6,0-0.6c0.1-0.3,0.4-0.4,0.7-0.3
		c0-0.2-0.1-0.4,0.2-0.6c-0.2-0.4-0.6-0.8-1-0.8c0,0.2-0.1,0.1-0.3,0.1c0.2,0.2,0.2,0.5,0.5,0.4c0-0.1-0.2-0.3-0.1-0.3
		c0,0,0.1,0.1,0.1,0c0,0,0.1,0,0.1,0c-0.2,0.2,0.5,0.5,0.2,0.7c-0.4-0.5-0.3,0-0.5-0.1c-0.2-0.3-0.4-0.5-0.4-0.2
		c-0.3-0.4-0.3-0.8-0.6-1c-0.1,0,0,0.2-0.1,0.1c0.1-0.3-0.4-0.1-0.4-0.4c0.3-0.1,0.2-0.1,0.1-0.4c0.3,0.3,0.5,0.5,0.7,0.3
		c-0.3-0.5-0.5-0.5-0.9-0.9c0.1-0.2,0.4,0.3,0.4,0c-0.2-0.2-0.5-0.3-0.7-0.3c0.2-0.1,0.1-0.2-0.1-0.3c-0.1,0.1-0.1,0.4-0.1,0.1
		c0-0.2,0.1-0.3-0.1-0.5c-0.3,0.3-0.6-0.5-1-0.6c0-0.1,0.1-0.1,0.1-0.2c-0.1-0.1-0.3-0.4-0.4-0.3c0,0.2,0.4,0.4,0.2,0.5
		c-0.3-0.4-0.3,0-0.6-0.3c-0.1-0.3,0.2-0.3,0.2-0.5c-0.1,0.1-0.1-0.1-0.2-0.1c0.1,0.4-0.3,0.1-0.6,0c0.2,0.5,0.4,0.5,0.6,1
		c-0.4-0.2-0.7-0.4-0.9-0.5c0,0.2-0.3,0.5,0.1,0.6c-0.3,0.2-0.5-0.6-0.8-0.2c0-0.1,0-0.2-0.1-0.3c0.2-0.2,0.5,0.1,0.7,0
		c-0.2-0.2-0.3-0.6-0.6-0.5c0.5-0.1,0.3-0.4,0.7-0.4c-0.3-0.2,0.1-0.3-0.1-0.5c-0.1,0-0.1,0-0.2-0.1c0.1,0.3,0,0.2-0.3,0.3
		c0.3,0.2,0.3,0.4,0.1,0.5c-0.2-0.2-0.3-0.1-0.4-0.3c0.4-0.3-0.1-0.1-0.2-0.4c0.1,0,0.3,0.2,0.4,0.1c-0.1-0.2,0.3-0.3,0.1-0.5
		c-0.2,0-0.1,0.1-0.2,0.2c-0.3-0.1-0.3-0.5-0.6-0.4c0.3,0.3,0.1,0.3-0.1,0.3c0.1,0.2,0.2,0.2,0.3,0.2c-0.3,0-0.1,0.3,0,0.5
		c-0.1,0.2-0.4,0.2-0.3-0.1c0.1,0.1,0.2,0.2,0.2,0c-0.3-0.2-0.5-0.3-0.8-0.4c-0.3,0.1,0.1,0.4,0,0.5c-0.2-0.3-0.3-0.6-0.2-0.8
		c0.2,0.3,0.3,0.1,0.4,0.1c-0.5-0.3,0.1-0.2,0-0.4c-0.4-0.1-0.5-0.1-0.6,0.1c-0.2-0.1-0.1-0.2-0.1-0.3c-0.2,0.1-0.2,0.1-0.3,0.3
		c-0.3-0.3-0.2,0.2-0.6-0.2c0.1,0.2-0.2,0.2,0,0.4c0.5,0.3,0.5,0.7,1,0.8c0,0.1,0.3,0.6,0,0.5c0.1-0.1-0.1-0.4-0.3-0.5
		c-0.1,0.1,0.3,0.5,0,0.3c-0.1-0.2-0.4-0.9-0.7-0.8c0.4,0.2,0,0.4,0,0.5c-0.3-0.3-0.1,0.2-0.4,0c0,0.1-0.1,0.2,0,0.4
		c0.1,0,0.2,0.2,0.4,0.3c-0.1,0.1-0.2,0.2-0.4,0.1c0.1-0.3-0.3-0.3-0.5-0.5c0.2-0.3,0.3,0.2,0.4,0c-0.5-0.2-0.5-0.7-0.8-0.4
		c0.4,0.2,0.1,0.5,0.4,0.7c-0.1,0.1-0.2,0.2,0,0.3c0.9,0.3,0.3,0.7,1,1.3c0.2-0.3,0.6-0.5,0.5-1c-0.2,0.1-0.6-0.1-0.6-0.3
		c0.3-0.2,0.7,0.5,1,0.6c0.3-0.2-0.2-0.3-0.1-0.4c0.4,0.2,0.3-0.4,0.6-0.3c0.1,0.2-0.1,0.3,0,0.4c0.1-0.1,0.2,0.1,0.2,0.1
		c0.1-0.1,0-0.2,0.1-0.2c0.2,0.2,0.1,0.3,0.4,0.3c-0.2,0-0.2,0.5-0.2,0.2c-0.1-0.1,0.1-0.2,0-0.3c-0.2,0.1-0.2,0.1-0.5,0
		c0.2,0.2-0.2,0.3-0.1,0.5c0.2,0.1,0.4,0.3,0.4,0.5c0.1-0.1,0-0.2,0.1-0.2c0.2,0.2,0.2,0.1,0.4,0.3c-0.1,0.1-0.2,0.1-0.1,0.2
		c0.7,0.3,1.3,1.9,1.6,1.3c0.1,0.2,0.3,0.4,0.3,0.5c-0.4-0.5-0.4,0.5,0,0.5c0,0.2-0.3,0-0.4,0.3c-0.1-0.1-0.2-0.2-0.3-0.3
		c0.1-0.1,0.2-0.3,0.2-0.4c-0.4-0.3-0.6-0.5-1-0.8c0-0.6-0.7-0.9-0.9-0.8c0.4-0.1,0-0.5-0.3-0.5c0-0.2-0.1-0.5-0.5-0.6
		c0,0.2-0.1,0.5-0.4,0.5c0.2,0.2,0.2,0.3,0.3,0.5c0.2,0.1,0.3,0,0.5,0.2c-0.2,0.1,0.4,0.4,0.3,0.7c-0.5-0.2-0.8-0.6-1.1-1
		c-0.2-0.2-0.3-0.4-0.5-0.5c-0.2-0.1-0.4-0.2-0.6-0.3c0.3-0.2-0.4-0.7-0.6-0.6c0.2,0.2,0.2,0.4,0.2,0.5c-0.2-0.1-0.5-0.1-0.7-0.3
		c0-0.1,0.1-0.1,0.1-0.2c-0.6-0.6-1.6-1.5-2.1-2.1c-0.2,0.3-0.2,0.3-0.2,0.7c-0.1-0.1,0,0.1-0.2,0c0.1-0.1-0.2-0.2-0.3-0.4
		c-0.1-0.4,0.6-0.2,0.5-0.6c-0.2-0.1-0.3,0-0.5-0.1c0-0.2-0.2-0.8-0.3-0.8c0.2,0.2-0.1,0.4,0.2,0.6c-0.3,0-0.3,0.1-0.6,0.1
		c-0.4-0.6-1.3-0.4-1.5-0.9c1.1,0.4-0.1-0.4-0.3-0.9c0,0-0.1,0-0.2,0c-0.1,0.1,0.2,0.2,0.1,0.3c-0.2,0-0.5-0.2-0.5-0.4
		c0.1,0.1,0.2,0.1,0.3,0.1c-0.3-0.2,0-0.3-0.3-0.5c-0.1,0-0.2,0-0.3,0c0.3,0.2,0.3,0.4,0.3,0.7c-0.4-0.2-0.5-0.2-0.8-0.4
		c0.2,0.3,0.4,0.2,0.4,0.5c0.2-0.2,0.1,0,0.1,0.1c0.2,0,0.2-0.3,0.5,0c0,0.2-0.2,0-0.3,0.1c0.4,0.3,0.6,0.5,0.9,0.5
		c-0.2,0.2,0.4,0.4,0.3,0.6c-0.1-0.1-0.3-0.2-0.3-0.1c0.2,0.2,0.4,0.5,0.6,0.4c0.1,0.1,0.4,0.6,0.2,0.5c-0.2-0.5-1.4-1-1.7-1.2
		c0.3,0.1,0.1-0.2,0.4-0.2c-0.8-0.7-1.1-0.9-1.6-1c0-0.1,0.1-0.2-0.1-0.4c-0.1,0-0.2,0.1-0.4,0c0.2,0.2,0.6,0.4,0.5,0.5
		c-0.3-0.1-0.5-0.1-0.6,0c-0.2-0.4-0.4-0.4-0.5-0.8c0.3,0.2,0.3,0.3,0.6,0.5c0.1-0.1,0.2,0,0.3,0c-0.5-0.4-0.7-0.6-1.1-0.9l-0.1,0.1
		c-0.3-0.5-0.6-0.3-0.8-0.8c-0.1,0,0.2,0.3,0,0.2c-0.2-0.2,0-0.2,0.1-0.4c0.3,0.1,0.1,0.5,0.4,0.4c0-0.3-0.3-0.8-0.6-1.2
		c-0.3-0.4-0.8-0.7-1.2-0.7c0.2,0.2-0.2,0-0.4-0.1c0.1-0.3,0.6,0.2,0.7-0.1c-0.2-0.2-0.7-0.3-0.7-0.4c0.4,0.1,0.3-0.2,0.7-0.1
		c-0.1-0.1-0.2-0.1-0.2-0.2c0.1,0.2-0.1,0.1-0.1,0.2c-0.4-0.3-0.3-0.3-0.6-0.6c0.1,0,0.3,0.1,0.5,0c-0.4-0.3-0.6-0.5-0.9-0.6
		c0.1-0.3,0-0.5-0.3-0.8c0.2,0.3-0.1,0.2-0.3,0.1c0.1-0.1,0.1-0.2,0-0.3c-0.5,0-1-0.7-1.4-1c0.1,0,0.2,0.1,0.2,0.1
		c-0.2-0.1-0.3-0.2-0.4-0.3c0.1,0.3-0.2,0.1-0.3,0.1c0,0.4,0.7,0.5,0.8,0.8c-0.5-0.2-0.8-0.6-1.1-0.8c0,0.1-0.4,0.1-0.4-0.1
		c0.1,0,0.5,0.1,0.3-0.1c-0.6-0.4-0.3,0-0.9-0.2c0.3,0.4,1.1,0.7,1.4,1c-0.4-0.1-0.7-0.5-0.8-0.2c0.2,0,0.2,0.3,0.3,0.2
		c0-0.1-0.1-0.1-0.1-0.2c0.7,0.6,1.6,0.5,2.1,0.8c-0.4,0,0.5,0.3,0.7,0.6c-0.4-0.1-0.4,0.1-0.8-0.2c0.1,0.3-0.2,0.1-0.3,0.1
		c0.4,0.3,0.7,0.4,0.9,0.6c0.2,0,0-0.1,0.1-0.2c0.3,0,0.6,0.7,0.6,0.3l0.3,0.2c-0.2,0.4-0.7-0.3-0.9-0.2c0.4,0.4,0.7,0.4,0.9,0.8
		c-0.6-0.4-0.2,0.2-0.1,0.4C48.1,53.9,47.9,54.1,47.6,53.9z"/>
</g>
<path class="st16" d="M54.4,98.9c0.1-3.5,1.6-6.8,3.3-10c2.1-4.1,4.6-10.2,8.3-13.2c3.3-2.8,3.4,1.6,2.9,4.1
	c-0.8,3.9-3.4,7.8-5.6,11.1c-1.2,1.8-2.5,3.4-4,4.9C54.7,100.8,54.4,98.9,54.4,98.9z M96.2,143.1C96.2,143.1,96.2,143.1,96.2,143.1
	c0.1,0.1-0.1,0.1,0,0.2c0,0-0.1,0-0.1-0.1C96.1,143.1,96.2,143.2,96.2,143.1z M96.3,143.1C96.3,143,96.2,143.1,96.3,143.1
	c0,0,0-0.1,0.1-0.1C96.3,143,96.3,143,96.3,143.1z M96,143.9c0,0.1-0.2,0.1-0.1,0C95.9,143.9,95.9,143.9,96,143.9z M95.7,144.5
	c0.1-0.1,0-0.1,0-0.1c0,0,0.1,0,0.1,0C95.8,144.4,95.7,144.5,95.7,144.5z M95.3,145.2C95.3,145.3,95.3,145.3,95.3,145.2
	C95.3,145.2,95.3,145.2,95.3,145.2c0,0,0.1,0,0.1,0C95.5,145.3,95.3,145.3,95.3,145.2c0,0.1,0,0.2,0,0.2
	C95.3,145.3,95.4,145.3,95.3,145.2z M95.5,144.9c0-0.1,0-0.1,0-0.2c0.1,0,0,0,0.1,0.1C95.6,144.9,95.5,144.9,95.5,144.9z
	 M95.3,145.1C95.3,145.1,95.3,145.1,95.3,145.1C95.3,145,95.4,145,95.3,145.1C95.3,145,95.4,145.1,95.3,145.1z M94.1,148
	C94.2,148.1,94,148.3,94.1,148L94.1,148z M95.8,144.3c-0.1,0-0.1-0.1-0.1-0.1c0,0,0.1-0.1,0.1-0.1C95.8,144.2,95.7,144.2,95.8,144.3
	c0-0.1,0.1-0.2,0.2-0.2c-0.1,0.1,0,0.1,0,0.1C95.8,144.2,95.8,144.2,95.8,144.3z M95.7,144.4C95.7,144.4,95.6,144.4,95.7,144.4
	C95.6,144.5,95.6,144.5,95.7,144.4C95.6,144.5,95.6,144.5,95.7,144.4c-0.1,0-0.1,0.2-0.2,0.2c0-0.1,0-0.1,0.1-0.1c0,0,0,0,0,0
	c0,0,0,0,0,0c0,0,0,0,0-0.1C95.5,144.5,95.6,144.4,95.7,144.4z M95.5,144.1C95.6,144.1,95.5,144.2,95.5,144.1L95.5,144.1
	C95.5,144.2,95.5,144.2,95.5,144.1z M98.2,140.1C98.4,140.1,98.2,139.9,98.2,140.1L98.2,140.1z M94.3,147.2c0.1,0.1,0,0.7-0.2,0.5
	c0.1,0,0.1-0.1,0.1-0.1c-0.1-0.1,0-0.2,0-0.3C94.3,147.3,94.2,147.2,94.3,147.2z M98.8,139.4c0,0,0-0.1,0-0.1c0-0.1-0.1,0.1-0.1,0
	c0,0,0.1,0,0.1-0.1c0,0,0.1,0,0.1,0.1C98.9,139.3,98.8,139.4,98.8,139.4z M98.3,140.1c0,0,0-0.1,0-0.1C98.4,140,98.3,140,98.3,140.1
	z M97.6,141.5c0-0.1,0-0.1,0-0.2C97.7,141.4,97.6,141.5,97.6,141.5z M97.3,142c0,0.1-0.1,0.1-0.1,0C97.2,142.1,97.3,142,97.3,142z
	 M93.9,147.6C93.9,147.7,93.9,147.7,93.9,147.6C93.9,147.7,93.9,147.8,93.9,147.6C93.9,147.7,93.9,147.6,93.9,147.6z M99.1,139.2
	c0,0,0.1-0.1,0.1-0.1c0,0,0,0,0,0c0.1,0.1-0.1,0.2-0.1,0.3c-0.1,0,0-0.1-0.1-0.1c0.1-0.1,0.1-0.3,0.2-0.3
	C99.2,139,99.1,139.1,99.1,139.2z M93.8,148C93.6,148.3,93.7,148,93.8,148C93.8,147.9,93.7,148,93.8,148z M91.1,149.5
	c0-0.1,0.2-0.1,0.1-0.2c0.1,0,0.2,0.1,0.1,0.1c-0.1,0-0.3,0.1-0.4,0c0,0,0,0,0,0.1c-0.1,0,0,0-0.1-0.1
	C90.9,149.4,91,149.5,91.1,149.5z M93.3,148.5C93.4,148.4,93.3,148.3,93.3,148.5L93.3,148.5z M93.1,149C93,149,93,149,93.1,149
	C93,148.9,93.1,148.9,93.1,149z M92.7,149.2c-0.1,0-0.1-0.1,0-0.1C92.7,149.1,92.7,149.2,92.7,149.2z M100.8,135.2
	C100.8,135.2,100.7,135.2,100.8,135.2C100.7,135.2,100.7,135.2,100.8,135.2z M95.6,143.8C95.7,143.9,95.7,143.9,95.6,143.8
	C95.7,143.9,95.7,143.9,95.6,143.8l0.1,0.1C95.6,143.9,95.6,143.9,95.6,143.8z M98.8,139.6C98.8,139.6,98.8,139.6,98.8,139.6
	c-0.1,0-0.1,0.1-0.1,0c0.1,0,0,0.1,0,0.1c0-0.1-0.1,0-0.1,0C98.6,139.6,98.7,139.6,98.8,139.6C98.8,139.5,98.7,139.5,98.8,139.6z
	 M99.4,138.9l-0.1,0.1C99.2,139,99.3,138.9,99.4,138.9z M101.4,134.4c0,0-0.1,0-0.1,0C101.4,134.2,101.4,134.3,101.4,134.4z
	 M100.4,137.4c0.1,0,0.2,0.1,0.2,0c0,0,0,0,0,0c0,0,0-0.1,0.1-0.1c0,0,0,0.1,0,0.1c-0.1,0-0.1,0.3-0.2,0.1c0,0,0,0,0.1,0
	C100.4,137.5,100.3,137.4,100.4,137.4z M101.2,135.7C101.2,135.7,101.2,135.7,101.2,135.7C101.2,135.7,101.2,135.7,101.2,135.7
	c0.1-0.1,0-0.1,0-0.1C101.1,135.6,101.1,135.7,101.2,135.7c-0.1-0.1-0.1-0.2-0.1-0.1c0.1-0.1-0.1,0,0-0.1c0.1,0,0.1,0,0.1,0.1
	c0.1,0,0.1,0,0.2,0C101.2,135.6,101.3,135.8,101.2,135.7z M101,134.9C101,134.9,101,135,101,134.9
	C100.9,134.9,100.9,134.8,101,134.9C100.9,134.9,101.1,134.9,101,134.9z M101.3,134.8c0-0.1,0-0.2,0.1-0.2
	C101.3,134.7,101.4,134.8,101.3,134.8z M101.2,134.8C101.2,134.9,101.1,134.9,101.2,134.8C101.1,134.9,101.2,134.7,101.2,134.8
	C101.2,134.8,101.2,134.8,101.2,134.8z M101.3,135.2c0.1,0,0.1,0.1,0,0.1C101.3,135.3,101.2,135.3,101.3,135.2z M100.3,136.4
	c0.1,0,0,0.1,0.1,0.1c0.1-0.1,0.1-0.2,0.2-0.2c-0.1,0.1-0.1,0.2-0.2,0.3c0,0-0.1,0-0.1,0C100.2,136.6,100.3,136.5,100.3,136.4
	C100.3,136.5,100.3,136.5,100.3,136.4z M100.4,135.9c0.1-0.1,0.2-0.2,0.2-0.2c0,0.1-0.2,0.3,0,0.2C100.6,136,100.5,136,100.4,135.9
	C100.5,136,100.5,136,100.4,135.9C100.5,135.9,100.4,136,100.4,135.9z M100.8,137.1C100.8,137.1,100.8,137.1,100.8,137.1
	L100.8,137.1C100.7,137.1,100.7,137.1,100.8,137.1C100.8,137.1,100.8,137,100.8,137.1z M100.4,137.2c0,0.1,0,0.1,0.1,0.1
	C100.4,137.3,100.4,137.3,100.4,137.2C100.4,137.2,100.3,137.2,100.4,137.2z M101.5,134.4C101.5,134.3,101.5,134.5,101.5,134.4
	c0-0.1,0.1-0.2,0.1-0.3C101.7,134.2,101.5,134.3,101.5,134.4z M102,132.6c0-0.1,0.1-0.2,0.1-0.1C102.1,132.4,102.1,132.6,102,132.6z
	 M101.5,134.1c-0.1,0-0.2,0-0.2,0c0.1,0.1,0.1-0.2,0.2-0.1C101.6,134,101.5,134,101.5,134.1z M101.8,134
	C101.8,134,101.7,134,101.8,134C101.8,134,101.8,133.9,101.8,134C101.8,133.9,101.8,133.9,101.8,134C101.8,134,101.8,134,101.8,134z
	 M102.2,134.3C102.2,134.3,102.2,134.3,102.2,134.3c0-0.1-0.2-0.1-0.1-0.1C102.1,134.2,102.2,134.3,102.2,134.3
	c-0.1-0.1,0-0.1,0.1-0.1C102.2,134.2,102.2,134.2,102.2,134.3z M100.7,137.9c0-0.1,0-0.1,0-0.2C100.9,137.7,100.8,137.9,100.7,137.9
	z M101.7,133.2c0.1,0.1,0-0.1,0.1-0.2C101.8,133.1,101.8,133.2,101.7,133.2C101.7,133.2,101.7,133.2,101.7,133.2z M102.2,133.2
	c0.1,0,0.1-0.1,0.1-0.1c0,0,0,0.1,0,0.1C102.3,133.2,102.3,133.2,102.2,133.2z M101.2,136.5C101.2,136.5,101.2,136.5,101.2,136.5
	c-0.1,0,0-0.1,0-0.1C101.2,136.4,101.2,136.5,101.2,136.5z M101.3,135.2c0,0,0.1-0.1,0.1-0.1C101.4,135.1,101.5,135.2,101.3,135.2
	C101.4,135.1,101.3,135.3,101.3,135.2z M100.4,137.1c0,0,0-0.1,0-0.1C100.5,137,100.5,137.2,100.4,137.1z M101.4,136.4
	c0.1,0.1,0,0.1-0.1,0.1L101.4,136.4C101.4,136.4,101.4,136.4,101.4,136.4z M100.9,136.4L100.9,136.4l0-0.1
	C100.9,136.3,100.9,136.3,100.9,136.4z M101,136.3c-0.1-0.1,0-0.2-0.1-0.1c0,0,0.1-0.1,0.1-0.1c-0.1-0.1-0.1-0.1-0.1-0.2
	c0,0.1,0.1,0.1,0.1,0.1c0-0.1,0.1-0.1,0.1-0.1c0,0,0,0,0,0.1c0,0.1-0.1,0-0.1,0.1C101,136.2,100.9,136.2,101,136.3l0.1-0.1l0,0
	C101.1,136.2,101.1,136.2,101,136.3C101,136.2,101,136.2,101,136.3C101,136.3,101,136.3,101,136.3C101,136.3,101,136.3,101,136.3z
	 M101.2,135.1c-0.1,0-0.2,0.2-0.3,0.2c0,0,0-0.1,0-0.1C101,135.3,101.1,135,101.2,135.1C101.1,135.1,101.2,135.1,101.2,135.1z
	 M100.7,135.9C100.7,135.9,100.7,135.9,100.7,135.9c0,0,0.1-0.1,0.1-0.1C100.8,135.9,100.8,135.9,100.7,135.9L100.7,135.9z
	 M100.6,136.3c0-0.1,0.1,0,0.1,0c0,0,0,0.1,0,0.1C100.7,136.3,100.7,136.3,100.6,136.3z M100.4,136.8c0.1,0,0,0.1,0,0.1
	c0-0.1-0.1,0-0.1,0C100.3,136.9,100.4,136.9,100.4,136.8z M100.2,137.2C100.2,137.2,100.2,137.2,100.2,137.2
	C100.2,137.2,100.3,137.1,100.2,137.2C100.3,137.1,100.3,137.2,100.2,137.2C100.2,137.2,100.2,137.2,100.2,137.2z M100.7,136.1
	C100.7,136.1,100.7,136.1,100.7,136.1c0.1,0,0.1,0,0.1,0C100.7,136.2,100.8,136.2,100.7,136.1C100.7,136.1,100.7,136.2,100.7,136.1z
	 M100.4,136.2C100.3,136.2,100.5,136,100.4,136.2C100.5,136.1,100.4,136.2,100.4,136.2z M102.1,133.4c-0.1-0.1,0-0.1,0-0.2
	C102.3,133.3,102.1,133.4,102.1,133.4z M101.4,135.4c0,0-0.1-0.1,0-0.1C101.4,135.4,101.4,135.4,101.4,135.4z M101.2,135.9
	c-0.1,0-0.1-0.1-0.1-0.1c0,0,0,0.1-0.1,0.1c0.1,0-0.1-0.1,0-0.1c0,0.1,0,0,0.1,0L101.2,135.9c0-0.1,0.1-0.1,0.1-0.1c0,0,0,0.1,0,0.1
	C101.3,135.9,101.2,135.9,101.2,135.9z M101.5,135.5C101.5,135.4,101.5,135.5,101.5,135.5c0,0-0.1-0.1,0-0.1L101.5,135.5z
	 M101,135.8C101,135.8,100.9,135.8,101,135.8C100.9,135.7,101.1,135.7,101,135.8z M101.4,135.6c0.1,0,0,0.2,0,0.2
	C101.4,135.7,101.4,135.6,101.4,135.6C101.3,135.6,101.3,135.6,101.4,135.6C101.3,135.6,101.4,135.6,101.4,135.6z M100.7,136
	L100.7,136C100.5,136,100.7,136,100.7,136z M100.9,135.9C100.9,135.9,101,135.9,100.9,135.9c0.1-0.1,0.1-0.1,0.1-0.1
	C101,135.9,101,135.9,100.9,135.9C101,135.9,100.9,136,100.9,135.9z M100.9,135.6c0,0.1-0.1,0-0.1,0.1
	C100.7,135.7,100.8,135.6,100.9,135.6z M101,135.5c0,0.1-0.1,0-0.1-0.1C100.9,135.4,100.9,135.4,101,135.5
	C100.9,135.5,101,135.4,101,135.5z M101.6,135.9c0,0,0.1,0.2,0,0.2C101.6,136,101.5,135.8,101.6,135.9z M101.2,135.2
	C101.2,135.2,101.2,135.3,101.2,135.2C101.2,135.2,101.2,135.2,101.2,135.2c0,0-0.1-0.1,0-0.1C101.3,135.1,101.2,135.2,101.2,135.2z
	 M101.2,137.9c-0.1-0.1-0.1-0.1-0.2-0.1c0-0.1,0.1-0.1,0.1-0.1C101.2,137.7,101.2,137.8,101.2,137.9z M101,137.6c0,0-0.1-0.1,0-0.1
	C100.9,137.5,101,137.6,101,137.6C101,137.6,101,137.7,101,137.6C100.9,137.7,100.9,137.6,101,137.6z M100.9,137.9
	C101,138,100.8,138.1,100.9,137.9C100.9,138,100.8,138,100.9,137.9z M101.6,136.3C101.5,136.2,101.3,136.2,101.6,136.3L101.6,136.3z
	 M100.9,136.5C101,136.5,100.9,136.5,100.9,136.5c0.1,0,0.1-0.1,0.1,0C101,136.5,101,136.5,100.9,136.5z M100.6,138.6
	c-0.1,0-0.1,0.1-0.1,0.1c0,0,0-0.1,0-0.1c-0.1,0-0.1,0-0.2,0.1c-0.1,0-0.1-0.1,0-0.1c0,0,0.1,0.1,0.1,0c0-0.1,0,0,0.1-0.1
	c0,0,0,0,0-0.1c0,0-0.1,0.1-0.1,0c0,0,0-0.1,0-0.1C100.3,138.5,100.5,138.5,100.6,138.6z M101.7,135.7
	C101.7,135.6,101.7,135.6,101.7,135.7C101.7,135.6,101.7,135.7,101.7,135.7C101.7,135.6,101.7,135.6,101.7,135.7
	C101.7,135.6,101.8,135.6,101.7,135.7z M99.4,139.1c0,0.1-0.1,0-0.1,0C99.3,139,99.4,139.1,99.4,139.1z M99.6,139c0,0,0-0.1,0.1-0.1
	c0.1,0,0.2-0.1,0.3,0.1c0,0,0,0.1-0.1,0.1c-0.1,0,0.1-0.1,0-0.1C99.7,138.9,99.7,139,99.6,139c0.2,0.1,0,0.2,0.2,0.2
	c0,0.1-0.1,0.1-0.2,0.1c0,0,0.1-0.1,0-0.1c0,0-0.1,0-0.1,0C99.7,139.2,99.4,139,99.6,139C99.5,139,99.5,139,99.6,139z M91.1,149.1
	C91.1,149.1,91.2,149.1,91.1,149.1c0.1-0.1,0.1-0.1,0.2-0.1C91.2,149.1,91.2,149.1,91.1,149.1z M91.8,148.4c0,0,0.1-0.1,0.1-0.1
	c0,0,0,0.1,0,0.1C91.9,148.3,91.9,148.3,91.8,148.4C91.8,148.4,91.8,148.4,91.8,148.4z M91.7,148.7
	C91.8,148.7,91.7,148.8,91.7,148.7c0.1,0,0.1-0.1,0.1,0c0,0-0.1,0.1,0,0.1c0,0,0.1,0,0.1,0c0-0.2,0.3-0.3,0.3-0.4
	c-0.1,0.2-0.3,0.3-0.3,0.4c0,0,0,0,0.1,0c0,0.1-0.1,0-0.1,0.1c0,0.2,0.2-0.1,0.3,0.1c0,0,0.1-0.1,0.1-0.1c-0.1,0.1-0.2,0.1-0.2,0.2
	c0,0,0,0,0-0.1c0,0,0,0,0,0.1c-0.1,0-0.3,0-0.3,0c0.1,0,0,0,0-0.1c0.1,0,0.1,0,0.1,0c0,0-0.1,0-0.1,0c0,0,0.2,0,0.1,0
	c0,0-0.1,0-0.1,0C91.7,148.8,91.7,148.7,91.7,148.7z M92.5,148.3C92.6,148.2,92.6,148.3,92.5,148.3
	C92.6,148.2,92.6,148.2,92.5,148.3c0.1-0.1,0.1-0.2,0.2-0.2c0.1,0.1,0.1-0.1,0.1,0C92.8,148.2,92.6,148.4,92.5,148.3
	c0,0.1,0,0.1,0,0.1C92.5,148.4,92.5,148.3,92.5,148.3z M92.9,147.8C92.9,147.8,92.9,147.8,92.9,147.8
	C92.8,147.8,92.9,147.9,92.9,147.8c-0.1,0-0.1,0-0.1,0c0,0,0-0.1,0.1-0.1C92.9,147.7,92.9,147.8,92.9,147.8
	C92.9,147.8,92.9,147.8,92.9,147.8z M93,147.8c0,0-0.1-0.1,0-0.1C92.9,147.7,93,147.7,93,147.8z M93.1,147.7c0,0-0.1,0-0.1,0
	C93,147.6,93,147.5,93.1,147.7C93,147.6,93.1,147.6,93.1,147.7C93.1,147.6,93.1,147.6,93.1,147.7z M93,147.4c0.1,0,0.1-0.1,0.2,0
	c0,0.1,0,0.1-0.1,0.2c-0.1,0-0.1-0.2-0.1-0.3c0.1,0,0-0.1,0.1-0.1c0,0.1,0,0.1,0,0.1c0-0.1,0.1-0.2,0.1-0.3c0.1,0,0,0.2,0,0.2
	c0.1,0,0.2,0.1,0.1,0.1C93.2,147.3,93.1,147.4,93,147.4z M93.3,147.1c0.1-0.1,0-0.2,0-0.2c0,0,0,0-0.1,0
	C93.2,146.9,93.2,147,93.3,147.1c-0.1-0.2,0.1-0.3,0.1-0.3c-0.1,0.1,0,0.2,0,0.2C93.3,147,93.3,147.1,93.3,147.1z M92.8,148.7
	c0.1,0,0.1,0,0.1,0c0,0.1-0.1,0.1-0.1,0.2c0-0.1,0,0-0.1,0C92.7,148.8,92.8,148.8,92.8,148.7z M93.4,146.8
	C93.4,146.7,93.4,146.7,93.4,146.8c0-0.1,0-0.2,0.1-0.2l0.1,0C93.5,146.7,93.4,146.8,93.4,146.8z M93.5,146.6
	C93.5,146.5,93.5,146.5,93.5,146.6C93.5,146.5,93.5,146.5,93.5,146.6c0-0.1,0.1-0.1,0.1-0.1c0,0,0,0,0-0.1c0,0,0,0,0,0
	c0.1,0,0.1,0,0.1-0.1c0,0,0,0,0.1-0.1C93.7,146.3,93.7,146.5,93.5,146.6z M93.8,146.1c0.1,0,0.1-0.2,0.1-0.2c-0.1,0.2,0.1,0,0.1,0
	c0,0.1-0.2,0.1-0.1,0.2C93.9,146,93.9,146.1,93.8,146.1C93.9,146.1,93.9,146.1,93.8,146.1z M94.1,145.8c0,0,0.1-0.1,0.1-0.1
	c0,0,0,0,0,0c0,0,0,0,0.1,0c0,0,0,0.1,0,0.1c0-0.1,0.1-0.1,0.1-0.1c0,0,0.1,0,0.1,0.1c-0.1-0.1-0.1,0.1-0.1,0.1c0,0,0-0.1,0-0.1
	c-0.1,0.1-0.1,0.2-0.2,0.2C94.1,145.9,94.2,145.8,94.1,145.8C94.2,145.8,94.2,145.8,94.1,145.8z M94.5,145.3c0-0.1,0-0.1,0-0.1
	c0,0,0,0,0,0c0,0,0,0,0.1,0c0,0,0,0,0,0c0.1,0,0,0.1,0,0.1C94.6,145.2,94.5,145.2,94.5,145.3c0.1,0,0.2-0.1,0.2-0.1
	c0.1,0-0.1,0.1,0.1,0.1c0,0-0.1,0.1-0.1,0.1C94.8,145.2,94.6,145.3,94.5,145.3z M94.7,145.4c0,0,0.1-0.1,0.1-0.1
	C94.8,145.4,94.8,145.5,94.7,145.4C94.8,145.4,94.7,145.4,94.7,145.4z M95,144.7c0-0.1,0.1-0.1,0.1-0.1
	C95.1,144.6,95.1,144.6,95,144.7C95.1,144.7,95,144.7,95,144.7z M95.3,144.2C95.3,144.3,95.3,144.2,95.3,144.2
	C95.4,144.3,95.4,144.3,95.3,144.2c0,0.1,0,0.1,0,0.2C95.3,144.4,95.2,144.3,95.3,144.2z M95.2,144.3
	C95.2,144.3,95.2,144.3,95.2,144.3C95.2,144.3,95.2,144.3,95.2,144.3z M95.7,143.7c0-0.1,0.1-0.1,0.1-0.2
	C95.8,143.6,95.7,143.6,95.7,143.7z M99.1,138.4C99.1,138.4,99.1,138.4,99.1,138.4c0.1,0,0.1,0,0.1,0c0-0.1,0.2-0.1,0.1-0.2
	c0,0,0.1,0,0.1,0.1c0,0.1-0.2,0.1-0.2,0.3c-0.1,0,0-0.1,0-0.1c-0.1,0-0.1,0-0.1,0.1C99.2,138.5,99.2,138.4,99.1,138.4
	C99.2,138.4,99.1,138.4,99.1,138.4z M99.5,138.1c0.1,0,0-0.1,0-0.1c0,0.1,0.1,0.1,0.1,0.2C99.6,138.1,99.5,138.1,99.5,138.1z
	 M99.5,138.5c0.1,0.1,0.1,0,0.2,0c0,0.1-0.1,0-0.1,0.1C99.5,138.5,99.4,138.5,99.5,138.5z M99.9,137.5c-0.1,0-0.2,0.1-0.2,0.2
	c0-0.1,0-0.1,0.1-0.2C99.8,137.5,99.8,137.4,99.9,137.5z M99.9,137.2c0,0,0,0.2-0.1,0.1c0,0,0-0.1,0-0.1c0,0,0,0,0,0
	C99.8,137.2,99.9,137.1,99.9,137.2C99.8,137.2,99.9,137.2,99.9,137.2z M99.9,137C99.9,137,99.9,137,99.9,137
	C99.9,137,99.9,137,99.9,137C99.9,137,99.9,137,99.9,137z M92.3,147.9C92.3,147.9,92.3,147.8,92.3,147.9
	C92.4,147.9,92.3,148,92.3,147.9C92.2,147.9,92.3,147.9,92.3,147.9z M92,148.6c0,0.1-0.1,0-0.1,0.1c-0.1,0,0-0.1-0.1-0.1
	C91.9,148.5,92,148.6,92,148.6C92,148.6,92,148.6,92,148.6z M92.3,148.1c-0.1,0.2-0.2,0.2-0.3,0.4c-0.1,0,0-0.1,0-0.1
	C92.2,148.3,92.2,148.2,92.3,148.1C92.3,148.1,92.3,148,92.3,148.1C92.3,148.1,92.3,148.1,92.3,148.1z M99.2,138.3
	C99.2,138.3,99.2,138.3,99.2,138.3C99.2,138.3,99.2,138.3,99.2,138.3z M94.3,145.6C94.3,145.6,94.2,145.6,94.3,145.6
	C94.3,145.5,94.4,145.5,94.3,145.6C94.4,145.5,94.4,145.6,94.3,145.6C94.3,145.6,94.3,145.6,94.3,145.6z M92.7,147.9
	c0.1,0,0.1,0.1,0.1,0c0,0.1-0.1,0.2-0.2,0.1C92.7,148,92.7,147.9,92.7,147.9z M92.8,147.6c0.1,0.1,0,0.1,0,0.2c-0.1-0.1,0,0.1-0.1,0
	C92.7,147.7,92.8,147.6,92.8,147.6z M93.6,147.2C93.6,147.2,93.6,147.2,93.6,147.2c0.1-0.1,0.1-0.1,0.1,0c0.1-0.1,0.1-0.2,0.2-0.2
	c0,0.1,0.1,0.1,0,0.1c0,0,0-0.1-0.1,0c0,0.1,0,0.2-0.1,0.3c0,0,0,0-0.1,0c-0.1,0.2-0.2,0.6-0.4,0.7c0.1-0.3,0.3-0.5,0.3-0.7
	c0,0,0,0,0,0c0-0.1,0.1,0,0.1-0.1C93.6,147.3,93.7,147.2,93.6,147.2C93.6,147.3,93.5,147.4,93.6,147.2z M94.8,145.6
	C94.8,145.6,94.8,145.6,94.8,145.6c0.1,0,0.1,0.1,0,0.1C94.9,145.6,94.8,145.6,94.8,145.6z M94.9,145.6c0-0.1,0.1-0.2,0-0.2
	c0-0.1,0.1-0.1,0.1-0.1c-0.1,0.1,0,0.1,0,0.1C95,145.4,95,145.6,94.9,145.6z M100.1,137.5c0.1,0,0,0.1,0,0.1
	C100,137.5,100.1,137.5,100.1,137.5z M100,138c0.1,0.1,0.1,0,0.2,0C100.2,138.1,99.9,138.1,100,138z M100,138.2L100,138.2
	C100.1,138.2,100.1,138.3,100,138.2C100.1,138.2,100.1,138.2,100,138.2C100,138.2,100,138.2,100,138.2z M100.2,137.7
	C100.3,137.8,100.3,137.7,100.2,137.7c0.1,0,0.2,0,0.2,0c0,0-0.1,0-0.1,0c0,0,0,0.1,0,0.1c0,0,0.1,0,0.1,0c0-0.1,0,0-0.1-0.1
	c0.1-0.1,0.1,0,0.1,0.1c-0.1,0.1-0.2,0.1-0.3,0.2c0,0.1,0.1,0,0.1,0c0,0.1-0.1,0.2-0.3,0.3c0-0.1-0.1-0.1,0-0.2c0,0,0.1,0.1,0.1,0
	c0,0-0.1-0.1-0.1-0.1C100.4,138.1,100.2,137.8,100.2,137.7z M89.1,150.1c0.5,0.3,1.2-0.1,1.6-0.6c0.1-0.1,0.2-0.2,0.2-0.2
	c0,0,0,0,0,0.1c0.1,0,0.1-0.1,0-0.1c0,0,0.1-0.1,0.1-0.1c0.1,0,0.1,0,0.1,0.1c0.1,0,0.1,0,0.2,0c0-0.1,0-0.1-0.1-0.2
	c0,0,0,0.1-0.1,0.1c0,0,0,0,0,0c0.1,0,0.1-0.1,0.2,0c0,0,0-0.1,0-0.1c0.1-0.1,0.2,0.1,0.1,0.2c0.2-0.1,0.1,0.1,0.3,0.2
	c0,0,0.1-0.1,0.1-0.2c0.1,0,0.2,0,0.3,0c0.1-0.3,0.5-0.3,0.7-0.3c0.1-0.1,0.2-0.3,0.2-0.4c0.1,0,0.1-0.2,0.2-0.3
	c0.1-0.1,0.2-0.1,0.3-0.2c0.1-0.1,0.2-0.3,0.3-0.5c0.1-0.2,0.1-0.4,0.3-0.5c0.1,0.2,0.3-0.2,0.3-0.4c0,0-0.1,0.1-0.2,0.2
	c0,0,0-0.1,0-0.1c0,0-0.1,0-0.1,0.1c0-0.1,0-0.2,0.1-0.3c0,0,0.1,0,0.1-0.1c0,0,0,0-0.1-0.1c0,0,0,0,0,0.1c-0.1,0,0-0.2,0-0.1
	c0,0,0-0.1,0-0.1c0,0,0.1,0,0.1,0c0,0,0,0.1,0,0.1c0,0,0.1,0,0.1,0c0-0.1,0-0.1,0-0.2c0,0-0.2,0.1-0.1,0c-0.1,0.1-0.1,0.1-0.2,0.2
	c0-0.1,0.1-0.2,0-0.2l0,0.1c0.1,0-0.1,0.1-0.1,0.1c0,0,0.1,0,0.1,0c-0.1,0-0.1,0.1-0.1,0.2c0,0,0-0.1-0.1-0.1c0.1-0.1,0-0.1,0-0.2
	c-0.1,0-0.1,0.2-0.1,0.1c0,0.1,0.1,0.3-0.1,0.5c0,0,0,0,0.1,0c0,0,0,0,0,0.1c-0.1,0,0-0.1,0-0.2c-0.1,0-0.1,0.2-0.2,0.3
	c0-0.1-0.1-0.1,0-0.2c0,0,0,0.1,0,0.1c0.1,0,0-0.1,0-0.1c0.1-0.1,0.1-0.1,0.2-0.2c-0.1,0-0.1,0.2-0.2,0.2c0,0,0-0.1,0-0.1
	c0,0,0.1,0,0.1-0.1c0,0,0,0,0,0c0.1-0.1,0.2-0.2,0.2-0.3c0,0,0.1,0,0.1,0c0-0.1,0-0.1-0.1-0.1c0.1-0.1,0.1-0.1,0.2,0
	c0-0.1,0-0.1,0.1-0.2c0,0,0,0.1,0,0.1c0.1-0.1,0.1,0,0.1-0.1c0,0,0-0.1-0.1,0c0,0,0,0,0,0c0,0.1,0.1,0.1,0.1,0.2c0,0,0-0.1,0.1-0.2
	c0.1,0,0,0.1,0.1,0.2c0,0,0-0.1,0-0.1c-0.1-0.2,0.3-0.4,0.4-0.4c0,0.1-0.1,0-0.1,0.1c0.1,0,0.1,0.1,0.1,0c0-0.1,0,0-0.1,0
	c0.1-0.1,0.1-0.1,0.2-0.2l-0.1,0c0.1-0.1,0.1-0.1,0.2-0.3c0,0,0,0.1,0,0.1c0,0.1-0.1,0.1-0.1,0.1c0.1,0,0.1-0.1,0.2-0.1
	c-0.1,0-0.1-0.1-0.1-0.2c-0.1,0-0.1,0.1-0.1,0.1c0,0,0-0.1,0-0.1c0-0.1,0.1,0,0.1,0c0-0.1,0-0.2,0.2-0.4c0,0.1,0.1,0,0.1,0.1
	c0.1-0.1,0.1-0.4,0.2-0.4c0,0-0.1,0-0.1,0c0,0.1,0,0.1-0.1,0.2c0,0,0-0.1,0-0.1c-0.1,0-0.1,0.1-0.1,0.1c0,0.1,0,0.1-0.1,0.2
	c0,0,0-0.1,0-0.1c-0.1,0.1,0,0.1,0,0.1c0,0-0.1,0,0,0c-0.1,0,0,0-0.1,0.1c0-0.1,0-0.1,0.1-0.2c-0.1,0-0.1,0-0.2,0.1l0-0.1
	c0-0.1,0.1,0,0.1-0.1c0,0,0,0.1,0,0.1c0.1,0,0.1-0.1,0.1-0.1c0,0-0.1,0-0.1,0c0,0,0,0,0,0c0.1,0,0.3-0.3,0.2-0.1
	c0.1-0.1,0-0.3,0.1-0.4c0-0.1-0.1-0.1-0.1-0.2c0,0,0,0,0,0c0,0,0,0,0-0.1c0,0,0,0,0.1,0c0,0,0-0.1,0-0.1c0,0,0,0,0-0.1
	c0.1,0,0.1,0.2,0.2,0.1c0,0,0-0.1,0.1-0.1c0,0,0,0,0,0c-0.1,0-0.1,0-0.2-0.1c0.1-0.1,0.3-0.4,0.4-0.5c0,0,0,0,0.1,0
	c0-0.1,0-0.1,0-0.2c0,0,0,0,0,0c0.1-0.2,0.2-0.3,0.3-0.5c0,0,0,0.1,0,0.1c0,0,0.1,0,0.1,0c0,0-0.1,0,0-0.1c0,0,0,0,0,0
	c0.3-0.4,0.6-0.9,0.9-1.3c0.1,0,0.1,0,0.2,0.1c-0.1-0.1,0.2-0.1,0.1-0.3c0,0.1-0.1,0.1-0.2,0.2c0,0,0,0,0,0c0.2-0.3,0.3-0.5,0.5-0.8
	c0,0,0.1,0,0.1-0.1c0,0-0.1,0-0.1,0c0,0,0-0.1,0.1-0.1c0.1,0,0.1-0.1,0.1-0.1c0,0.1,0,0.1,0.1,0.2c0,0-0.1,0,0,0c0,0,0,0-0.1,0.1
	c0.1,0,0.1,0.1,0.1,0.2c0.1,0,0.1-0.2,0.2-0.2c0,0,0-0.2,0.1-0.2c0.1-0.1-0.1-0.1,0-0.1c0,0-0.1,0.1,0,0.1c0,0,0,0-0.1,0
	c0,0,0,0,0-0.1c-0.1,0-0.1,0-0.2,0.1c0-0.1,0-0.1-0.1,0c0.1-0.2,0.2-0.4,0.3-0.6c0,0,0,0,0,0c0,0,0,0,0,0c0-0.1,0.1-0.2,0.1-0.2
	c0,0,0,0,0,0c0,0,0-0.1,0-0.1c0.1-0.2,0.3-0.4,0.4-0.7c0,0,0,0,0,0c0,0,0,0,0,0c0-0.1,0.1-0.2,0.1-0.3c0,0,0,0,0,0.1
	c0.2,0.1-0.2,0.4-0.1,0.6c0.1-0.1,0.1-0.3,0.2-0.3c0-0.1,0-0.1,0-0.2c0,0,0,0.1,0.1,0.1c0.1-0.1,0.1,0,0.1-0.1
	c0.1,0.1,0,0.1,0.1,0.2c0,0,0,0,0.1,0c0,0,0-0.1,0-0.1c0.1,0,0.1,0.1,0,0.1c0.1,0,0.1,0,0.2,0c0.2-0.1,0.3,0,0.4-0.2
	c0,0-0.1,0-0.1-0.1c0,0.1,0,0-0.1,0.1c0,0.1,0.1,0,0.1,0.1c-0.1,0-0.1,0-0.2,0c0-0.1,0-0.1-0.1-0.1c0,0,0.1-0.1,0-0.1
	c0,0,0.1,0,0.1,0c0,0,0-0.1,0-0.1c0,0-0.1,0.1-0.1,0.1c0,0,0-0.1,0-0.1c0-0.1,0,0.1,0.1,0c0-0.1-0.1-0.1-0.2-0.1c0,0,0,0,0-0.1
	c0.1,0,0.1,0.1,0.2,0c0-0.1-0.1,0-0.1-0.1c0-0.1,0.1,0.1,0.1,0c0,0-0.1,0-0.1-0.1c0,0,0.1,0,0.1-0.1c0.1,0.1,0.1,0.1,0,0.2
	c0,0,0.1,0,0.1,0c0,0-0.1,0.1,0,0.1c0.1,0,0-0.1,0.1-0.1c0.1,0,0,0.1,0.1,0.1c0,0,0,0,0.1,0c0-0.1,0.1-0.1,0.2-0.1
	c0.1-0.2,0.2-0.4,0.3-0.5c-0.1,0,0,0-0.1,0.1c0-0.1,0-0.1,0-0.2c-0.1,0-0.1,0-0.1-0.1c-0.1,0-0.2,0.1-0.2,0c-0.1,0,0,0.1,0,0.1
	c0,0-0.1,0-0.1,0.1c-0.1-0.1,0.1-0.2,0.1-0.3c-0.1,0,0-0.1-0.1-0.1c0,0,0,0-0.1,0c0-0.1,0-0.1,0.1-0.2c-0.1,0-0.1-0.1,0-0.1
	c0,0-0.1,0-0.1,0c0,0,0,0.1-0.1,0.1c0,0,0.1-0.2,0-0.1c-0.1,0,0-0.1,0-0.1c0,0,0.1,0,0.1,0c0,0,0-0.1-0.1-0.1c0.1-0.2,0.3-0.6,0.5-1
	c0,0,0,0,0,0c0,0,0,0,0,0c0-0.1,0-0.1,0.1-0.2c0,0-0.1,0.1,0,0.1c0.1-0.2,0-0.2,0.1-0.4c0,0,0,0.1,0.1,0.1c0-0.1,0-0.2,0.1-0.2
	c0-0.1,0-0.1,0.1-0.2c0,0-0.1,0-0.1,0c0,0,0,0-0.1,0.1c0.1-0.2,0.2-0.4,0.3-0.7c0,0,0,0,0,0c0,0,0,0,0,0c0-0.1,0-0.1,0.1-0.2
	c0,0,0,0,0-0.1c0,0,0-0.1,0-0.1c0,0,0,0,0,0c0,0,0-0.1,0-0.1c1.4-3.4,2.8-8.1-1.2-5.4c-0.8,0.6-1.4,1.4-1.9,2.3
	c-3.5,5.5-6.6,11.2-9.1,17.2C88.7,148.9,88.5,149.8,89.1,150.1z M50.1,47c0,0.5-0.2,1.1-0.5,1.5c-2.9,5.3-6.4,10.6-11.4,14
	c-0.9-2.2,0-4.7,1.1-6.8C40.1,54.2,49.9,43.2,50.1,47z M44.9,80.2c-0.5,0.4-1.1,0.8-1.6,0.5c-1.6-1,9.6-22.4,14-20.6
	C63.6,62.8,46.8,78.5,44.9,80.2z M73.2,109.8c-2,2.7-4.4,5.5-7.7,5.9c0-6,3.6-11.4,7.1-16.3c1.2-1.7,7.9-11,8.3-4.8
	C81.3,99.7,76,106,73.2,109.8z M90.6,110.5c-3.5-2.2-9.9,9.8-11.1,12.1c-1,1.8-1.8,3.7-2,5.7c-0.1,0.9,0.2,2,1,2.2
	c0.5,0.1,1-0.1,1.4-0.3c2.3-1.3,4-3.5,5.6-5.7C86.9,122.5,94.8,113.2,90.6,110.5z"/>
<defs>
	
		<filter id="Adobe_OpacityMaskFilter_00000021819132913403898380000015585606319973673141_" filterUnits="userSpaceOnUse" x="129.8" y="93.1" width="55.3" height="53.3">
		<feColorMatrix  type="matrix" values="1 0 0 0 0  0 1 0 0 0  0 0 1 0 0  0 0 0 1 0"/>
	</filter>
</defs>
<mask maskUnits="userSpaceOnUse" x="129.8" y="93.1" width="55.3" height="53.3" id="mask4_54_9694_00000178921240177156306190000004110562653415488162_">
	<path style="fill:#FFFFFF;filter:url(#Adobe_OpacityMaskFilter_00000021819132913403898380000015585606319973673141_);" d="
		M129.7,92.8h55.4v53.7h-55.4V92.8z"/>
</mask>
<g class="st18">
	<path class="st19" d="M168.5,93.1c-5.5,0-5.5,1.8-11.1,1.8c-5.5,0-5.5-1.8-11.1-1.8c-7.4,0-16.6,3.7-16.6,16.5
		c0,20.2,11.1,36.8,18.4,36.8c5.5,0,5.5-1.8,9.2-1.8c3.7,0,3.7,1.8,9.2,1.8c7.4,0,18.4-16.5,18.4-36.8
		C185.1,96.8,175.8,93.1,168.5,93.1z"/>
</g>
<defs>
	
		<filter id="Adobe_OpacityMaskFilter_00000110442272927909957800000018098237949369761962_" filterUnits="userSpaceOnUse" x="159.3" y="85.8" width="25.8" height="9.2">
		<feColorMatrix  type="matrix" values="1 0 0 0 0  0 1 0 0 0  0 0 1 0 0  0 0 0 1 0"/>
	</filter>
</defs>
<mask maskUnits="userSpaceOnUse" x="159.3" y="85.8" width="25.8" height="9.2" id="mask5_54_9694_00000034794293116278542790000001938119659178874498_">
	<path style="fill:#FFFFFF;filter:url(#Adobe_OpacityMaskFilter_00000110442272927909957800000018098237949369761962_);" d="
		M159.1,85.7h26v9.7h-26V85.7z"/>
</mask>
<g class="st21">
	<path class="st22" d="M159.3,93.1c0,0,5.5-7.4,14.7-7.4c7.4,0,11.1,3.7,11.1,3.7s-7.4,5.5-12.9,5.5C166.6,95,159.3,93.1,159.3,93.1
		z"/>
</g>
<defs>
	
		<filter id="Adobe_OpacityMaskFilter_00000067235383805578176490000015833891315858245786_" filterUnits="userSpaceOnUse" x="155.6" y="80.3" width="9.2" height="18.4">
		<feColorMatrix  type="matrix" values="1 0 0 0 0  0 1 0 0 0  0 0 1 0 0  0 0 0 1 0"/>
	</filter>
</defs>
<mask maskUnits="userSpaceOnUse" x="155.6" y="80.3" width="9.2" height="18.4" id="mask6_54_9694_00000065034323925317854150000010795370959971219611_">
	<path style="fill:#FFFFFF;filter:url(#Adobe_OpacityMaskFilter_00000067235383805578176490000015833891315858245786_);" d="
		M155.2,80.1h9.7V99h-9.7V80.1z"/>
</mask>
<g class="st24">
	<path class="st25" d="M157.4,98.7c-1,0-1.8-0.8-1.8-1.8c0-6.3,2.2-12.2,6.1-16c0.7-0.7,1.9-0.7,2.6,0c0.7,0.7,0.7,1.9,0,2.6
		c-3.2,3.2-5,8-5,13.4C159.3,97.8,158.4,98.7,157.4,98.7z"/>
</g>
<path class="st26" d="M183.3,133c3.6,13.3,17.7,21.1,31.6,17.4c13.9-3.7,22.2-17.5,18.6-30.9c-3.6-13.3-17.7-21.1-31.6-17.4
	C188,105.9,179.7,119.7,183.3,133z"/>
<path class="st27" d="M233.1,119.7c-4.4-16.5-21.3-21-33.1-15.9c-20.1,8.8-13.2,39.5,6.5,43.1C220.1,149.4,236,139.2,233.1,119.7z"
	/>
<path class="st26" d="M199.9,106c1.1,0.8,3.3,1.7,5,1.1c1.4-0.5,4.3-2.7,3.6-3.5C208.1,103,197.8,104.5,199.9,106z"/>
<path class="st28" d="M208.7,100.3c-4,0.5-4.7,2.2-5.4,3.1c0,0,0.6,0.9,1.1,0.5c0,0,0.4-2.8,4.6-2.9c2.3,2.6,7,3.6,11,1
	c3.4-2.2,2.7-6.5,4.1-8.5c-3.5,0-5.8-1.8-9.9-0.8C210.3,93.6,208,98.1,208.7,100.3z"/>
<path class="st29" d="M205.9,101.8c0.8-0.5,1.9-0.8,3.2-0.8h0l0,0c2.2,2.5,6.8,3.7,11,1l0,0c2.1-1.4,2.7-3.7,3.1-5.6
	c0.3-1.1,0.5-2.1,1-2.9c-1.4,0-2.6-0.3-3.8-0.5c-1.8-0.4-3.7-0.8-6.1-0.2c-0.8,0.2-1.5,0.5-2.2,0.9c-2.6,1.7-4,4.9-3.4,6.7v0l0,0
	c-1.5,0.2-2.7,0.6-3.6,1.1c-0.8,0.5-1.2,1.1-1.5,1.6c-0.1,0.1-0.2,0.2-0.2,0.3c0.1,0.1,0.6,0.8,1,0.5l0,0
	C204.4,103.8,204.7,102.6,205.9,101.8z M220.1,102c-1,0.6-2,1.1-3.1,1.3c-1,0.2-2,0.3-3,0.1c-1.9-0.3-3.7-1.1-4.8-2.4
	c-1.3,0-2.3,0.3-3.2,0.8c-1.3,0.8-1.5,2-1.5,2l0,0l0,0l0,0c-0.5,0.3-1.1-0.5-1.1-0.5l0,0l0,0c0.1-0.1,0.1-0.2,0.2-0.3
	c0.3-0.5,0.7-1.1,1.6-1.6c0.9-0.6,2-0.9,3.6-1.1c-0.3-0.9,0-2.1,0.5-3.4c0.7-1.4,1.7-2.5,2.9-3.3c0.7-0.4,1.4-0.8,2.2-1
	c2.4-0.6,4.3-0.2,6.1,0.2c1.2,0.3,2.4,0.6,3.8,0.5h0l0,0c-0.5,0.7-0.7,1.8-1,2.9C222.8,98.3,222.2,100.6,220.1,102L220.1,102z"/>
<path class="st30" d="M212.5,99.9l0.3,0c1.6,1.5,3.7,1.4,6.6,1.2c-3.8,0.1-4.6-0.2-6.2-1.4l0,0c1.2-0.5,2.3-1,3.1-1.5
	c2.5,0.8,3,0.9,5,0.3c-2,0.6-3.6,0-4.9-0.4c0.3-0.2,0.7-0.4,0.9-0.6c0.7-0.6,1.6-1,2.8-1.6c0.6,0.3,1.6,0.8,2.6,0.1
	c-1.1,0.6-1.9,0.2-2.5-0.1l-0.1-0.1c1-0.5,2.2-1.1,3.4-1.7c-1.6,0.8-3.8,1.5-6.2,3.1c-0.2-1.5,0.4-2.7,0.9-3.2
	c-0.8,0.8-1.5,1.8-1.5,3.6c0,0-1.3,0.8-1.8,1.1c-0.1-2,0.5-3.1,1.9-4.9c-2.6,2.4-2.6,5.1-2.5,5.1c-1.3,0.7-2.5,1-3.6,1.3
	c0.1-1.8,0.1-2.8,3.4-5.9c-2.9,2.4-3.8,3.5-3.8,6l-1.9,0.7C209.6,100.6,211.4,100.3,212.5,99.9z"/>
<path class="st28" d="M201.9,97.7c3.5,4.1,2.5,8.1,1.9,8.3c-0.1,0-0.4-2-1.2-3.4c-0.9-1.7-3-4.6-3-4.7
	C199.7,97.2,201.4,97,201.9,97.7z"/>
<path class="st31" d="M104.6,143.7c6.1,12.9,17.3,17,22.6,14.5c5.3-2.5,9.2-13.8,3.1-26.7L99.9,67.1c-6.1-12.9-17.3-17-22.6-14.5
	c-5.3,2.5-9.2,13.8-3.1,26.7L104.6,143.7z"/>
<path class="st32" d="M96.3,75.1c-5.3,2.5-9.5,4.8-10.9,2c-0.2-0.5-0.3-1.1-0.2-1.7c0.1-0.1,0.2-0.2,0.2-0.3c1.4-2.8,9.3-7,14.5-8.2
	l0.1,0.1l2.4,5C100.7,73.1,98.6,74,96.3,75.1z M103.6,90.6c-5.3,2.5-9.5,4.8-10.9,2c-0.2-0.5-0.3-1.1-0.2-1.7
	c0.1-0.1,0.2-0.2,0.2-0.3c1.3-2.8,9.3-7,14.5-8.2l2.4,5.2C108,88.5,105.9,89.5,103.6,90.6z M110.9,106c-5.3,2.5-9.5,4.8-10.9,2
	c-0.2-0.5-0.3-1.1-0.2-1.7c0.1-0.1,0.2-0.2,0.2-0.3c1.4-2.8,9.3-7,14.5-8.2l2.4,5.2C115.3,104,113.2,104.9,110.9,106z M118.2,121.5
	c-5.3,2.5-9.5,4.8-10.9,2c-0.2-0.5-0.3-1.1-0.2-1.7c0.1-0.1,0.2-0.2,0.2-0.3c1.3-2.8,9.3-7,14.5-8.2l2.4,5.2
	C122.6,119.5,120.5,120.4,118.2,121.5z M125.5,137c-5.3,2.5-9.5,4.8-10.9,2c-0.2-0.5-0.3-1.1-0.2-1.7c0.1-0.1,0.2-0.2,0.2-0.3
	c1.4-2.8,9.3-7,14.5-8.2l1.3,2.7c0.4,0.8,0.7,1.7,1.1,2.5C129.8,135,127.8,135.9,125.5,137z"/>
<path class="st33" d="M98.5,64.5c0.2,0.4,1.1,2,1.3,2.4c-5.2,1.2-13.1,5.4-14.5,8.2c-0.1,0.1-0.1,0.2-0.2,0.3
	c-0.4,0.4-0.9,0.5-1.4,0.4l-0.1-0.1c-0.7-0.3-0.9-1.1-0.6-1.8C84.7,70.5,92.5,66.1,98.5,64.5z M106,79.9l1.2,2.5
	c-5.2,1.2-13.1,5.4-14.5,8.2c-0.1,0.1-0.1,0.2-0.2,0.3c-0.4,0.4-0.9,0.6-1.4,0.4l-0.1-0.1c-0.7-0.3-0.9-1.1-0.6-1.8
	C92,85.9,99.9,81.5,106,79.9z M113.3,95.4l1.2,2.5c-5.2,1.2-13.1,5.4-14.5,8.2c-0.1,0.1-0.1,0.2-0.2,0.3c-0.4,0.4-0.9,0.5-1.4,0.4
	l-0.1-0.1c-0.7-0.3-0.9-1.1-0.6-1.8C99.3,101.3,107.2,96.9,113.3,95.4z M120.6,110.9l1.2,2.5c-5.2,1.2-13.1,5.4-14.5,8.2
	c-0.1,0.1-0.1,0.2-0.2,0.3c-0.4,0.4-0.9,0.5-1.4,0.4l-0.1-0.1c-0.7-0.3-0.9-1.1-0.6-1.8C106.6,116.8,114.6,112.4,120.6,110.9z
	 M127.9,126.3l1.2,2.5c-5.2,1.2-13.1,5.4-14.5,8.2c-0.1,0.1-0.1,0.2-0.2,0.3c-0.4,0.4-0.9,0.5-1.4,0.4c0,0-0.1,0-0.1-0.1
	c-0.7-0.3-0.9-1.1-0.6-1.8C113.9,132.3,121.9,127.8,127.9,126.3z"/>
<path class="st34" d="M246.6,168.6l-2.7,123.6c0,0,0.2,5.7-0.9,9.1c-1.3,4-3,6.1-5.4,9.5c-1.5,2.2-2.5,3.2-4.5,5
	c-0.7,0.6-1.8,1.4-1.8,1.4H77c0,0-1.3-0.4-1.8-0.9c-1.9-2-2.9-3.6-4.5-5.9c-2.6-3.6-3.6-5.7-4.9-10c-1.1-3.4-1.3-9.1-1.3-9.1
	l-2.2-122.7H246.6z"/>
<path class="st35" d="M46,138.7c0-3,2.4-5.4,5.4-5.4h212.3v35.3H51.4c-3,0-5.4-2.4-5.4-5.4V138.7z"/>
<path class="st36" d="M263.7,133.3h9.9c3,0,5.4,2.4,5.4,5.4v24.4c0,3-2.4,5.4-5.4,5.4h-9.9V133.3z"/>
<path class="st37" d="M246.4,168.9h16.8l-3.9,124.7c0,0-1.3,12.6-4.7,17c-2.3,3-6,6-6,6h-16.8c0,0,8.1-6.9,10.3-13.2
	c1.3-3.8,1.7-10.2,1.7-10.2L246.4,168.9z"/>
<path class="st38" d="M144,133c3,0,4.7,3.5,2.8,5.9l-42.6,54c-1.5,1.8-4.2,1.8-5.7,0l-42.6-54c-1.9-2.4-0.2-5.9,2.8-5.9L144,133z"/>
<path class="st37" d="M132.8,133h23.8l-51.9,67.9L92.3,185L132.8,133z"/>
<path class="st38" d="M131.8,250.9c-3.8,0-7.3-0.7-10.3-2c-3-1.3-5.3-3.2-7.1-5.5c-1.7-2.4-2.6-5.1-2.7-8.2H123
	c0.1,1.3,0.5,2.4,1.3,3.4c0.8,1,1.8,1.7,3.1,2.3c1.3,0.5,2.8,0.8,4.4,0.8c1.7,0,3.2-0.3,4.5-0.9c1.3-0.6,2.3-1.4,3.1-2.5
	c0.7-1.1,1.1-2.3,1.1-3.7c0-1.4-0.4-2.7-1.2-3.8c-0.8-1.1-1.9-2-3.3-2.6c-1.4-0.6-3.2-0.9-5.1-0.9h-4.9V219h4.9
	c1.7,0,3.2-0.3,4.5-0.9c1.3-0.6,2.3-1.4,3-2.4c0.7-1.1,1.1-2.3,1.1-3.7c0-1.3-0.3-2.5-1-3.5c-0.6-1-1.5-1.8-2.6-2.4
	c-1.1-0.6-2.4-0.9-3.9-0.9c-1.5,0-2.9,0.3-4.1,0.8c-1.3,0.5-2.3,1.3-3,2.3c-0.8,1-1.2,2.2-1.2,3.5h-10.7c0.1-3.1,0.9-5.7,2.6-8.1
	c1.7-2.3,3.9-4.2,6.8-5.5c2.9-1.3,6.1-2,9.7-2c3.6,0,6.8,0.7,9.5,2c2.7,1.3,4.8,3.1,6.4,5.4c1.5,2.2,2.3,4.8,2.3,7.6
	c0,3-0.9,5.4-2.8,7.4c-1.8,2-4.2,3.2-7.2,3.8v0.4c3.9,0.5,6.8,1.9,8.9,4.1c2,2.2,3.1,4.9,3,8.2c0,3-0.8,5.7-2.6,8.1
	c-1.7,2.3-4.1,4.2-7.2,5.5C139.2,250.2,135.7,250.9,131.8,250.9z"/>
<path class="st38" d="M180.7,251.4c-4.4,0-8.2-1.1-11.4-3.3c-3.2-2.2-5.6-5.3-7.3-9.5c-1.7-4.1-2.5-9.1-2.5-14.9
	c0-5.8,0.8-10.7,2.5-14.8c1.7-4.1,4.2-7.2,7.3-9.3c3.2-2.1,7-3.2,11.4-3.2s8.2,1.1,11.4,3.2c3.2,2.1,5.6,5.2,7.4,9.3
	c1.7,4.1,2.6,9,2.5,14.8c0,5.8-0.9,10.8-2.6,14.9c-1.7,4.1-4.1,7.3-7.3,9.5C189,250.3,185.2,251.4,180.7,251.4z M180.7,242.1
	c3,0,5.4-1.5,7.2-4.6c1.8-3.1,2.7-7.6,2.7-13.8c0-4-0.4-7.4-1.2-10c-0.8-2.7-2-4.7-3.4-6c-1.5-1.3-3.2-2-5.2-2c-3,0-5.4,1.5-7.2,4.5
	c-1.8,3-2.7,7.5-2.7,13.6c0,4.1,0.4,7.5,1.2,10.2c0.8,2.7,2,4.7,3.5,6.1C177,241.4,178.7,242.1,180.7,242.1z"/>
<path class="st38" d="M128.5,295.5c0,5.8-2.1,9.4-6.4,10.9c-1,0.4-2.1,0.5-3.2,0.5c-1.8,0-3.6-0.4-5.3-1.3v-2.8
	c1.6,0.9,3.3,1.3,4.9,1.3c1.3,0,2.5-0.3,3.5-0.9c2.2-1.3,3.3-3.8,3.3-7.5V279l3.1-1.7V295.5z"/>
<path class="st38" d="M145.1,297.8c-2.7,0-4.8-0.9-6.2-2.6c-1.2-1.5-1.8-3.4-1.8-5.7v-20.8l3.2-1.7v22.4c0,3.6,1.7,5.4,5.2,5.4h1.7
	v3H145.1z"/>
<path class="st38" d="M154.1,271c-1.3,0-1.9-0.7-1.9-2c0-1.3,0.6-1.9,1.9-1.9c1.2,0,1.9,0.6,1.9,1.9C156,270.3,155.3,271,154.1,271z
	 M161.5,294.8h1.7v3h-2c-2.9,0-5-1-6.4-2.9c-1.5,1.9-3.6,2.9-6.5,2.9h-2v-3h1.7c3.5,0,5.2-1.8,5.2-5.4V279l3.2-1.7v12
	C156.2,293,158,294.8,161.5,294.8z"/>
<path class="st38" d="M162.2,297.8v-3h1.7c3.5,0,5.2-1.8,5.2-5.4V279l3.2-1.7v12.1c0,2.7-0.8,4.8-2.3,6.3c-1.4,1.4-3.3,2.1-5.7,2.1
	H162.2z M163.7,306.7c-1.3,0-1.9-0.7-1.9-2c0-1.3,0.7-1.9,1.9-1.9c1.2,0,1.9,0.6,1.9,1.9C165.6,306,165,306.7,163.7,306.7z
	 M169.2,306.7c-1.3,0-1.9-0.7-1.9-2c0-1.3,0.6-1.9,1.9-1.9c1.2,0,1.9,0.6,1.9,1.9C171,306,170.4,306.7,169.2,306.7z"/>
<path class="st38" d="M177,297.8l1.5-3h8.9c1.5,0,2.5-0.4,3-1.1c0.6-0.7,0.9-2,0.9-3.8c0-4.7-2-8.1-6.1-10.5l1.5-2.6
	c5.2,3,7.7,7.4,7.7,13.1c0,5.2-2.2,7.8-6.6,7.8H177z"/>
<path class="st34" d="M111.3,194.5h95v60.6h-95V194.5z"/>
<path class="st38" d="M139.2,197v59h-12.4v-47.1h-0.3l-13.4,8.5v-11.1l14.5-9.2H139.2z"/>
<path class="st38" d="M174.5,256.7c-4,0-7.6-0.7-10.8-2.2c-3.1-1.5-5.6-3.6-7.5-6.2c-1.9-2.6-2.8-5.6-2.9-9h12
	c0.1,2.3,1.1,4.1,2.9,5.6c1.8,1.4,3.9,2.1,6.3,2.1c1.9,0,3.7-0.4,5.2-1.3c1.5-0.9,2.7-2.1,3.5-3.7c0.9-1.6,1.3-3.4,1.3-5.4
	c0-2.1-0.4-3.9-1.3-5.5c-0.9-1.6-2.1-2.8-3.6-3.7s-3.3-1.3-5.2-1.4c-1.7,0-3.4,0.4-5,1.1c-1.6,0.7-2.9,1.7-3.7,2.9l-11-2l2.8-31.1
	h35.8v10.2h-25.6l-1.5,14.8h0.3c1-1.5,2.6-2.7,4.7-3.6c2.1-1,4.4-1.4,7-1.4c3.5,0,6.7,0.8,9.4,2.5c2.8,1.7,5,4,6.6,6.9
	c1.6,2.9,2.4,6.2,2.4,10c0,4-0.9,7.5-2.7,10.6c-1.8,3.1-4.4,5.5-7.7,7.3C182.7,255.9,178.8,256.7,174.5,256.7z"/>
</svg>
