<?xml version="1.0" encoding="utf-8"?>
<!-- Generator: Adobe Illustrator 26.5.0, SVG Export Plug-In . SVG Version: 6.00 Build 0)  -->
<svg version="1.1" id="Layer_1" xmlns="http://www.w3.org/2000/svg" xmlns:xlink="http://www.w3.org/1999/xlink" x="0px" y="0px"
	 viewBox="0 0 311 227" style="enable-background:new 0 0 311 227;" xml:space="preserve">
<style type="text/css">
	.st0{fill:#D6D6D6;}
	.st1{fill:#B2B2B2;}
	.st2{fill:#FFFFFF;filter:url(#Adobe_OpacityMaskFilter);}
	.st3{mask:url(#mask0_54_9696_00000047042195879178431340000015720448548882243465_);}
	.st4{fill:#FFCD2E;}
	.st5{fill:#FFFFFF;filter:url(#Adobe_OpacityMaskFilter_00000053528332071386465460000015601364309461733270_);}
	.st6{mask:url(#mask1_54_9696_00000067917507453832758640000011344357599546535568_);}
	.st7{fill:#FDDE64;}
	.st8{fill:#FFFFFF;filter:url(#Adobe_OpacityMaskFilter_00000178164840227035941870000013965010931275117726_);}
	.st9{mask:url(#mask2_54_9696_00000058558020713865107320000000521403222123967880_);}
	.st10{fill:#DCA97A;}
	.st11{fill:#FFFFFF;filter:url(#Adobe_OpacityMaskFilter_00000069389273690355050000000012408911702160840892_);}
	.st12{mask:url(#mask3_54_9696_00000152230852856748538880000003380339691695450785_);}
	.st13{fill:#D6A076;}
	.st14{fill:#F5871F;}
	.st15{fill:#9E9083;}
	.st16{fill:#F16236;}
	.st17{fill:#CB3F14;}
	.st18{fill:#685A4D;}
	.st19{fill:#FFFFFF;}
</style>
<path class="st0" d="M169.9,34.3V23.5h23.6v10.8c8.1,4.2,13.3,13.1,13.3,22.9v49.4H158V65.4C158,55.6,161.8,38.5,169.9,34.3z"/>
<path class="st1" d="M186.9,34.3V23.5h6.6v10.8c8.1,4.2,13.3,13.1,13.3,22.9v49.4h-6.6V57.2C200.1,47.4,195,38.5,186.9,34.3z"/>
<defs>
	<filter id="Adobe_OpacityMaskFilter" filterUnits="userSpaceOnUse" x="169.6" y="9" width="17.2" height="14.6">
		<feColorMatrix  type="matrix" values="1 0 0 0 0  0 1 0 0 0  0 0 1 0 0  0 0 0 1 0"/>
	</filter>
</defs>
<mask maskUnits="userSpaceOnUse" x="169.6" y="9" width="17.2" height="14.6" id="mask0_54_9696_00000047042195879178431340000015720448548882243465_">
	<path class="st2" d="M194.3,9h-27.6v14.9h27.6V9z"/>
</mask>
<g class="st3">
	<path class="st4" d="M186.9,9h-17.2v14.6h17.2V9z"/>
</g>
<defs>
	
		<filter id="Adobe_OpacityMaskFilter_00000163038123782758020010000014858747722248322451_" filterUnits="userSpaceOnUse" x="186.9" y="9" width="6.6" height="14.5">
		<feColorMatrix  type="matrix" values="1 0 0 0 0  0 1 0 0 0  0 0 1 0 0  0 0 0 1 0"/>
	</filter>
</defs>
<mask maskUnits="userSpaceOnUse" x="186.9" y="9" width="6.6" height="14.5" id="mask1_54_9696_00000067917507453832758640000011344357599546535568_">
	<path style="fill:#FFFFFF;filter:url(#Adobe_OpacityMaskFilter_00000163038123782758020010000014858747722248322451_);" d="
		M194.3,9h-8.1v14.9h8.1V9z"/>
</mask>
<g class="st6">
	<path class="st7" d="M193.5,9h-6.6v14.5h6.6V9z"/>
</g>
<defs>
	
		<filter id="Adobe_OpacityMaskFilter_00000108308583728937960550000012977588905035785871_" filterUnits="userSpaceOnUse" x="78.1" y="5.1" width="82" height="129.4">
		<feColorMatrix  type="matrix" values="1 0 0 0 0  0 1 0 0 0  0 0 1 0 0  0 0 0 1 0"/>
	</filter>
</defs>
<mask maskUnits="userSpaceOnUse" x="78.1" y="5.1" width="82" height="129.4" id="mask2_54_9696_00000058558020713865107320000000521403222123967880_">
	<path style="fill:#FFFFFF;filter:url(#Adobe_OpacityMaskFilter_00000108308583728937960550000012977588905035785871_);" d="
		M190.8,41.9L84,2L48,98.4l106.8,39.9L190.8,41.9z"/>
</mask>
<g class="st9">
	<path class="st10" d="M81.5,11.2c-4.2,8.1-4,17.9-1.7,26.8c2.3,8.8,6.7,17,10.5,25.3c2.4,5.1,4.6,10.4,7.3,15.3
		c3.4,6.3,7.5,12.1,11.7,17.9c7.2,10.1,14.4,20.1,22.9,29.1c2.9,3,5.9,5.9,9.7,7.6c3.8,1.7,8.4,2,11.9-0.1c2.6-1.6,4.4-4.3,5.4-7.2
		c1.6-5.1,0.8-10.7,0-16c-1.9-12-6.3-24.7-12.2-35.8c-4.9-9.1-10.4-15.4-15.1-23.3c0,0-4.9-6.8-7.5-10.7c-2.6-4-7.5-10.5-12-14.1
		c-4.5-3.6-14.6-15.7-15-16.6c-0.4-0.8-0.2-2-0.2-2c-0.6-0.4-1.2-0.7-1.9-1c-0.7-0.3-1.5-0.6-2.3-0.8l0,0c0,0-0.9,0.3-2.9-0.4
		c-0.4,0-0.8,0-1.2,0.1c-0.1,0.7-0.7,1.8-3.8,1.4C83.6,7.7,82.4,9.5,81.5,11.2z"/>
</g>
<defs>
	
		<filter id="Adobe_OpacityMaskFilter_00000161612693082945824200000016478860577858168729_" filterUnits="userSpaceOnUse" x="81.9" y="5.1" width="62.2" height="69">
		<feColorMatrix  type="matrix" values="1 0 0 0 0  0 1 0 0 0  0 0 1 0 0  0 0 0 1 0"/>
	</filter>
</defs>
<mask maskUnits="userSpaceOnUse" x="81.9" y="5.1" width="62.2" height="69" id="mask3_54_9696_00000152230852856748538880000003380339691695450785_">
	<path style="fill:#FFFFFF;filter:url(#Adobe_OpacityMaskFilter_00000161612693082945824200000016478860577858168729_);" d="M159,30
		L84.7,2.3L68.1,46.7l74.3,27.7L159,30z"/>
</mask>
<g class="st12">
	<path class="st13" d="M139.9,66.5c-0.3-0.2-0.3-0.5-0.5-0.9c-0.1,0.2-0.1,0.1-0.3,0.1c0.2,0.2,0.2,0.1,0.2,0.6
		c0.2-0.1,0.2,0.3,0.3,0.2c0,0.1-0.1,0.1-0.1,0.2c-0.2-0.3-0.4-0.7-0.6-1c0-0.2,0-0.3,0.2-0.3c-0.2-0.2-0.3-0.1-0.3,0.2
		c0,0.3,0.1,0.6,0.3,0.7c-0.2,0.4-0.3,0.3-0.4,0c-0.1-0.3-0.2-0.7-0.5-1.1c0,0.2,0,0.4,0,0.6c0-0.1,0.1-0.1,0.1-0.2
		c0.1,0.4,0.2,1,0.4,1.2C139.1,66.3,139.8,67.4,139.9,66.5z M140.8,64.1C140.8,64.1,140.8,64,140.8,64.1c-0.2,0-0.2,0.1-0.4,0.1
		c0.2-0.3-0.1-0.5-0.2-0.2c0.1,0.1,0.2,0.5,0.4,0.4c0,0.1,0,0.2,0,0.3c-0.2-0.2-0.2,0-0.3,0.1c0-0.1,0-0.2,0.1-0.4
		c-0.1-0.2-0.3-0.3-0.4-0.1c-0.1-0.2-0.1-0.4,0.1-0.4c-0.2-0.3-0.2,0-0.3,0.1c-0.1-0.1-0.2-0.1-0.3-0.3c0-0.2,0.5,0.2,0.5-0.2
		c-0.2,0.1-0.4-0.3-0.5,0c-0.1-0.1-0.2-0.7-0.5-0.5c0.1,0.1,0.1,0.2,0,0.2c0.3,0.2,0.5,1.2,0.9,1.1c0,0.3-0.1,0.2-0.1,0.6
		c0.6,0.4,0.7-0.1,1.1,0.1c0-0.1,0-0.2,0-0.2C140.7,64.6,140.9,64.6,140.8,64.1z M138.8,63.3c-0.1,0.1,0.2,0.4,0.3,0.8
		C139.2,63.9,139,63.4,138.8,63.3z M140,67.7c0-0.2-0.3-0.3-0.1,0c-0.1,0-0.2-0.1-0.2-0.4c0-0.2,0.1,0,0.2-0.1
		c-0.1-0.1-0.1-0.2-0.2-0.4c-0.2,0.1-0.1,0.4,0,0.9C139.8,67.8,139.8,67.8,140,67.7z M137.4,66.4c-0.2,0-0.1,0.2-0.2,0.4
		C137.3,66.8,137.6,66.9,137.4,66.4z M137.7,66.1c0.2,0.4,0.3-0.2,0.3-0.4C137.8,65.8,137.9,66,137.7,66.1z M138.2,68.2
		c0.3-0.2-0.3-0.8,0-1.1c-0.2-0.1-0.1,0.5-0.3,0.6C138.1,67.9,137.9,68.1,138.2,68.2z M136.7,69.9c-0.1-0.3,0.2-0.2,0.2-0.4
		c0.1-0.3-0.1,0.3-0.2,0c0,0.1,0,0.2-0.1,0.2c0.1,0.2,0.2,0.1,0.2,0.4C136.9,70.2,136.9,69.8,136.7,69.9z M140.5,67.3
		c-0.1-0.4,0.3-0.3,0.1-0.8c-0.1,0.2-0.1,0.5-0.3,0.6c0,0-0.1,0-0.1-0.1C140.1,67,140.4,67.4,140.5,67.3z M137.9,69.2
		c0,0.1,0.1,0,0.2,0.2c0.2,0-0.2-0.5,0-0.4c-0.1-0.2-0.2,0-0.2,0.1C137.9,69.1,137.9,69.1,137.9,69.2z M139.4,72.5
		c-0.1,0.2-0.2,0.3-0.1,0.7c0.1-0.1,0.1-0.1,0.2,0.1C139.6,72.9,139.3,72.9,139.4,72.5z M137.7,65.7
		C137.1,65.5,137.3,64.7,137.7,65.7L137.7,65.7z M139.4,72.1c-0.1-0.1-0.2-0.3-0.2-0.5c0-0.1-0.1-0.2-0.3-0.2
		C139.2,71.6,139.2,72.3,139.4,72.1z M141.3,70.1c-0.1-0.4-0.1,0.1-0.3-0.3c0,0,0.2,0.9,0.4,0.9C141.4,70.4,141,70.1,141.3,70.1z
		 M140,63.3c0-0.2,0-0.3,0-0.4c-0.1-0.1-0.1-0.2-0.2-0.3c-0.1,0.3,0.2,0.8,0.4,1.1C140.4,63.7,140.1,63.1,140,63.3z M140,70.5
		c0.3,0.4,0.3,0.8,0.6,0.9c0-0.4-0.6-0.7-0.3-0.9C140.2,70.4,140.1,70.5,140,70.5z M141.6,69.5c0-0.3-0.1-0.9-0.5-1
		C141.4,68.8,141.4,69.3,141.6,69.5z M129.6,56.8C129.5,56.7,129.5,56.8,129.6,56.8c-0.1,0.1-0.2,0-0.3,0.1c0.1,0.1,0.3,0.2,0.4,0.4
		C129.9,57.2,129.4,56.8,129.6,56.8z M142.1,72.2c0.1,0.1,0.2,0.1,0.2-0.1c0-0.3-0.2-0.1-0.2-0.5C142,71.7,142,71.9,142.1,72.2z
		 M128.8,57.7c-0.4-0.2-0.1-0.6,0-0.7c-0.2-0.3-0.4-0.2-0.6-0.1c0-0.1,0.1-0.1,0.1-0.2c-0.6,0.1,0.3,0.6,0.3,1.1
		c0.1-0.1,0.2,0,0.2,0.1c0-0.1,0-0.3-0.1-0.4C128.7,57.6,128.8,57.7,128.8,57.7z M141.6,74.1c0.3,0.2,0.1-0.4-0.1-0.6
		C141.3,73.6,141.8,74,141.6,74.1z M129.1,57.1c-0.1,0.1-0.2,0.3,0,0.5c0.1-0.2,0.1-0.3,0.3-0.3C129.3,57.2,129.2,57.3,129.1,57.1z
		 M137.4,64.5c0,0.2,0.3,0.6,0.1,0.6c0.4,0.4,0-0.3,0.2-0.4C137.6,64.5,137.5,64.5,137.4,64.5z M127.4,58.3
		c-0.3,0.1,0.2,0.4,0.2,0.5c0.1,0,0.2-0.1,0.2,0c0.1-0.2-0.3-0.2-0.4-0.2C127.5,58.5,127.5,58.4,127.4,58.3z M126.9,58.6
		c0,0.2-0.1,0.4-0.3,0.4c0.2,0.2,0.4,0.2,0.6,0.2C127,59,127.2,58.7,126.9,58.6z M127.5,57.8c-0.2-0.2-0.5-0.2-0.7-0.5
		C126.7,57.4,127.4,58.2,127.5,57.8z M138.4,64c-0.1,0.1,0.1,0.3,0.2,0.2c0.1,0.2,0,0.3,0.1,0.3c0.1,0.2-0.3,0.1-0.2,0.4
		c0.1,0,0.2-0.1,0.3-0.3c-0.2-0.5-0.3-0.8-0.4-1.1C138.2,63.5,138.8,64.3,138.4,64z M137.9,64.4c-0.1,0.4,0.4,0,0.4,0
		C138.2,63.9,138.1,64.8,137.9,64.4z M141.9,70c-0.1,0,0.1,0.4,0.1,0.6C142.2,70.6,142,70.1,141.9,70z M129.5,57.6
		c-0.1,0.2,0.2,0.6,0.4,0.4C129.7,57.6,129.6,57.8,129.5,57.6z M142,65.8C142,65.8,141.9,65.8,142,65.8c-0.1,0-0.3-0.2-0.3-0.4
		c0,0-0.1-0.1-0.1-0.1c0,0.1,0,0.3-0.1,0.3c0.3,0.1,0.2,0.5,0.2,0.7c0-0.2,0.2-0.1,0.3,0.3c0.2,0,0.1-0.3,0.1-0.4
		C142,66,142,66,142,65.8z M139.5,62.1c0-0.1-0.1-0.1-0.1-0.2C139.4,62,139.4,62.1,139.5,62.1z M139.8,62.5c0,0-0.1-0.1-0.1-0.1
		C139.7,62.4,139.7,62.5,139.8,62.5C139.7,62.6,139.7,62.6,139.8,62.5z M139,61.5c0,0-0.1-0.1-0.1-0.1
		C138.9,61.4,138.9,61.4,139,61.5C139,61.5,139,61.5,139,61.5z M139,62.9c0.1,0,0-0.2,0-0.3c0.1,0,0.1,0.1,0.2,0c0,0.1,0,0.2,0,0.3
		c0.3-0.2,0.4,0,0.5,0.2c0.3-0.1-0.1-0.3-0.2-0.6c-0.1,0.6-0.5-0.3-0.8-0.1C138.7,62.8,138.8,62.7,139,62.9z M132.3,59.2
		c0.2,0.2,0.3,0.5,0.2,0.5C132.9,60.1,132.5,59,132.3,59.2z M132,60c-0.1,0.3-0.1,0.2-0.3,0.2c0.1,0.1,0.2,0,0.2,0.2
		C132,60.3,132.2,60.3,132,60z M131,62.5c0-0.1-0.1,0-0.2,0c-0.1-0.2-0.2-0.4-0.2-0.5C130.6,62.1,130.8,62.6,131,62.5z M131.6,60.6
		c0.1,0.2,0.2,0.3,0.4,0.3c-0.1-0.1-0.1-0.2-0.2-0.4L131.6,60.6z M136.9,67c0.4,0.4,0.4,1.2,0.8,1.2c-0.2-0.5-0.5-1.1-0.7-1.6
		C136.8,66.7,137.2,67.1,136.9,67z M132.9,58.6c-0.3-0.3-0.3-0.4-0.5-0.8c-0.1,0.1-0.2,0.1-0.3,0.2
		C132.4,58.2,132.6,58.6,132.9,58.6z M131.5,57.1c0.1,0.3,0.2,0.4,0.4,0.6c0.1,0-0.1-0.3-0.2-0.5c0.2,0.2,0.1-0.3,0.3,0.1
		c0.1-0.1,0-0.2,0.1-0.3C131.8,56.7,131.8,57,131.5,57.1z M131.5,58.8c0.1,0.2,0.2,0.4,0.4,0.7c0.1-0.2,0-0.4-0.1-0.5
		c-0.1-0.2-0.3-0.3-0.4-0.6c0.2-0.1,0.3,0.2,0.4,0c-0.1-0.2-0.2-0.2-0.2,0c-0.1-0.2-0.2-0.5-0.4-0.6c0,0.1-0.1,0.2-0.2,0.2
		C131.3,58.4,131.4,58.6,131.5,58.8z M131,61.4c0,0.1-0.1,0.1-0.1,0.2c0.1,0.2,0.2,0.1,0.3,0.3C131.3,61.8,131.1,61.5,131,61.4z
		 M132.9,63.3c0-0.2,0.1-0.3,0-0.5c0.1,0.1,0.2,0.1,0.3,0.2c0.1-0.2-0.2-0.5,0.1-0.4c-0.1-0.4-0.3,0-0.4-0.3
		c-0.1,0.1,0.2,0.3,0.2,0.5c-0.1-0.1-0.3-0.2-0.4,0c0,0.1,0.1,0.4,0,0.4C132.7,63.3,132.8,63.1,132.9,63.3z M131.2,63.2
		C131.6,63.4,131.9,62.7,131.2,63.2L131.2,63.2z M131.7,61.3c0,0.1,0.1,0,0.2,0c0,0.1,0,0.1-0.1,0.1c0,0.1,0.1,0.1,0.1,0.1l0.1,0
		l-0.2-0.4c0.1-0.1,0.2,0.3,0.4,0.3c0.1,0.2,0,0.2,0.1,0.5c0.1,0,0.1,0,0.2,0.1c0-0.2,0.1-0.4-0.1-0.6c0.3,0.1,0.3-0.2,0.6-0.1
		c-0.3-0.4-0.4-0.1-0.7,0c-0.1,0-0.1-0.2-0.2-0.3c0,0.4-0.2,0-0.5,0.1C131.7,61.1,131.8,61.3,131.7,61.3z M132.9,61.7
		c0.1,0.1,0.1,0.3,0,0.2c0.1,0.1,0.2,0.4,0.4,0.3c0-0.2-0.1-0.2-0.2-0.1C132.9,61.9,133.1,61.8,132.9,61.7
		C132.8,61.4,132.8,61.5,132.9,61.7z M132.5,60.6c-0.2,0-0.2,0-0.2,0.2c0.2,0.2,0.1-0.1,0.3,0c-0.1-0.2,0-0.2-0.2-0.4
		C132.4,60.4,132.4,60.5,132.5,60.6z M132.6,64.1c0.1-0.3-0.4,0-0.5-0.3C132,64.2,132.5,64,132.6,64.1z M132.6,60.3l0.2,0.5
		C133.1,60.7,132.9,60.1,132.6,60.3z M133.2,61c0-0.1-0.1-0.1-0.1-0.2l-0.1,0c0.1,0.3,0.2,0.3,0.3,0.5C133.4,61.4,133,61,133.2,61z
		 M131.1,61.1c0.1-0.1,0-0.3,0.2-0.3c0-0.2-0.1-0.1-0.2-0.2C130.9,60.7,131,60.9,131.1,61.1z M134.8,65c-0.1,0.2,0.2,0.3,0.2,0.1
		c-0.1,0-0.2-0.4-0.3-0.4C134.5,64.3,135.1,65.3,134.8,65z M135,63.1c-0.3,0.2,0.2,0.9,0.2,1.3c0-0.1,0.1-0.3,0.2,0
		c0-0.1-0.1-0.4-0.2-0.6c-0.1-0.3-0.2-0.5,0-0.4C135.4,63.3,135.1,63.2,135,63.1z M134.9,64.3c0.1,0,0.2,0.3,0.3,0.2
		c-0.1-0.2-0.2-0.2-0.2-0.4c-0.1,0-0.1,0-0.2-0.1C134.6,64.1,135,64.3,134.9,64.3z M135.9,64.1c0.2,0.4,0.2-0.2,0.3,0.2
		c0.1-0.2-0.2-0.5-0.3-0.6C135.8,63.8,136,64,135.9,64.1z M136.5,66.1c0.1-0.4-0.4-0.5-0.5-0.7C135.9,65.9,136.4,65.6,136.5,66.1z
		 M137.6,61.2c-0.1-0.1-0.2-0.4-0.3-0.5C137.1,60.8,137.5,61.3,137.6,61.2z M136.3,65.2c0.3,0.1-0.4-0.5-0.3-0.5
		c-0.2-0.3-0.1,0.1,0,0.3C136.1,64.9,136.2,65.2,136.3,65.2z M136.9,64.8c0.1-0.2-0.3-0.6-0.4-0.8C136.5,64.2,136.8,64.4,136.9,64.8
		z M134,64.3c0.1,0.3,0.2,0.2,0.4,0.1C134.3,64.1,134.1,64.3,134,64.3z M133.2,65.3c-0.1,0-0.1-0.2-0.2-0.1c0.1,0.2,0.2,0.1,0.2,0.3
		c0.1-0.1,0-0.5-0.1-0.6C132.9,65,133.2,65.1,133.2,65.3z M133.7,61.5c0.5,0.4,0,0.4,0.3,0.7C134.1,62.2,134,61.3,133.7,61.5z
		 M133.4,62c-0.1,0.1,0,0.2-0.1,0.3C133.5,62.6,133.7,62.2,133.4,62z M133.6,64.1c0-0.1,0-0.2-0.1-0.3
		C133.5,63.6,133.5,63.8,133.6,64.1c-0.2-0.2-0.3-0.3-0.4-0.5C133.1,63.8,133.4,64.2,133.6,64.1z M133,58.9c-0.1,0.1,0.1,0.4,0,0.4
		c0.1,0.1,0.2,0,0.2,0.1C133.4,59.4,133.1,59,133,58.9z M133.8,64.8c0.2,0.1,0.3,0.1,0.4,0.2c-0.1-0.3-0.3-0.2-0.4-0.4
		C133.8,64.7,133.9,64.8,133.8,64.8z M134.4,64.2c0.1,0.4,0.1,0.3,0.3,0.2C134.7,64.1,134.5,64.2,134.4,64.2z M134.3,62.9
		c0.2,0.1,0.1-0.4,0.3-0.1c0.1,0.1,0.1,0,0-0.1C134.5,62.6,134.1,62.5,134.3,62.9z M116.8,35.4c-0.2-0.2-0.8-0.3-0.5-0.6
		c-0.2-0.2-0.3,0-0.5-0.2c0.4,0.7,0.8,0.8,0.9,1.2C116.9,35.7,116.8,35.6,116.8,35.4z M109.5,34c-0.4,0,0-0.3-0.6-0.6
		c-0.2,0.2-0.2,0.2-0.2,0.4c0.4,0,0.4,0.3,0.7,0.5C109.5,34.2,109.4,34.1,109.5,34z M109.8,34.2c-0.2-0.2-0.1,0.2-0.2,0.2
		c0.2,0.2,0.2,0.1,0.4,0.3C110.1,34.5,109.5,34.4,109.8,34.2z M112.7,33.7c0.3,0.3,0.3-0.2,0.2-0.4
		C112.8,33.2,113.1,33.7,112.7,33.7z M112,31.6c0,0.2-0.1,0.2-0.3,0.1c-0.2,0-0.4-0.1-0.5,0.1c0.4,0.3,0.4,0.6,0.7,0.9
		c-0.1-0.4,0-0.4-0.1-0.8c0.1-0.1,0.4,0.2,0.5-0.1L112,31.6z M110.8,35.1c0-0.1,0-0.1,0.1-0.2c-0.1-0.1-0.1,0-0.2,0
		c-0.1,0.1-0.3-0.2-0.4-0.2c0,0.1-0.1,0.2,0.1,0.4C110.6,35.1,110.6,34.8,110.8,35.1z M123.9,48.1c0.6,0.3,1.3,1.4,1.9,1.6
		c0.1-0.3,0-0.9-0.4-0.8c0.2,0.1,0.3,0.3,0.2,0.4c-0.2-0.3-0.4-0.1-0.6-0.4c0.1-0.2,0.4-0.1,0.4-0.5c-0.3-0.1-0.5,0.3-0.8,0.2
		c-0.2-0.4-0.3-0.5-0.4-0.8C124,47.9,124.1,48,123.9,48.1z M124.8,49.4c0.2,0.1,0.4,0.3,0.6,0.3C125.2,49.5,125,49.3,124.8,49.4z
		 M110.4,32c-0.1-0.1-0.1,0-0.2,0.1c0.1,0.1,0.2,0.2,0.4,0.3C110.9,32.3,110.3,32.1,110.4,32z M110.5,30.5c0.1,0.2,0.1,0.3-0.1,0.4
		c0.2,0.1,0.3,0.1,0.5-0.1C110.8,30.7,110.6,30.5,110.5,30.5z M115.3,40.8c0.2,0.1,0.4,0.5,0.6,0.2C115.7,41,115.5,40.8,115.3,40.8z
		 M115.7,39c0.3,0.3,0.3,0.5,0.2,0.6c0.3,0.1,0.6,0.3,0.7,0.3c-0.3-0.3-0.8-0.5-0.4-0.8c-0.1-0.1-0.2-0.2-0.3-0.3
		C115.9,38.8,115.8,38.9,115.7,39z M112,35.6c-0.2-0.2-0.4-0.3-0.5-0.1C111.8,35.7,111.9,35.8,112,35.6z M116.1,38.5
		c0.2-0.1,0-0.2,0.2-0.3c-0.1,0-0.3-0.2-0.4-0.2C115.8,38.1,116,38.4,116.1,38.5z M112.9,36.8c0.1,0.1,0.3,0.3,0.4,0.4
		c0.1-0.1,0.1-0.2,0.1-0.2C113.2,36.8,113.1,36.7,112.9,36.8z M117.3,36.8c0.2,0.2,0.2,0.2,0.4,0.4c0.3-0.2,0-0.3,0-0.5
		C117.5,36.6,117.4,36.8,117.3,36.8z M117.6,36.2c-0.3-0.2-0.1-0.1-0.3-0.4c0,0.1-0.3,0.2-0.3,0C116.6,35.6,117.5,36.6,117.6,36.2z
		 M117.4,38.3c-0.1,0.1,0,0.2-0.2,0.3c0.4,0.2,0.7,0.6,0.9,0C117.8,38.4,117.6,38.5,117.4,38.3z M116.8,37.7
		c-0.2-0.3-0.4,0.2-0.2,0.3C116.9,38.1,116.7,37.8,116.8,37.7z M84.5,17.3c0.3,0.1,0.4,0,0.2-0.2C84.5,17,84.7,17.2,84.5,17.3z
		 M83.5,15.9c0.2,0.1,0.4,0.1,0.6,0.1C84.1,15.9,83.6,15.8,83.5,15.9z M84.1,7.7c0,0-0.1-0.1-0.1-0.1c0,0,0,0.1-0.1,0.1
		C84,7.7,84,7.8,84.1,7.7z M89.1,20.7c0.1-0.1,0.2,0,0.3,0.1C89,20.4,87.8,20,89.1,20.7z M89.1,21.7C88.6,21.9,88.1,21.1,89.1,21.7
		L89.1,21.7z M86.8,18.6C87.5,18.7,87.2,19.1,86.8,18.6L86.8,18.6z M90.3,21.5c0.2,0.1,0.2-0.1,0.4,0.1c0-0.1-0.3-0.3-0.4-0.4
		C90.1,21.3,90.5,21.4,90.3,21.5z M90.5,22.2c-0.4,0.3,1.7,1.2,2.3,1.1c-0.1-0.3-0.7-0.1-0.6-0.5c-0.3,0.1-0.9-0.4-1.1-0.1
		C90.8,22.5,90.5,22.3,90.5,22.2z M131.2,55.7c-0.1,0-0.1-0.8-0.4-0.6C131.1,55.3,131,55.5,131.2,55.7z M138.3,62.2
		c0-0.2,0.2-0.1,0.2,0.1c0.2-0.2-0.1-0.2-0.2-0.5l-0.2,0.1C138.2,62,138.2,62.1,138.3,62.2z M133.1,57.7c0.2,0.2,0.3,0.4,0.4,0.6
		c0.1,0.2,0.2,0.4,0.4,0.6c0.1-0.3-0.2-0.5-0.4-0.8c-0.1-0.3,0.2,0,0.2-0.1c-0.2-0.3-0.1-0.5-0.3-0.6c-0.1,0.1,0.1,0.2,0.1,0.3
		c-0.2,0.1-0.2-0.1-0.2,0.1c-0.1-0.1-0.1-0.2,0-0.2C133,57.2,133.3,57.7,133.1,57.7z M126.1,49.6c0.2,0,0.3,0.2,0.5,0.1
		C126.5,49.6,126.3,49.5,126.1,49.6z M82.6,11.2c-0.3,0.1-0.4-0.3-0.7-0.5c0.1-0.2,0.3-0.5,0.2-0.7c-0.1,0.2-0.2,0.3-0.3,0.5
		c0.1,0.3,0.4,0.7,0.3,0.8C82.3,11.6,82.8,11.5,82.6,11.2z M83.7,7.9c0.1,0.2-0.2,0.4-0.1,0.6c0.4,0,0.2-0.3,0.4-0.4
		C83.9,8,83.9,7.9,83.7,7.9C83.8,7.8,83.8,7.9,83.7,7.9z M83,10.2c-0.3-0.2-0.2,0.2-0.5-0.1C82.5,10.4,82.9,10.4,83,10.2z M84.3,7.6
		c0.2,0.1,0.3-0.1,0.4-0.2c-0.2,0-0.3-0.1-0.4-0.2c0,0-0.1,0.1-0.1,0.1C84.5,7.5,84.5,7.5,84.3,7.6z M93.5,5.7c-0.1,0,0,0.1,0.7,0.4
		C93.9,5.9,93.6,5.7,93.5,5.7z M114.6,37.4l0.2-0.2c-0.3-0.3-0.5-0.5-0.7-0.4C114.1,37.1,114.4,37.1,114.6,37.4z M118.9,42.2
		c-0.2-0.2-0.3-0.4-0.5-0.5c-0.2,0.1,0,0.4-0.1,0.6C118.6,42.4,118.9,42.4,118.9,42.2z M122.5,47.8c-0.3-0.3-0.4-0.6-0.8-1
		c-0.1,0.1,0.2,0.4,0,0.5c0.1,0.1,0.3,0.3,0.4,0.1c-0.2,0.2,0.2,0.3,0,0.5c-0.1-0.1,0,0,0.1,0.1C122.2,47.6,122.3,47.8,122.5,47.8z
		 M124.2,50.5c-0.1-0.1-0.2-0.3-0.3-0.1c0.1,0.2,0.2,0.4,0.4,0.6C124.3,50.8,124.3,50.6,124.2,50.5z M122.4,46.9
		c0.3,0.3,0.2-0.1,0.2-0.3C122.4,46.4,122.6,46.9,122.4,46.9z M119.2,39.7c-0.1,0-0.2-0.1-0.2-0.2C118.3,40,118.8,39.9,119.2,39.7z
		 M119.6,44.7c0.1-0.1,0.2,0,0.3,0c-0.1-0.2,0-0.4-0.3-0.7c0.5,0.4,0.1-0.4-0.3-0.7c-0.1,0.2,0.2,0.3,0.3,0.5c-0.2,0-0.4-0.3-0.6,0
		c-0.1-0.2,0-0.3,0.1-0.1c0-0.1-0.1-0.2-0.2-0.3c-0.1,0.3-0.4,0.3-0.6,0.1c0.1,0.2,0.3,0.4,0.4,0.5c0.2,0.2,0.3,0.3,0.3,0.6
		c0.2,0,0.8,0.4,0.7,0.6c0.3,0.4,0.2-0.1,0.5,0.1c0-0.1-0.4-0.5-0.5-0.4C119.7,44.9,119.7,44.9,119.6,44.7z M121,45.6
		c-0.2-0.2-0.3-0.2-0.4-0.2C120.7,45.6,120.8,45.7,121,45.6z M119,40.4c0-0.3-0.4-0.4-0.6-0.3C118.6,40.5,118.8,40.1,119,40.4z
		 M122.5,45.4c-0.1,0-0.5-0.1-0.3-0.3c-0.3-0.2-0.5,0.1-0.8,0c-0.1,0.4,0.5,0.6,0.2,0.8c0.1,0.1,0.2,0.1,0.3,0
		c0-0.2-0.1-0.3-0.3-0.4c0.2,0,0.2,0.1,0.4-0.1c0.2,0.5,0.3,0.2,0.6,0.4C122.7,45.7,122.4,45.5,122.5,45.4z M124.5,55.5
		c0.6,0.3,0.6-0.6,1-0.5c-0.1-0.1-0.2-0.2-0.4-0.1c-0.2,0,0,0.3-0.1,0.4c-0.1,0.1-0.1,0-0.2,0c-0.1-0.3,0.1-0.2-0.2-0.4
		c-0.1-0.2,0-0.3,0.2-0.3c-0.1-0.1-0.3-0.2-0.5-0.1c0.2,0.3,0.3,0.5,0.2,0.7c-0.1,0-0.2-0.1-0.2-0.2
		C124.3,55.1,124.4,55.1,124.5,55.5z M123.5,50.3c-0.2-0.1-0.4,0.1-0.2,0.3C123.5,50.6,123.8,50.6,123.5,50.3z M124.1,51.8
		c-0.1-0.2-0.2-0.4-0.4-0.5c0.1-0.1,0.2,0,0.3,0c-0.2-0.4-0.7,0.2-0.9-0.4c-0.1,0.1-0.3,0.1-0.2,0.3c-0.1,0-0.2-0.1-0.4-0.3
		c0,0.3,0.2,0.6,0.4,0.7c0.1-0.5,0.5,0.3,0.7-0.1c0,0.4,0.4,0.8,0.1,1c-0.1,0.1-0.2-0.5-0.4-0.2c0.1,0.3,0.2,0.3,0.3,0.5
		C124.2,52.6,123.9,51.9,124.1,51.8z M126.4,57.5c-0.4-0.3,0,0.5,0.2,0.3C126.6,57.6,126.3,57.6,126.4,57.5z M123.6,47
		c0-0.2,0.5-0.1,0.1-0.6c-0.1,0.1-0.2,0.3-0.2,0.4c-0.1,0-0.2-0.2-0.4-0.3c-0.1,0.1,0,0.3,0.1,0.4c0.1,0.3,0.2,0,0.4,0.2
		c0.1,0.2-0.1,0.2-0.1,0.3c-0.2,0.1-0.3-0.4-0.5-0.1c0.3,0.3,0.7,0.2,1,0.4c0-0.1-0.1-0.2,0-0.3C123.9,47.2,123.7,47.3,123.6,47z
		 M124.1,50.2c-0.1-0.4-0.7-0.7-1-1.3c-0.2,0.3-0.4-0.1-0.4,0.2c0.4,0.2,0.7,1,1.1,1c0-0.1-0.1-0.1-0.1,0c-0.1-0.1-0.2-0.3-0.3-0.5
		C123.6,49.6,123.9,50.1,124.1,50.2z M123.1,48.3c-0.1-0.1-0.3-0.3-0.4-0.3c0,0.2,0.2,0.6,0.4,0.7c0.2-0.1,0.2-0.3,0.3-0.4
		c-0.2-0.2-0.1-0.3-0.2-0.4C122.9,47.9,123.3,48.2,123.1,48.3z M124,46.9c0.3,0.4,0.3,0,0.4-0.1C124.1,46.7,124.2,47,124,46.9z
		 M115.5,36.4c0-0.1-0.1-0.2,0-0.2c-0.2-0.2-0.3,0-0.4,0.1C115.2,36.6,115.3,36.3,115.5,36.4z M129.5,58.8c0-0.1-0.1-0.1-0.1-0.1
		l-0.1,0.1c0.1,0.3,0.1,0.2,0.3,0.4C129.6,59.1,129.4,58.9,129.5,58.8z M115.7,39.6c-0.1,0.3-0.2,0.5-0.3,0.7
		c0.4-0.2,0.4,0.8,0.9,0.6c-0.5-0.1-0.3-0.6-0.6-0.8c0.1-0.2,0.2,0,0.3-0.1C116,39.7,115.9,39.8,115.7,39.6z M113.5,39.3
		c0.1-0.1-0.3-0.4-0.1-0.5C113.2,38.7,113.2,39.1,113.5,39.3z M115.8,34.2c0.3,0.2,0.5-0.2,0.7,0.3c0.2-0.1-0.2-0.3-0.3-0.5
		C115.9,34,116,34.1,115.8,34.2z M131.3,56.2c0.2,0.3,0.2,0.4,0.4,0.6c-0.1-0.4-0.2-0.8-0.3-1.2C131.3,55.7,131.6,56.1,131.3,56.2z
		 M120.2,44.9C121,45.1,120.2,45.4,120.2,44.9L120.2,44.9z M114.2,36c0,0.2,0,0.4,0.2,0.6C114.5,36.5,114.3,36.3,114.2,36z
		 M114.6,34.6c0,0.1,0.1,0.2,0,0.3c0.1,0,0.2,0.1,0.3,0.2c0.1-0.1,0-0.2,0.1-0.2c-0.1-0.1-0.1-0.1-0.2-0.2
		C114.7,34.7,114.7,34.7,114.6,34.6z M115.4,37.6c-0.1-0.3-0.4-0.4-0.5-0.2C115,37.4,115.2,37.7,115.4,37.6z M114.6,33.5
		c0.3,0,0.2-0.4,0.5-0.1c0-0.1-0.1-0.3-0.1-0.4c0.2,0,0.4,0.3,0.6,0.4c0-0.1-0.2-0.4-0.3-0.5c-0.1,0-0.2,0-0.3-0.1
		c-0.4,0.3-0.6,0.6-0.7,1c-0.1,0.2,0.5,0.2,0.3,0c0.1-0.1,0.3,0.2,0.3,0.1c0.1,0.2-0.1,0.4-0.3,0.4c0,0.1,0.1,0.1,0.2,0.1
		c0.1,0.1,0.1,0.2,0.2,0.3c-0.2-0.5,0.5,0,0.2-0.3c0.2,0,0.2,0.1,0.4,0.3C115.6,34.2,115.1,34,114.6,33.5z M116.8,36
		c-0.4-0.2-0.4,0.2-0.8,0.2c0.3,0.5,0.5-0.2,0.7,0.3C116.8,36.3,116.7,36.1,116.8,36z M118.1,39.9c-0.5-0.2-1-0.6-1.5-0.4
		c0.2,0.2,0.2,0.4,0.1,0.5c0.1,0.1,0.2,0.2,0.3,0.4c0.2-0.1-0.1-0.3-0.1-0.4c0.1,0,0.2-0.1,0.3-0.2c0.1,0,0.2,0.1,0.3,0.1
		c0.2,0.2-0.2,0.2,0.1,0.5c0.3,0.2,0.1-0.5,0.4-0.1C118.1,40.2,117.9,40,118.1,39.9z M113.8,34.7c0.2,0.2,0.2,0.3,0.4,0.5
		c0.3-0.2-0.4-0.4-0.2-0.6C113.8,34.3,114,34.7,113.8,34.7z M114.1,35.6c-0.1-0.1-0.2-0.2-0.3-0.3l-0.2,0.2
		C113.8,35.5,114,35.8,114.1,35.6z M113.9,33.9c0,0,0.1-0.1,0.1-0.1c-0.3-0.4-0.3,0.4-0.6,0.2c0.1,0.3,0.5,0.1,0.7,0.3
		C114.2,34.2,114,34.1,113.9,33.9z M114.8,37.7c0,0.2,0,0.5-0.2,0.7c0.2,0,0.3-0.4,0.5-0.6C115,37.6,115,38,114.8,37.7z M113.7,34.9
		c-0.1,0-0.4-0.1-0.3-0.4c-0.2,0-0.5,1,0.1,0.8C113.1,35.1,113.5,34.9,113.7,34.9z M112.9,36.3c-0.2-0.1-0.2-0.3-0.5-0.5
		c-0.1,0.1-0.1,0.1-0.2,0.2c0.2,0.3,0.2,0.2,0.5,0.6C112.9,36.5,112.8,36.4,112.9,36.3z M101.9,29.2c0.2,0.1,0-0.3-0.2-0.4
		c0,0.1-0.1,0.1-0.2,0C101.4,29,101.9,29,101.9,29.2z M102.6,30.1c0.1-0.1,0.3,0,0.3-0.2c-0.2-0.2-0.4-0.1-0.6-0.3
		C102.2,29.8,102.5,30,102.6,30.1z M104.6,31c-0.2-0.2-0.3,0-0.5-0.3c0,0.2,0.4,0.4,0.4,0.5C104.6,31.2,104.5,31.1,104.6,31z
		 M105.2,30.8c0-0.2,0.1-0.1,0.2-0.2c-0.1-0.2-0.5-0.1-0.3,0.1C105.1,30.7,105.1,30.7,105.2,30.8z M101.2,29.1
		c0.1-0.2-0.2-0.3,0-0.5c-0.1,0-0.3-0.2-0.5-0.3c0,0.1,0.2,0.3,0.3,0.3c-0.3,0.1-0.5-0.2-0.8-0.3c-0.1,0.1,0.4,0.3,0.5,0.5
		C100.7,28.5,100.9,29.2,101.2,29.1z M104.2,30c-0.1-0.1-0.1,0.1-0.2,0c0,0,0.1,0.1,0.1,0.2c0,0-0.1,0-0.2,0
		c-0.1-0.2-0.3-0.4-0.5-0.4c-0.1,0.2,0.7,0.5,0.8,0.7c0,0-0.1,0-0.2-0.1c0,0.1,0,0.2,0.1,0.3c0-0.1,0.1,0,0.1,0
		C104.3,30.5,103.9,30.2,104.2,30z M135.2,62.5c0,0,0,0.1,0,0.1C135.2,62.5,135.2,62.4,135.2,62.5z M122.5,42.2c0,0.1,0,0.2,0.1,0.4
		c0.1,0,0.1,0,0.2,0C122.8,42.3,122.6,42.3,122.5,42.2z M130.2,57.8c0.1,0,0.2,0.4,0.3,0.3c-0.3-0.1-0.1-0.5-0.3-0.6
		C130.1,57.5,130.5,57.9,130.2,57.8z M135.2,62.9C135.2,62.9,135.2,62.9,135.2,62.9C135.2,62.9,135.2,62.9,135.2,62.9z M105,31.3
		c0-0.2,0.2,0.1,0.4,0.2c0.2-0.2-0.4-0.4-0.3-0.5c-0.2,0-0.4,0.1-0.4,0.3c0.3,0.2,0.6,0.3,0.4,0.5c0.2,0.2,0.2-0.1,0.4,0.2
		C105.6,31.7,105.2,31.4,105,31.3z M109.1,32.2C109.1,32.2,109.1,32.2,109.1,32.2C109.1,32.2,109.1,32.2,109.1,32.2
		C109.1,32.2,109.1,32.2,109.1,32.2z M109.1,32.2c0,0.1,0.1,0.1,0.2,0C109.2,32.3,109.2,32.2,109.1,32.2z M137.5,61.9
		c-0.3-0.2,0,0.7-0.3,0.7c0.1,0.1,0.2,0.1,0.1,0c0.2,0,0.3,0.1,0.4,0.3c0-0.1,0.2-0.2,0.3-0.2c-0.1-0.1-0.2-0.1-0.4-0.1
		C137.5,62.2,137.3,62,137.5,61.9z M133.9,62.8c0.1,0.3-0.3,0.2-0.4,0c-0.1,0.2,0.2,0.4,0.2,0.7c-0.1-0.1-0.1,0-0.2,0.1
		c-0.1-0.1,0-0.2,0-0.2c-0.1-0.1-0.2-0.1-0.2-0.2c-0.2,0.2,0.2,0.4,0.3,0.7c0-0.3,0.2-0.4,0.2-0.7c0.2,0.3,0.3,0,0.4-0.1
		C134.1,62.6,134.1,63.1,133.9,62.8z M133.3,60.1c-0.1,0-0.2,0-0.3-0.1c-0.1,0.1,0,0.3,0.1,0.5c0.1-0.7,0.5,0.2,0.7,0.6
		c-0.1-0.3-0.4-0.9-0.5-1.2C133.2,59.9,133.3,60,133.3,60.1z M132.4,56.3c0.2,0.3,0.5,0.6,0.7,0.9c0-0.3-0.2-0.7-0.4-1L132.4,56.3z
		 M135.5,61.4c0.1,0.2,0.2-0.1,0.2-0.1c0,0.2-0.1,0.3,0.1,0.6c0-0.3,0.3-0.1,0.1,0.1c0.1,0.3,0.1-0.3,0.2,0
		c-0.1-0.5-0.4-1.3-0.8-1.3C135.3,60.9,135.6,61.3,135.5,61.4z M132.3,56.2l0.1-0.1C132.4,56.1,132.3,56.2,132.3,56.2z M132.8,57.7
		c-0.1-0.1-0.1-0.2,0-0.2c-0.1-0.1-0.1,0-0.1,0c-0.1,0-0.2-0.4-0.3-0.5c0.2-0.1,0.3,0.3,0.4,0.3c0.1-0.1-0.1-0.2,0-0.2
		c-0.3-0.1-0.3-0.3-0.5-0.8c-0.1,0-0.1-0.1-0.1-0.2c0.2,0.6,0.1,0.7-0.1,1.1c0.1,0.2,0.2,0.2,0.2,0.3
		C132.2,56.9,132.6,57.9,132.8,57.7z M106.4,32.4c-0.1-0.2,0-0.1,0.1-0.4C106.1,31.8,106.1,32.5,106.4,32.4z M144.1,69.1
		c-0.2-0.3-0.3-0.5-0.5-0.8c0,0,0,0,0,0c0.1,0.4,0.1,0.3,0.2,0.7C143.9,69,144,69.2,144.1,69.1z M136.9,61.7
		c-0.2-0.1-0.2,0.1-0.1,0.4C136.9,62.1,137,62,136.9,61.7z M106.2,31.3c0.1,0,0.2,0.1,0.3,0c-0.2-0.2-0.4-0.1-0.5,0l0.2,0.2
		C106.2,31.4,106.2,31.4,106.2,31.3z M136.4,63.3c-0.1-0.2-0.3-0.3-0.4-0.5c0.2,0,0.3,0.4,0.4,0.1c-0.3-0.1-0.4-0.1-0.3-0.5
		c0,0.2-0.3,0-0.5,0c0,0.3,0.3,0.5,0.5,0.7c0.2,0.2,0.4,0.4,0.4,0.8C136.6,63.6,136.6,63.5,136.4,63.3z M138.1,63.4
		c-0.1-0.3-0.4,0-0.5-0.4c-0.1,0,0.1,0.4,0.2,0.3c0,0.1,0,0.2,0.1,0.4c-0.2,0-0.1-0.4-0.4-0.3c0.1,0.3,0.3,0.3,0.4,0.7
		c0.1,0,0.2-0.1,0.2-0.1C138,63.9,137.8,63.2,138.1,63.4z M92.4,21.3c0.3,0.1,0.3-0.1,0.2-0.3c-0.1-0.1-0.2,0-0.3-0.1
		c-1-0.7-0.3-0.2,0.1,0.2c-0.2,0-0.7-0.3-0.4,0.1c-0.4-0.1-0.1-0.2-0.3-0.4c0,0,0,0.2,0,0.2c-0.4-0.2-0.8-0.5-1.3-0.8
		c-0.5-0.3-1.1-0.7-1.7-0.9c0.4,0.3,0.9,0.7,1.5,1c0.6,0.3,1.2,0.6,1.7,1c0.1,0.1,0,0.2-0.1,0.2c0.3,0.4,0.9,0.5,1.2,0.5
		c0.2,0.2-0.2,0.1-0.1,0.2c0.3,0.3,0.3,0,0.6,0.2C93.2,21.9,92.8,21.6,92.4,21.3z M92.9,19.6c-0.3,0-0.6-0.3-1.1-0.5
		c0.1,0,0.2-0.2,0.5,0c0.1-0.1-0.5-0.3-0.4-0.4c-0.5,0-1.1-0.2-1.2,0.1c0.2,0.3,0.4,0.3,0.8,0.5c0.1-0.2-0.2-0.3-0.1-0.5
		c0.2,0.2,0.6,0.7,0.6,0.8c0.2,0.3,0.4,0,0.4-0.2C92.2,19.6,92.7,19.9,92.9,19.6z M93,20.4c0.3,0,0.7-0.1,0.9,0.2
		c0-0.2-0.6-0.9-0.9-0.7c0.2,0.2,0.2,0,0.5,0.2c0.1,0.1,0,0.2,0.2,0.3c-0.3-0.1-0.5-0.1-0.9-0.4C92.5,20.1,93.1,20.2,93,20.4z
		 M90.3,18.3c-0.2-0.1-0.1,0.3-0.1,0.4c0.1,0,0.2,0,0.3,0.1c0-0.1,0-0.2,0.1-0.1C90.7,18.5,90.3,18.4,90.3,18.3z M89.8,18.2
		c0.2,0.1,0.3,0,0.5,0C90.3,18,89.9,18.1,89.8,18.2z M90,18c0-0.1-0.4-0.3-0.6-0.4c0,0.1,0,0.2-0.1,0.1c0,0.1,0.1,0.1,0.1,0
		c0.1,0.1,0.1,0.2,0.1,0.3c0.1,0,0.2,0,0.3,0.1C89.8,18,89.8,17.9,90,18z M89.4,17.3c-0.1,0.1,0.4,0.2,0.2,0.3
		c0.5,0.1,0.8,0.5,1,0.2C90.3,17.8,90,17.6,89.4,17.3z M89.1,17.2c-0.2-0.1-0.3-0.2-0.5-0.2c-0.1,0.3,0.2,0.7,0.5,0.7
		C88.9,17.4,89.2,17.6,89.1,17.2z M89.3,15.9c-0.2,0-0.4-0.2-0.6-0.2C88.7,15.8,89.4,16.2,89.3,15.9z M88.3,15.6
		c-0.6-0.3-1.2-0.5-1.6-1.2c-0.2,0-0.5-0.3-0.5,0c0.8,0.5,1.1,0.9,1.9,1.4c-0.1-0.2,0.1-0.2,0.1,0C88.4,15.8,88.3,15.7,88.3,15.6z
		 M87.1,13.9c-0.2-0.1-0.3,0-0.3,0.1c0.2,0.1,0.6,0.4,0.3,0.3c0.2,0.2,0.6,0,0.8,0.4C88.3,14.5,86.9,14.2,87.1,13.9z M89.6,5.3
		c-0.3,0,0.2,0.3,0.5,0.5C90.3,5.6,89.6,5.4,89.6,5.3z M85.9,13.8c0,0.3-0.1,0.1-0.2,0.2c0.4,0.1,0.2,0.3,0.5,0.4
		c-0.1-0.2,0-0.1,0.1-0.2C85.9,14.1,86.2,14,85.9,13.8z M85.2,13.5c0-0.2,0.3,0.1,0.3-0.1c-0.2-0.1-0.3,0-0.6-0.2
		c-0.1,0.2,0.1,0.3,0.1,0.5c-0.2,0.1-0.1-0.3-0.2-0.5c-0.3-0.1,0,0.2-0.1,0.2c-0.1-0.1-0.3-0.2-0.2-0.4c-0.3-0.2-0.3,0.2-0.4-0.1
		c-0.3,0.1-0.1,0.7-0.1,1c0.1,0,0.2,0,0.3,0.1c0,0.1-0.1,0.1-0.2,0c0.3,0.2,0.3,0.5,0.8,0.8c0-0.1-0.2-0.3-0.4-0.4
		c0.7,0-0.6-1,0.2-0.8c0.3,0.2-0.3,0.3,0.3,0.5c0.1-0.1-0.1-0.2-0.1-0.3c0.5,0.4,1,0.9,1.8,1.5c-0.4-0.4-0.9-1.2-1.6-1.4
		c-0.1-0.1,0-0.1,0-0.2c0-0.1,0.3,0.1,0.5,0.2C85.8,13.6,85.4,13.5,85.2,13.5z M85.7,8.3c-0.2,0-0.3-0.1-0.2-0.2
		c-0.5,0,0.1,0.2,0,0.4C85.7,8.6,85.8,8.4,85.7,8.3z M85.6,7.8c-0.1,0-0.2-0.1-0.3-0.1c0,0.1-0.1,0.2-0.1,0.2
		C85.3,7.9,85.6,8.1,85.6,7.8z M84.4,8.7c0.2,0,0.6,0.2,0.4,0.4c0.5,0,0.3-0.5,0.3-0.8C84.9,8.5,84.6,8.6,84.4,8.7z M83.9,9.8
		c0,0.1,0.1,0.3,0.1,0.4c0.2,0.1,0.2,0,0.5,0.2c0.1-0.1,0.1-0.2,0.1-0.3c-0.1,0-0.2,0-0.3,0C84,10,84,9.9,83.9,9.8z M83.6,10.9
		c0,0.2,0.1,0.4,0.3,0.7c0-0.1-0.1-0.5,0.3-0.3c0-0.1,0-0.1,0-0.2C83.9,10.9,83.9,10.9,83.6,10.9z M85,16.6c0.3,0.2,0.4,0.4,0.8,0.6
		c0-0.1-0.2-0.2,0-0.4c-0.4-0.2-0.4-0.5-0.7-0.5C84.9,16.4,85.2,16.7,85,16.6z M87.1,16.2c-0.1,0.1,0.1,0.4,0.5,0.6
		c0.3,0.3,0.8,0.6,1.1,0.7c0.1-0.2-0.6-0.4-0.2-0.5c-0.2-0.2-0.4-0.3-0.8-0.6c0.2,0.3,0,0.1-0.3,0.1c-0.2-0.1,0.2-0.1,0-0.3
		C87.4,16.3,87.2,16.2,87.1,16.2C87,16.2,87.1,16.2,87.1,16.2z M94.7,21.2c0-0.1,0.1-0.1,0.1-0.2c-0.1-0.2-0.5-0.4-0.7-0.5
		c0,0.1,0,0.2-0.1,0.1C94,20.8,94.5,21,94.7,21.2z M96.5,22.2c0-0.2-0.8-0.3-0.7-0.7c-0.1,0-0.2,0-0.3,0c-0.1-0.1,0.1-0.2-0.2-0.4
		c0,0.1,0,0.1,0,0.2c-0.1-0.1-0.1-0.3-0.3-0.3C95.4,21.8,95.9,22,96.5,22.2z M97.1,23.1c0.4-0.1,0.2,0.3,0.7,0.6
		c0.2,0.1-0.6-0.7,0.1-0.3c-0.1-0.2-0.6-0.5-0.7-0.7c0,0.1-0.1,0.1-0.2,0C96.9,22.9,97.2,23,97.1,23.1z M97.9,21.2
		c0,0.1,0,0.2-0.1,0.3c0.1,0.1,0.2,0.2,0.3,0.2c0-0.1-0.1-0.2-0.1-0.3c0.1,0,0.1,0.1,0.2,0.1C98.4,21.4,98,21.3,97.9,21.2z
		 M98.6,24.8c0,0.1-0.1,0.1-0.3,0c-0.3,0,0.5,0.2,0.2,0.3c0.2,0.1,0.3,0,0.3-0.1c-0.2-0.1-0.2-0.3-0.4-0.4c0.1-0.1,0.4,0,0.5,0
		c0-0.1-0.2-0.2-0.2-0.3c-0.1-0.1-0.1,0,0,0.1c-0.2,0.1-0.3-0.3-0.5-0.3c0,0.1,0.1,0.2,0,0.3c-0.3-0.2-0.5-0.3-0.7-0.4
		C97.8,24.2,98.2,24.5,98.6,24.8z M99.3,24.9c-0.1,0-0.1,0.1-0.1,0.1c0.1,0,0.4,0.2,0.5,0c-0.2,0-0.2-0.2-0.5-0.4
		C99.1,24.6,99,24.9,99.3,24.9z M99.6,26.8c-0.1-0.1-0.1-0.1-0.1-0.2c-0.2-0.1-0.3,0.1-0.5,0C99,26.7,99.5,26.9,99.6,26.8z
		 M100.2,27.6c-0.1-0.2,0-0.3,0.3,0c0.2-0.3-0.1-0.4-0.4-0.6c0.2,0.4-0.2,0.1-0.6-0.1C99.3,27.2,100,27.4,100.2,27.6z M101.1,26.7
		c-0.3,0-0.4-0.4-0.4-0.6c0-0.1,0.3,0.2,0.2,0.3c0.1,0,0.3,0.2,0.3,0c-0.1-0.1-0.1,0-0.1,0c-0.1-0.1,0-0.1,0-0.2
		c-0.3-0.1-0.3-0.1-0.6-0.3c0.1,0.2,0.4,0.8-0.3,0.3c0.1,0.2,0.2,0.4,0.4,0.6C100.6,26.4,100.9,26.9,101.1,26.7z M99.7,26.5
		c0,0.2,0.4,0.2,0.6,0.4c0.1-0.1-0.1-0.3-0.3-0.4C100.1,26.5,99.9,26.7,99.7,26.5z M100.5,24.6c-0.3-0.2,0.1,0.4-0.2,0.2
		c0.1,0.3,0.4,0.1,0.5,0.1C100.8,24.8,100.5,24.8,100.5,24.6z M102.6,26.9c0.1-0.1,0-0.1-0.1-0.2c0.1,0,0.2,0.1,0.3,0l-0.5-0.4
		C102.2,26.5,102.4,26.7,102.6,26.9z M103,28.5c0.2,0.2,0.3,0.2,0.4,0.3c0-0.1-0.1-0.3-0.4-0.5C103.1,28.4,103.1,28.4,103,28.5z
		 M104.5,28.1c0.1-0.1,0-0.3,0.2-0.2c0.1,0.2,0.1,0.4,0.5,0.5c-0.2-0.2-0.2-0.4-0.4-0.6C104.6,27.8,104.1,27.7,104.5,28.1z
		 M104.7,29.1c-0.1-0.2,0.1-0.1,0.3,0.1c-0.1-0.4-0.5-0.3-0.7-0.4C104.3,29.1,104.6,28.9,104.7,29.1z M104.9,29.3
		c-0.3-0.3-0.3,0.1-0.5-0.1C104.3,29.4,104.8,29.4,104.9,29.3z M104.7,29.9c0-0.1,0.1-0.1,0.2,0c0-0.1-0.1-0.2,0-0.2
		c-0.1-0.2-0.5-0.2-0.7-0.2C104.4,29.5,104.5,29.7,104.7,29.9z M105.9,29.4c0.1-0.1,0-0.3-0.1-0.4c0,0.1,0,0.2-0.1,0.3
		C105.7,29.3,105.8,29.3,105.9,29.4z M106.3,29.8c0-0.3,1.1,0.5,0.8,0.9c0.3,0.2,0.5,0.2,0.4,0.5c0.1,0,0.4,0.1,0.3,0.3
		c0.1,0,0.2,0,0.3,0c0.2,0.1,0.1,0.2,0.3,0.4c0,0.1-0.1,0-0.1,0c0.1,0.3,0.3-0.1-0.1-0.3c0.2-0.1,0.3,0,0.5-0.1
		c0.2-0.1-0.1-0.3,0.1-0.4c-0.2-0.1-0.1-0.2-0.3-0.4c-0.2,0.2-0.2,0.2-0.3-0.1c-0.1,0.1,0.2,0.4,0.2,0.5c-0.1-0.2-0.5-0.1-0.7,0
		c0-0.2-0.2-0.5,0-0.7c-0.2-0.1-0.2,0.2-0.4,0c-0.2-0.3,0.6,0.1,0.1-0.3c0.1-0.3,0.4,0.1,0.5,0c-0.5-0.3-0.7-0.4-1-0.3
		c-0.1-0.1,0-0.5,0.2-0.3c-0.2-0.4-0.6,0.1-0.3,0.4c-0.2,0.1-0.3-0.2-0.6-0.4C106,29.4,106.1,29.6,106.3,29.8z M106.8,30.7
		c-0.1-0.2-0.2-0.2-0.4-0.3C106.3,30.5,106.8,31,106.8,30.7z M108,32.3c0-0.2-0.4-0.3-0.5-0.4c0.1-0.3,0.4,0.1,0.5-0.1
		c-0.3-0.3-0.7,0.1-0.8-0.4c0.2-0.1,0.2,0,0.3,0.2c0.1-0.3-0.3-0.3-0.5-0.5c0.2,0.3,0,0.1-0.2,0.2C107.2,31.7,107.4,32.1,108,32.3z
		 M109.3,31.5c-0.1-0.4,0.4-0.4,0.6-0.1c-0.1-0.5-0.5-0.5-1-1c0,0,0.1,0.1,0.1,0.2C108.7,30.6,108.7,31.2,109.3,31.5z M108.5,30.1
		c-0.1,0-0.2-0.1-0.3-0.2c-0.1,0.2,0,0.4,0.3,0.6C108.8,30.4,108.3,30.2,108.5,30.1z M110.5,29.9c-0.1-0.2-0.2-0.4,0.1-0.4
		c-0.2-0.1-0.4-0.5-0.5-0.3c0-0.2-0.4-0.6,0-0.6c-0.5-0.4-0.6-0.4-1.1-0.8c0,0.2,0.4,0.4,0.4,0.6c0.2,0.2,0.2-0.1,0.4,0.1
		c0,0.2,0.1,0.4,0.2,0.6c-0.1,0.1-0.3-0.3-0.3-0.1c-0.1-0.1-0.3-0.2-0.3-0.3c-0.3-0.2,0,0.2,0,0.3c-0.1,0.1-0.2,0-0.3,0.2
		c-0.1-0.1-0.2-0.2-0.2-0.2c-0.2,0.1,0.2,0.4,0.6,0.7c-0.4-0.2-0.1,0.1,0.1,0.3c-0.2,0-0.3-0.1-0.5-0.3c-0.1,0.3,0.4,0.8,0.7,1
		c0-0.1,0-0.1,0.1-0.2c-0.1-0.1-0.2-0.1-0.3-0.2c0.1-0.1,0.1-0.2,0.1-0.3c0.3,0.2,0.7-0.3,0.2-0.6c0.1,0,0.2,0,0.4,0.1
		C110.3,29.5,110.1,29.6,110.5,29.9z M108.3,27.2c-0.1,0.1,0.3,0.3,0.2,0.4c0.1,0.1,0.2,0,0.3-0.1C108.6,27.4,108.5,27.4,108.3,27.2
		z M110.9,29.8c0,0.2,0.1,0,0-0.1c0,0,0.1,0,0.2,0.1c0.1-0.1,0.1-0.2,0.1-0.3c-0.1-0.1-0.2-0.1-0.3-0.2
		C110.7,29.4,110.8,29.6,110.9,29.8z M115.4,32.3c0.1-0.1,0-0.1,0.1-0.2c0,0.3,0.4,0.4,0.4,0.2c0.1,0.4,0.5,0.9,0.9,0.8
		c-0.2-0.2-0.3-0.3-0.3-0.1c-0.2-0.2-0.1-0.3-0.1-0.5c-0.3,0-0.1-0.1-0.5-0.4l-0.2,0.2c0-0.1-0.2-0.3,0-0.4
		c-0.2-0.2-0.3-0.2-0.6-0.5c0.1,0.4-0.4,0-0.5-0.3C114.3,31.4,115.4,32.1,115.4,32.3z M116.4,32.1c0,0.1,0.2,0.2,0.1,0.3
		c-0.1,0.1-0.2-0.4-0.3-0.1c-0.3-0.5-0.7-0.7-1.4-1.2c0,0.2,0.4,0.6,0.9,0.9c0.4,0.3,0.9,0.7,1.2,0.8
		C116.5,32.5,116.8,32.4,116.4,32.1z M117.4,34c0.1-0.1,0.2,0,0.3-0.1c-0.1-0.3-0.4-0.3-0.6-0.4C117,33.6,117.3,33.8,117.4,34z
		 M117.8,35.2c0.1,0,0.1,0.1,0.2,0.1c0.1-0.2,0-0.2-0.2-0.3l-0.2,0.2C117.7,35.4,117.8,35.4,117.8,35.2z M119.5,39.1
		c0.2,0,0.7,0,0.6,0c0.3,0.2,0.1-0.3,0.2-0.4c-0.2-0.2-0.3-0.1-0.5-0.4c-0.3,0.3-0.6,0.1-1,0C118.9,38.8,119.5,38.6,119.5,39.1z
		 M120.7,38.3c-0.2-0.3-0.3-0.2-0.4-0.4c-0.1,0.1,0,0.3,0.1,0.5C120.5,38.4,120.6,38.4,120.7,38.3z M121,37.8
		c-0.2-0.2-0.4-0.4-0.6-0.3c0.1,0.3,0.5,0.2,0.3,0.4C120.8,38.1,120.9,37.8,121,37.8z M120.6,39.1c0.1,0.1,0.2,0.2,0.3,0.3
		c0.2,0.2,0.1-0.2,0.1-0.2c-0.2-0.2-0.3-0.4-0.4-0.4C120.4,38.9,120.5,39,120.6,39.1z M120.4,40.2c0.2,0.2,0.4,0,0.6,0.3
		c0.2,0.4,0,0.6-0.1,0.8c0.1,0.2,0.3,0.2,0.4,0.4c0.2,0,0-0.2,0.2-0.3c-0.1-0.2-0.2-0.2-0.3-0.1c-0.2-0.3,0.3-0.5,0.2-0.8
		C121.1,40.1,120.5,39.8,120.4,40.2z M120.3,41.3c-0.2,0.1-0.4,0-0.6,0.1c0.2,0.2,0.3,0.6-0.1,0.7c0.5,0.1,0.9,0.2,1.5,0.7l0.2-0.2
		c-0.3-0.3-0.7-0.5-0.8-0.5c0-0.1,0.1-0.4-0.2-0.5c0.4-0.1,1,0.6,1.1,0.2C121,41.6,120.7,41.8,120.3,41.3z M119.8,42.9
		c0.2-0.1,0.1-0.2,0.1-0.3c-0.1,0-0.3,0-0.4-0.3c-0.1,0.1-0.1,0.1-0.2,0C119.2,42.5,119.6,42.7,119.8,42.9z M120.5,43.6
		c-0.1-0.1-0.3-0.3-0.4-0.2C120.1,43.6,120.4,43.8,120.5,43.6z M121.4,43.2c0.2-0.4,0.1,0.1,0.3,0.4c0,0,0.1-0.1,0.2-0.1
		c0.3,0.3,0.1,0.5,0.4,0.7c0.1-0.1,0-0.3,0-0.5c-0.4-0.3-0.7-1-1.1-0.8L121.4,43.2z M123.3,44.5c0.1-0.2,0.3,0,0.4-0.2
		c-0.3-0.4-0.9-0.7-1.3-1.4c-0.1,0.1-0.1,0-0.2-0.1c-0.2,0.1,0.3,0.2-0.1,0.2c-0.1-0.1-0.1-0.2-0.1-0.3c0.3,0,0.4-0.1,0.5-0.1
		c0.3,0.3,0.4,0.7,0.7,0.6c0.1,0.4,0.3,0.5,0.6,1c-0.1-0.5-0.3-0.8-0.5-1.1l0.2-0.1c0.2,0.2,0,0.3,0.2,0.5c0.1-0.1,0.3-0.2,0-0.3
		c0.1-0.1,0.1,0,0.2,0c0.2,0.2,0.1,0.4,0.4,0.6c0.1-0.3,0.2-0.4-0.1-0.9c-0.1,0,0,0.2,0.1,0.3c-0.3,0-0.2-0.2-0.5-0.5
		c-0.4,0.1-0.6-0.3-1-0.3c-0.1-0.2,0.1-0.2-0.1-0.4c-0.1,0.1,0.1,0.3-0.1,0.3c0-0.1-0.1-0.1-0.1-0.2c-0.1-0.1,0.1-0.2,0.1-0.2
		c-0.2-0.4-0.6-0.5-0.9-1c0,0,0,0.1,0.1,0.2c-0.3,0-0.3,0-0.3,0.3c0.1,0,0.4,0.3,0.4,0.5c-0.2,0.1-0.4,0.4-0.3,0.7
		c-0.2-0.1-0.4-0.2-0.6-0.4c0.3,0.6,1.1,1.4,1.8,1.5c0,0.1,0.1,0.1,0.2,0.2c-0.1,0.1-0.2-0.1-0.3,0.1
		C122.9,44.1,123.1,44.3,123.3,44.5z M124,44.7c0-0.2-0.2-0.4-0.4-0.2C123.8,44.6,123.9,44.8,124,44.7z M124.1,44.6
		c0.3,0.2,0.2-0.4-0.1-0.4C123.9,44.3,124.2,44.5,124.1,44.6z M125,44.5c0.2,0.2,0.1,0.2,0.3,0.5c0.2-0.1,0.4,0.3,0.5,0.1
		c0-0.4-0.7-0.4-0.6-0.7c-0.2,0-0.2,0.1-0.4-0.3c-0.4,0.4-0.6-0.7-1-0.4c0.1,0.4,0.4,0.7,0.6,0.9C124.7,44.6,124.9,44.6,125,44.5z
		 M125.5,46c-0.1-0.1-0.2-0.2-0.1-0.3c-0.1,0-0.3-0.4-0.4-0.2C125.3,45.7,125.2,46,125.5,46z M124.1,42.2c0,0.3,0.3,0.5,0.5,0.7
		C124.6,42.6,124.2,42.5,124.1,42.2z M123.9,41.4c0.2,0.4,0.3,0.1,0.5,0.3C124.4,41.4,124,41.3,123.9,41.4z M123.7,41.7
		c0-0.1-0.1-0.1-0.1-0.2c0,0.3-0.1,0.2-0.3,0c0,0.2,0.3,0.2,0.3,0.5c0.2,0-0.1-0.4,0.1-0.2C123.7,41.8,123.7,41.8,123.7,41.7z
		 M123.9,40.9c-0.4-0.2-0.3-0.4-0.6-0.7c-0.2,0.1,0,0.3,0.1,0.4c-0.1,0-0.3-0.2-0.5-0.4c0,0.5-0.5,0.2-0.9-0.2
		c-0.1,0.1,0.1,0.4,0.3,0.4c-0.1,0.2-0.2-0.2-0.3,0c0.2,0.4,0.4,0.2,0.6,0.4c0.1-0.1,0-0.3,0.1-0.4c0.2,0.1,0.2,0.3,0.2,0.5
		c0.2,0.1,0.4-0.2,0.7,0.3c0.2-0.1,0.1-0.4,0.3,0C123.9,41.1,123.8,41,123.9,40.9z M122.3,39c0,0.3-0.4-0.4-0.7-0.2
		c0.2,0.4,0.3,0.3,0.5,0.7c0.1-0.2,0.4-0.1,0.3,0.1c0.2,0.2,0-0.2,0.2-0.2C122.4,39.3,122.5,39.2,122.3,39z M121.3,39.9
		c0.2,0.1,0.4,0.4,0.6,0.4c0.1-0.1-0.3-0.3,0-0.4c-0.2-0.2-0.4-0.4-0.6-0.6C121.1,39.6,121.5,39.9,121.3,39.9z M119.5,37.2
		c-0.2,0.1,0,0.2-0.2,0.3C119.5,37.6,119.8,37.5,119.5,37.2z M126.2,48.5c0.1-0.2,0.1-0.4,0-0.7c-0.2,0-0.1,0.4-0.3,0.2
		C125.9,48.2,126.2,48.2,126.2,48.5z M126.7,47.5c-0.1-0.3-0.2-0.1-0.3-0.3c-0.1,0.1,0.2,0.3,0.2,0.5
		C126.6,47.6,126.6,47.6,126.7,47.5z M127.1,47.4c-0.1-0.1-0.1-0.2-0.2-0.3c-0.5,0-0.2,0.1,0,0.5C127,47.4,127,47.4,127.1,47.4z
		 M126.9,48.9c0.1,0.2,0.2-0.1,0.2-0.1c-0.2-0.1-0.4-0.5-0.6-0.3C126.7,48.7,127.1,48.6,126.9,48.9z M127.7,47.6
		c0.1,0,0.2,0,0.3,0.1c0.1-0.2-0.4-0.3-0.3-0.4C127.5,47.1,127.5,47.4,127.7,47.6z M127.3,49.3c0.1,0,0,0.1,0.2,0.3
		c0-0.1,0-0.1,0.1-0.2c-0.1-0.1-0.1-0.2-0.2-0.3C127.3,49.1,127.3,49.2,127.3,49.3C127.3,49.4,127.3,49.3,127.3,49.3z M127.5,51.9
		c0.4,0.4,0.5,0.5,0.9,0.9c-0.1,0.3,0,0.5,0.3,0.9c0.1-0.1,0.1-0.6,0.4-0.2c0-0.2-0.2-0.7-0.4-0.5c0-0.1,0.1-0.2,0-0.3l-0.2,0.1
		c0-0.1,0-0.2,0-0.2c-0.1-0.1-0.1,0-0.2,0c-0.3-0.4-0.4-0.4-0.4-0.8C127.6,51.9,127.5,51.7,127.5,51.9z M127,52.6
		c-0.1,0.2-0.2,0.3-0.3,0.5c0.4,0.2,0.2-0.4,0.6-0.1C127.2,52.7,127.1,52.9,127,52.6z M126.3,54.2c-0.1,0-0.2,0.1-0.1,0.3
		c0,0-0.1,0-0.1-0.1c-0.1,0.1,0.3,0.2,0.4,0.1C126.4,54.4,126.4,54.3,126.3,54.2z M127,54.6c-0.4-0.4-0.5,0.6,0,0.7
		C127,55.1,126.8,54.7,127,54.6z M126.6,56.1c0.2,0-0.2-0.4,0.1-0.4c0,0.5,0.2,0.7,0.4,1.2c0.2,0,0.6,0.1,0.3-0.3
		c-0.2,0.1,0,0.2-0.2,0.1c0-0.2,0-0.3-0.1-0.5c0.1,0,0.3,0.1,0.4,0.1c0,0.1-0.1,0.2,0,0.3c0.1-0.1,0.1-0.2,0.3-0.3
		c0-0.1-0.3-0.4-0.2-0.5c-0.2-0.1-1.3-0.2-1-0.6c-0.1-0.1-0.3,0-0.4,0c-0.1-0.2,0.2-0.2,0.2-0.3c-0.2-0.3-0.4-0.3-0.7-0.3
		C126,55.3,126.2,55.8,126.6,56.1z M128.5,54.5c0.1,0.2,0.1,0.4,0.1,0.5c0.2,0-0.1-0.4,0.1-0.4c-0.2-0.3-0.4-0.6-0.6-0.6
		C128.4,54.1,128.4,54.3,128.5,54.5z M128.6,56c-0.1-0.2-0.1-0.5-0.3-0.4C128.4,55.8,128.5,56.2,128.6,56z M129.3,54.6
		c0.2,0.2,0.3,0.6,0.5,0.5c-0.1-0.2-0.2-0.2-0.3-0.5c0.1-0.1,0.1-0.3,0.1-0.4c0.3,0.1,0.3-0.1,0.5-0.1c0-0.1,0-0.2,0-0.2
		c-0.2-0.1-0.3-0.5-0.3-0.1c-0.2-0.3-0.3-0.4-0.5-0.5c0,0.1,0,0.2,0,0.4c0.1,0,0.2,0,0.3,0.2c-0.1,0.2-0.2-0.1-0.3-0.1
		C129.4,54.3,129.3,54.3,129.3,54.6z M129.5,55.8c0-0.2,0.2-0.4,0.2-0.1c0.3,0.2-0.1-0.2,0-0.3c-0.1-0.1-0.1,0-0.1,0
		c-0.1,0.1-0.3,0-0.4-0.2C128.9,55.3,129.3,55.5,129.5,55.8z M130.3,56c0-0.2-0.1-0.5-0.3-0.6C129.9,55.5,130.3,55.8,130.3,56z
		 M130.2,51.8c-0.2,0.2-0.3-0.3-0.4-0.1c0.1,0,0.2,0.2,0.1,0.3c0.1,0.2,0.2-0.1,0.3,0.1c-0.1,0.2,0.2,0.2,0.1,0.4
		C130.7,52.5,130.4,52,130.2,51.8z M129.4,51.1c0.3,0.2,0.5,0.4,0.8,0.5C129.8,51.2,129.8,51,129.4,51.1z M129.1,53.8
		c-0.1-0.1-0.3-0.3-0.3-0.1c0.1,0.1,0.1,0,0.2,0c0,0.1-0.1,0.2,0,0.3C129.1,54,128.9,53.8,129.1,53.8z M129.8,52.6
		c-0.1-0.1-0.1,0-0.2,0c0-0.1,0-0.1,0.1-0.1c-0.1-0.1-0.1-0.1-0.2-0.1l-0.1,0.1C129.6,52.6,129.8,52.8,129.8,52.6z M129.6,53
		c0.1,0.4,0.5,0.2,0.2-0.1C129.6,52.8,129.8,52.9,129.6,53z M128.5,52.4c0.2,0.4,0.4,0.3,0.6,0.6c-0.1,0.2-0.2-0.4-0.4-0.1
		c0.1,0.3,0.2,0.2,0.3,0.4c0.2-0.1-0.1-0.5,0.2-0.6c-0.2-0.4-0.3-0.1-0.3-0.5C128.9,52.4,128.7,52.3,128.5,52.4z M128.2,52
		c0,0,0.1,0,0.1-0.1c0.1,0.2,0,0.2,0.1,0.4c0.1-0.1,0.2-0.2,0.3-0.4C128.4,51.5,128.2,51.9,128.2,52z M128.9,50.2
		c0.2,0.2,0.1,0.3,0.4,0.5C129.4,50.6,129,50.1,128.9,50.2z M126.9,50.5c-0.2,0.2,0.3,0.3,0.2,0.5c0.1,0.1,0.2,0,0.3,0
		C127.2,50.7,127,50.8,126.9,50.5z M125.7,52.1c-0.2-0.3-0.1,0.1-0.4,0c0.2,0.3,0,0.3,0.2,0.6C125.7,52.5,125.4,52.2,125.7,52.1z
		 M132.2,52.4c0.1-0.1,0.2,0.1,0.3-0.1c-0.3-0.1-0.6-0.8-0.9-0.8C131.8,51.6,132,52.1,132.2,52.4z M133,54.3
		C133,54.3,132.9,54.3,133,54.3C132.9,54.3,133,54.3,133,54.3z M132.7,54.9c-0.1,0.3,0.2,0.6,0.4,0.9c0.1-0.2,0.2-0.5,0-0.7
		C133,55.7,133,55.2,132.7,54.9z M133.5,56.5c0.1-0.2,0-0.5-0.2-0.5c0-0.2,0.2-0.3,0.3-0.3c0-0.4-0.3-0.5-0.5-0.8
		c-0.1,0.3,0.3,0.2,0.4,0.6c0.1,0.3-0.2-0.2-0.3,0C133.3,55.8,133.2,56,133.5,56.5z M134.5,57.7c0.1,0,0.1-0.2,0.2-0.1
		c0.1-0.1-0.1-0.3-0.1-0.4c-0.2,0.3-0.3-0.6-0.7-0.7C134.1,57.1,134,57.3,134.5,57.7z M134.9,58.3c-0.1-0.2-0.2-0.3-0.1-0.5
		C134.4,57.5,134.6,58.5,134.9,58.3z M134.3,58.3c0.2,0.4,0.3,0.6,0.5,0.8C134.9,58.8,134.5,58.3,134.3,58.3z M135.7,59.9
		c-0.1-0.4-0.6-0.9-0.8-1.4C135,58.9,135.5,59.7,135.7,59.9z M136.3,59.4C136.3,59.5,136.3,59.5,136.3,59.4l0.2,0l-0.2-0.4
		C136.1,59.1,136.4,59.3,136.3,59.4z M135.8,60.7c0.2,0.2,0.4,0.1,0.5,0.3c0-0.1,0-0.3,0.1-0.4c-0.1-0.3-0.2-0.2-0.4-0.4
		c-0.1,0.1,0.1,0.2,0.1,0.3c-0.2,0-0.3-0.1-0.4-0.2C135.7,60.4,135.9,60.7,135.8,60.7z M136.9,60.1c0.1-0.2-0.2-0.1-0.2-0.4
		c-0.1,0.1-0.2,0.2-0.3,0.3C136.7,60.3,136.7,59.8,136.9,60.1z M136.6,59.5c-0.1,0.2-0.3,0-0.2,0.4
		C136.6,59.8,136.7,59.8,136.6,59.5z M135.2,57.3c-0.1,0,0.1,0.3,0,0.4c0.1,0.1,0.2,0.3,0.4,0.2C135.5,57.4,135.3,57.4,135.2,57.3z
		 M134.5,55.6c-0.1,0.1,0.1,0.5,0.1,0.7c0.1-0.2,0.2,0.4,0.4,0.2C134.7,56.1,134.7,56.2,134.5,55.6z M133.9,54.5
		c0-0.3,0-0.2-0.1-0.5c-0.1,0.2,0.1,0.6,0.3,0.8C134.1,54.8,134,54.5,133.9,54.5z M133.5,54.5c0.2,0.3,0.2,0.3,0.3,0.5
		C133.9,55,133.6,54.3,133.5,54.5z M133.8,59.8c0,0.1,0.3,0.8,0.5,0.8C134.1,60.2,133.9,60.1,133.8,59.8z M95.6,24
		c0.1-0.1,0-0.2,0.1-0.3c0.2,0.1,0.4,0.4,0.5,0.3c-0.2-0.1-0.1-0.3-0.2-0.4c-0.2-0.2-0.2,0-0.4-0.2c0.1,0.3-0.4-0.1-0.5,0
		c0.1,0.1,0.2,0.1,0.3,0.1c-0.2,0.1-0.1,0.2-0.2,0.1c0-0.2-0.2-0.3-0.3-0.5c-0.5-0.2-1-0.5-1.4-0.6c0.2,0.1,0.4,0.3,0.4,0.4
		c-0.1,0.1-0.4-0.3-0.5-0.2c0.4,0.3,0.8,0.6,1,0.8c-0.3,0-0.8-0.3-1.2-0.6c-0.4-0.3-0.7-0.6-0.4-0.7c-0.7-0.7-1.5-0.8-2.2-1.3
		c-0.5-0.4-1.5-0.9-2-1.3c-0.5-0.3-0.6-0.7-1.1-1.2c-0.2-0.2-0.4-0.3-0.7-0.5c-0.2-0.2-0.4-0.3-0.5-0.5c-0.3-0.1-1.3-0.7-1.6-1
		c-0.1-0.6-0.2-2-1.4-2.6c-0.1-0.3-0.3-0.7-0.3-1c-0.3,0-0.5-0.3-0.7-0.4c0.1-0.5,1-0.2,0.7-0.8c0.5,0.2,1.2,0.1,0.9-0.2
		c0,0.1-0.2,0.1-0.4,0c0.3-0.2,0.1-0.5-0.1-0.7c0,0.1-0.1,0-0.1,0.1c0,0.1,0.1,0.2,0.3,0.3c-0.2,0.2-0.5,0.1-0.7,0.1
		c0.3-0.1,0.3-0.4,0.1-0.6c0.4,0.2,0.6-0.1,0.5-0.3c0.3,0.2,0.4,0.1,0.5,0.1c-0.1-0.1,0-0.2-0.2-0.4c-0.2-0.1-0.6,0-0.6-0.2
		c0.4-0.1,0.1-0.5,0.1-0.7c-0.1-0.1-0.2-0.1-0.3-0.1c0-0.1-0.1-0.3-0.1-0.4c0,0,0-0.1,0.1-0.1c0,0,0,0,0,0c0.1,0.4,0.2-0.1,0.5,0
		c-0.1,0.3,0.8,0.6,0.7,1c0-0.1,0.1,0,0.1-0.1c-0.5-0.5,0.4-0.7-0.5-1.1c0.8,0.1,0-0.8,0.6-0.8c-0.1,0.2-0.2,0.5,0.1,0.7
		c0-0.3-0.1-0.5,0.3-0.5c-0.2,0.1-0.3,0.2-0.1,0.4c0.2-0.3,0.1-0.6,0.3-0.9c-0.4-0.1-0.2-0.1-0.3-0.3c-0.1,0-0.2-0.1-0.3-0.1
		c0.1-0.1,0.2-0.2,0.3-0.3c0.2,0.1,0.3,0.2,0.4,0.3c0.1-0.2,0-0.4-0.1-0.5c0.1-0.1,0.3-0.2,0.4-0.3c2.1-1.4,4.8-1.6,7.3-1
		c0.1,0,0.1,0,0.2,0.1c0,0,0,0,0,0c0,0,0.1,0,0.1,0c0,0.1,0,0.2,0,0.4c0.7,0.4,1.2,0.8,1.6,0.8c0,0.3,0.6,0.5,0.8,0.5
		C95,6.8,95.6,7,95.6,6.8c0.3,0.5,0.7,0.6,1.1,0.3c-0.1,0.1-0.1,0.2,0.1,0.3c0.2-0.1,0.3-0.1,0.5-0.1c2.3,1.4,4.2,3.3,6.1,5.3
		c10.8,11.2,20.2,23.7,28,37.2c0.3,0.5,0.6,1,0.9,1.5c0,0.3,0.2,0.6,0.4,0.7c0,0,0,0,0-0.1c1.4,2.3,2.9,4.5,4.5,6.7
		c0,0.1,0,0.1,0.1,0.2c0,0,0,0,0,0c0.4,0.5,0.7,1.1,1.1,1.6c-0.1,0-0.2,0-0.4,0c0,0.3,0.4,0.5,0,0.5c0.3,0.2,0.5,0.6,0.7,1
		c0.2,0,0.1-0.3,0-0.5c-0.1,0-0.2,0-0.2-0.1c0-0.4,0.3,0.2,0.4,0c-0.2-0.3-0.4-0.4-0.6-0.5c-0.1-0.2,0.3,0,0.4,0.1
		c0,0.1,0.1,0.1,0.1,0c0.1,0.1,0.2,0.2,0.3,0.4c0,0.2,0.1,0.4-0.1,0.2c0.2,0.1,0.1,0.2,0.2,0.5c0.1-0.1,0.2,0.1,0.3,0
		c0,0.2,0.3,0.5,0.1,0.5c-0.2-0.3-0.1,0.2-0.1,0.2c-0.2-0.3-0.1-0.3-0.4-0.3c-0.1-0.5-0.4-0.3-0.6-0.6c-0.1,0.1-0.2,0.1-0.2,0.3
		c0.2,0.1,0.2,0.2,0.3,0.5c0.1-0.2,0.3,0.1,0.2,0.2c-0.2-0.1-0.1,0,0,0.2c0.1,0.2,0.2,0.4,0.1,0.4c-0.2-0.5-0.7-1.2-0.8-1.5
		c0.1,0.2,0.2,0,0.3,0c-0.4-0.3,0.3-0.1,0.2-0.4c-0.2-0.1-0.3-0.1-0.4,0c0-0.3,0-0.6-0.3-0.4c-0.2-0.3,0.1-0.2,0-0.5
		c-0.1,0-0.2-0.5-0.3-0.4c0.1,0.3,0.1,1.1-0.2,0.7c0.1,0,0.2-0.2,0.1-0.4c-0.1,0-0.2-0.1-0.2-0.1c0,0.3,0.1,0.1,0.2,0.3
		c0,0.4-0.4-0.5-0.4-0.1c0.2,0.3,0.5,0.4,0.7,0.8c-0.1,0-0.2,0.1-0.1,0.3c-0.4,0.1-0.5-0.2-0.7,0.2c0.1-0.1,0.2,0.1,0.1,0.2
		c-0.1-0.2-0.1,0.1-0.2,0.1c-0.1-0.3-0.6-0.6-0.4-0.8c0.1,0.1,0.1,0.4,0.2,0.4c0-0.5-0.6-0.5-0.8-1c0.1,0.1,0.1,0.2,0.2,0.3
		c-0.3,0-0.3-0.2-0.5-0.2c0.3,0.4,0.2,1,0.5,1.2c0.4,1.1-0.3-0.3-0.4-0.6c0-0.1,0-0.2-0.1-0.3c0,0-0.3-0.1-0.2,0.1
		c0.2,0.4,0.5,0.7,0.4,1.1c-0.1-0.8-0.2,0.2-0.4-0.3c0.1-0.2-0.4-1-0.5-1.1c0,0.4,0.2,0.7,0.4,1c0.2,0.3,0.3,0.5,0.4,0.8
		c0,0.1,0,0.4,0,0.4c-0.2-0.4-0.2-0.5-0.5-0.7c0.2-0.3-0.4-0.6-0.6-0.7c0.2-0.1,0.3,0.1,0.4,0c-0.3-0.5-0.6-0.4-1.1-1.1
		c0-0.3,0.2,0.2,0.4,0.1c-0.2-0.6-0.4-0.6-0.5-0.5c0.1-0.2,0-0.5,0-0.8c-0.3-0.1-0.3-0.4-0.3-0.6c-0.1,0,0,0.1-0.1,0.1
		c0-0.3-0.4-0.4-0.3-0.5c0.1,0.2,0-0.1,0.1-0.1c0.2,0.1,0.3,0.1,0.3-0.1c0,0.1,0.1,0.1,0.1,0.1c0,0.1,0.1,0.1,0.1,0.2
		c-0.1,0.2-0.4,0.2-0.4,0.3c0.1,0.1,0.5,0,0.4,0.4c0-0.1-0.1-0.2-0.1-0.2c0.3,0.8,0.5-0.4,0.5,0.3c-0.3-0.1,0.1,1.1,0.3,1.1
		c0-0.2,0.1-0.4,0.3,0c-0.1,0.1-0.3-0.2-0.2,0.1c0.2,0.1,0.3,0.5,0.5,0.7c0,0,0.1,0,0.1,0c-0.1-0.3-0.2-0.3-0.3-0.6
		c0.2,0.1,0.4,0.4,0.6,0.1c-0.3,0-0.3-0.1-0.3-0.4c-0.1,0.1-0.2-0.1-0.4,0.1c-0.1-0.3-0.3-0.3-0.4-0.6c0.2,0-0.1-0.3,0.1-0.3
		c0.1,0.6,0.1-0.1,0.3,0.1c0.2,0.5,0.5,0.7,0.9,1.3c0-0.5-0.5-0.6-0.2-0.7c-0.2-0.2-0.2,0.3-0.3-0.1c0.2-0.4-0.6-0.4-0.4-0.8
		c-0.3-0.2-0.2-0.2-0.3,0c0-0.2-0.3-0.3-0.2-0.5c0,0.1,0.3,0.2,0.2,0c-0.1-0.3-0.3-0.4-0.4-0.6c0.3,0.1,0.1-0.3,0.3-0.2
		c0.2,0.4,0.1,0.4,0.2,0.7c0.3,0.1,0-0.5,0.3,0c-0.2-0.6-0.5-0.5-0.5-1c-0.1,0-0.2-0.1-0.3-0.1c-0.1-0.4-0.2-0.8-0.6-1.2
		c0.1,0.4,0.2,0.7,0.5,0.8c-0.1,0.1-0.2-0.1-0.2,0.1c0.1,0.4,0.4,0.4,0.4,0.7c-0.3,0.1-0.3-0.5-0.6-0.6c0.2,0,0-0.2,0-0.4
		c-0.3-0.1-0.5-0.6-0.7-0.8c0.1-0.1,0.2,0.1,0.2-0.1c-0.2-0.2-0.2,0.1-0.5-0.2c0,0.1,0.1,0.2,0.1,0.3c-0.2,0.1-0.4-0.1-0.6-0.3
		c0.3,0,0.6-0.1,0.8-0.2c0.2,0.1,0,0.3,0.2,0.3c-0.1-0.3-0.2-0.5-0.2-0.8c0.1,0.1,0.1,0.1,0.2,0c-0.1-0.2-0.1-0.3,0-0.5
		c-0.4-0.4,0-0.6-0.4-0.5c0.1,0.2,0.2,0.6,0,0.3c0.1-0.1-0.3-0.4-0.4-0.3c0.1,0.2,0.2,0.3,0.2,0.5c0.1,0.1,0.2,0.2,0.3,0.3
		c-0.1,0.2-0.2-0.3-0.4-0.2c-0.1,0.2,0.3,0.2,0,0.3c-0.1,0-0.1-0.1-0.1-0.3c-0.1,0-0.1,0-0.2,0l0.2,0.4c-0.3,0.1-0.3-0.5-0.3-0.7
		c-0.3-0.2-0.6-0.7-0.9-1c0.3-0.4,0.6,0.5,0.9,0.5c0.1,0.2,0.1,0.4,0.2,0.6c0.1-0.1,0.2-0.1,0.3,0c-0.3-0.4-0.3-0.6-0.4-0.8
		c0.2,0.2,0.1-0.5-0.1-0.4c-0.2,0,0.3,0.6,0,0.3c-0.2-0.4-0.4-0.4-0.6-0.5c0.2,0.2,0,0.4-0.1,0.2c0.2-0.3-0.1,0-0.3-0.3
		c0.2-0.2,0.4,0,0.3-0.3c-0.3-0.2-0.4,0.2-0.6,0.2c0.2,0.2,0.3,0.1,0.5,0.4c-0.2,0-0.3,0-0.2,0.2c0.4,0.3,0.2,0.6,0.4,0.8
		c0.1,0,0.1-0.1,0.2-0.1c0.1,0.3,0.3,0.7,0.5,0.9c-0.3,0.1-0.5-0.5-0.7-0.5c-0.1,0.3,0.5,0.8,0.4,0.8c-0.4-0.3-1-1.1-1.2-1.3
		c-0.1,0-0.1,0-0.2,0c0.1,0.3,0.3,0.4,0.3,0.6c-0.1-0.1-0.3-0.4-0.3-0.2c0,0,0.1,0,0.1,0.1c0.1,0.3-0.2,0.3,0.2,0.7
		c0.1,0,0.2-0.3,0.3-0.1c0,0.2-0.3,0.1-0.3,0.3c0.2,0.1,0.7,1.1,0.6,0.5c0,0.1,0.1,0.1,0.1,0.2c0,0,0.1,0,0.1,0.1
		c-0.2,0-0.1,0.7-0.2,0.3c-0.2-0.4-0.5-0.8-0.8-0.8c0.1,0.1,0,0.2,0,0.3c0.3-0.1,0,0.4,0.3,0.4c-0.3,0-0.3,0.2-0.5,0.1
		c0-0.1,0.1-0.2,0.1-0.3c-0.1-0.1-0.2-0.3-0.4-0.2c0.3,0.4-0.1,0-0.2-0.1c0,0.2,0.2,0.2,0.3,0.4c-0.2,0.1-0.1,0.3-0.2,0.4
		c-0.2-0.3-0.4-0.3-0.5-0.1c-0.2-0.3-0.3-0.5-0.5-0.5c0.1,0.1,0.1,0.2,0.1,0.3c-0.2,0.1-0.3-0.2-0.3,0.1c-0.3-0.2-0.5-1-0.8-0.8
		c0.2,0.1,0.1,0.2,0.1,0.4c0.1,0.2,0.2,0.1,0.3,0.4c-0.4-0.1-0.3,0.4-0.3,0.7c-0.3,0-0.3-0.1-0.3,0.3c-0.2,0.1-0.3-0.2-0.5-0.2
		c0.1,0.2,0.2,0.2,0.1,0.4c-0.2-0.4-0.4-0.8-0.7-1.1c-0.3-0.3-0.5-0.7-0.9-1c0-0.2,0-0.6-0.3-0.7c0.1,0,0.1-0.1,0-0.2
		c0.1-0.1,0.2,0.1,0.3-0.1c0-0.3-0.2-0.3-0.3-0.6c0.2-0.2,0.3,0.3,0.4,0.2c0-0.2-0.2-0.5,0-0.5c0.2,0.5,0.5,0.6,0.7,0.5
		c-0.1-0.2,0-0.3-0.1-0.5c-0.1,0-0.2,0.1-0.2,0.2c-0.3-0.3,0.2-0.2,0-0.5c-0.2,0.1,0,0.4-0.2,0.2c-0.2-0.3,0.2-0.3,0.1-0.5
		c-0.1,0-0.1-0.1-0.2-0.1c0,0.2-0.1,0.3-0.3,0.4c-0.3-0.4,0.2,0,0.1-0.3c-0.1,0-0.2,0-0.3,0c0,0.2,0.2,0.6,0.4,0.7
		c-0.1,0-0.2,0.1-0.4,0c0-0.1,0.1-0.2,0.1-0.3c-0.1,0-0.2-0.4-0.3-0.3c0.1,0.3-0.1,0.2-0.3,0.1c0,0.2-0.1,0.4-0.2,0.6
		c0.2,0.1,0.1-0.1,0.3-0.2c0.2,0.2,0,0.3,0.2,0.4c-0.1,0.1-0.1,0.3-0.3,0.4c-0.7-0.6-0.1-1-0.5-1.8c0.2-0.1,0.2-0.3,0.2-0.5
		c0,0.3,0.4,0.4,0.4,0.1c-0.1-0.3-0.2-0.1-0.3-0.3c0.1,0,0.1-0.1,0-0.2c0.2-0.1,0.4,0.2,0.6,0c-0.3-0.2,0-0.3-0.4-0.7
		c0.1-0.1,0.3,0.1,0.4,0c-0.2-0.1-0.4-0.4-0.6-0.4c0-0.3-0.7-0.9-1.1-1.3c0.4,0,0.7,0.5,1.1,0.8c0.3,0.4,0.6,0.7,0.9,0.4
		c0.1,0.1,0.2,0.2,0.3,0.2c0.1-0.1,0.1-0.2,0.1-0.3c-0.1-0.2-0.4,0-0.3-0.3c0.3,0.1,0.9,0.4,0.8,0.9c-0.1-0.1-0.2-0.3-0.4-0.2
		c0,0.2,0.1,0.4,0,0.5c-0.1-0.1-0.2-0.3-0.4-0.1c0.1,0.1,0.3,0.1,0.2,0.3c-0.1-0.1-0.5-0.4-0.4-0.2c0.5,0.3,0.5,1.1,0.9,1.2
		c0.1-0.2,0.2-0.2,0.2-0.4c-0.2,0.1-0.1-0.6-0.5-0.7c0.1-0.1,0.1-0.2,0.3-0.3c0.2,0.1,0.1,0.4,0.2,0.3l0.2-0.1
		c-0.5-0.3,0.2-0.4-0.3-0.7c0.2,0,0.2-0.1,0-0.3c0.2-0.2,0.4,0,0.6-0.2c0,0.5,0.7,0.5,0.6,0.9c0.3,0.1,0.1-0.3,0.3-0.4
		c0.1,0.1,0.2,0.2,0.3,0.2c-0.2-0.2,0.2-0.2,0.1-0.4c-0.2-0.4-0.3,0.3-0.4,0c0.1-0.1,0.2-0.1,0.1-0.3c-0.2,0.1-0.2,0.3-0.4,0.4
		c-0.1-0.5-0.5-0.6-0.6-0.8c0.1,0.1,0.2,0.1,0.3,0.1c-0.3-0.2-0.1-0.4-0.1-0.5c-0.1,0-0.1-0.1-0.2-0.1c-0.1,0.4-0.3,0.2-0.7,0
		c0.1,0.2,0.3,0.2,0.2,0.3c-0.2,0-0.2-0.2-0.4-0.3l0.3-0.2c0.2,0.1,0.1,0.4,0.4,0.2c-0.3-0.6-0.8-0.6-0.9-1.1c-0.1,0-0.2-0.1-0.4,0
		c0.2,0.2,0.5,0.2,0.7,0.6c0,0.1-0.2,0.4-0.2,0.1c0.2-0.2-0.4-0.5-0.5-0.5c0,0.1-0.1,0.4-0.3,0.2c0.1-0.1,0.1-0.1,0-0.2
		c-0.3,0.2-0.1-0.2-0.5-0.2c0.2-0.1-0.1-0.2-0.2-0.3c0.3-0.3,0.4,0.3,0.6,0.3c0-0.3,0-0.4,0.1-0.5c-0.1,0-0.1,0-0.2-0.1
		c0.3-0.1-0.1-0.3-0.1-0.4c0.1-0.2,0.3-0.1,0.4,0.1c-0.1,0.1-0.2,0.1-0.2,0.2c0.2,0.3,0.3,0.4,0.5,0.4c0-0.4,0.1-0.7,0.2-1
		c-0.4-0.4-1.2-0.9-1.8-1.2c0.5,0.5,1,1,1.5,1.1c0.1,0.2,0.1,0.4,0,0.5c-0.1-0.3-0.2-0.3-0.4-0.3c-0.4-0.7-0.7-0.7-1.1-1
		c0,0.3,0.4,0.5,0,0.4c0.2,0.1,0.3,0.5,0.1,0.3c0,0,0.1-0.1,0-0.1c-0.1-0.2-0.2,0.1-0.4-0.2c0.2-0.1,0-0.3-0.1-0.4
		c0.1-0.1,0.1-0.3,0.1-0.4c-0.2-0.2-0.4-0.2-0.6-0.2c-0.1,0.2,0.4,0.3,0.3,0.5c-0.2-0.3-0.3-0.1-0.4-0.4c0-0.1,0.1-0.2,0-0.3
		c-0.2-0.3-0.5-0.5-0.7-0.4c-0.2-0.3-0.1-0.5-0.1-0.7c-0.2-0.2-0.9-0.1-0.6,0.1c-0.2,0.2-0.4-0.3-0.5-0.2c0,0.2-0.2,0.3,0.1,0.5
		c-0.2,0,0,0.2-0.2,0.3c-0.2-0.2-0.5-0.4-0.6-0.7c0.1-0.1,0.2,0,0.3-0.1c-0.1-0.1-0.1-0.2-0.2-0.3c-0.4,0.1-0.6-0.2-0.9-0.5
		c-0.3,0.1,0.1,0.4-0.1,0.5c-0.2-0.3-0.2-0.5-0.1-0.8c0.1-0.1,0.2,0.2,0.3,0.1c-0.1-0.3,0.1-0.4,0-0.7c-0.1-0.1-0.1,0-0.2-0.1
		c0.2-0.3,0.1-0.6,0.5-0.4c-0.2-0.3-0.4-0.4-0.5-0.6c0.1-0.1,0.2,0,0.3-0.1c0.1,0.1,0.3,0.5,0.4,0.4c0-0.1,0.1-0.1,0.1-0.2
		c-0.1-0.1-0.2-0.1-0.3-0.3c0.3,0,0.3-0.1,0.7-0.3c0.2,0.2,0.6,0.6,0.9,0.7c-0.1-0.2-0.2-0.4-0.5-0.5c-0.1-0.4-0.3-0.6-0.5-1
		c0.1-0.2,0.3,0.2,0.4,0.2c-0.2-0.2-0.2-0.4-0.2-0.6c-0.1,0.3-0.6-0.3-0.5,0.2c-0.3,0-0.7-0.8-0.9-0.4c-0.2-0.4-0.6-0.5-0.2-0.6
		c-0.1-0.1-0.2-0.1-0.3-0.3c0.2-0.2,0.3-0.6,0-0.6c0.1-0.3,0.4-0.4,0.7-0.3c0-0.2-0.1-0.4,0.2-0.6c-0.2-0.4-0.6-0.8-1-0.8
		c0,0.2-0.1,0.1-0.3,0.1c0.2,0.2,0.2,0.5,0.5,0.4c0-0.1-0.2-0.3-0.1-0.3c0,0,0.1,0.1,0.1,0c0,0,0.1,0,0.1,0
		c-0.2,0.2,0.5,0.5,0.2,0.7c-0.4-0.5-0.3,0-0.5-0.1c-0.2-0.3-0.4-0.5-0.4-0.2c-0.3-0.4-0.3-0.8-0.6-1c-0.1,0,0,0.2-0.1,0.1
		c0.1-0.3-0.4-0.1-0.4-0.4c0.3-0.1,0.2-0.1,0.1-0.4c0.3,0.3,0.5,0.5,0.7,0.3c-0.3-0.5-0.5-0.5-0.9-0.9c0.1-0.2,0.4,0.3,0.4,0
		c-0.2-0.2-0.5-0.3-0.7-0.3c0.2-0.1,0.1-0.2-0.1-0.3c-0.1,0.1-0.1,0.4-0.1,0.1c0-0.2,0.1-0.3-0.1-0.5c-0.3,0.3-0.6-0.5-1-0.6
		c0-0.1,0.1-0.1,0.1-0.2c-0.1-0.1-0.3-0.4-0.4-0.3c0,0.2,0.4,0.4,0.2,0.5c-0.3-0.4-0.3,0-0.6-0.3c-0.1-0.3,0.2-0.3,0.2-0.5
		c-0.1,0.1-0.1-0.1-0.2-0.1c0.1,0.4-0.3,0.1-0.6,0c0.2,0.5,0.4,0.5,0.6,1c-0.4-0.2-0.7-0.4-0.9-0.5c0,0.2-0.3,0.5,0.1,0.6
		c-0.3,0.2-0.5-0.6-0.8-0.2c0-0.1,0-0.2-0.1-0.3c0.2-0.2,0.5,0.1,0.7,0c-0.2-0.2-0.3-0.6-0.6-0.5c0.5-0.1,0.3-0.4,0.7-0.4
		c-0.3-0.2,0.1-0.3-0.1-0.5c-0.1,0-0.1,0-0.2-0.1c0.1,0.3,0,0.2-0.3,0.3c0.3,0.2,0.2,0.4,0.1,0.5c-0.2-0.2-0.3-0.1-0.4-0.3
		c0.4-0.3-0.1-0.1-0.2-0.4c0.1,0,0.3,0.2,0.4,0.1c-0.1-0.2,0.3-0.3,0.1-0.5c-0.2,0-0.1,0.1-0.2,0.2c-0.3-0.1-0.3-0.5-0.6-0.4
		c0.3,0.3,0.1,0.3-0.1,0.3c0.1,0.2,0.2,0.2,0.3,0.2c-0.3,0-0.1,0.3,0,0.5c-0.1,0.2-0.4,0.2-0.3-0.1c0.1,0.1,0.2,0.2,0.2,0
		c-0.3-0.2-0.5-0.3-0.8-0.4c-0.3,0.1,0.1,0.3,0,0.5c-0.2-0.3-0.3-0.6-0.2-0.8c0.2,0.3,0.3,0.1,0.4,0.1c-0.5-0.3,0.1-0.2,0-0.4
		c-0.4-0.1-0.5-0.1-0.6,0.1c-0.2-0.1-0.1-0.2-0.1-0.3c-0.2,0.1-0.2,0.1-0.3,0.3c-0.3-0.3-0.2,0.2-0.6-0.2c0.1,0.2-0.2,0.2,0,0.4
		c0.5,0.3,0.5,0.7,1,0.8c0,0.1,0.3,0.6,0,0.5c0.1-0.1-0.1-0.4-0.3-0.5c-0.1,0.1,0.3,0.5,0,0.3c-0.1-0.2-0.4-0.9-0.7-0.8
		c0.4,0.2,0,0.4,0,0.5c-0.3-0.3-0.1,0.2-0.4,0c0,0.1-0.1,0.2,0,0.4c0.1,0,0.2,0.2,0.4,0.3c-0.1,0.1-0.2,0.2-0.4,0.1
		c0.1-0.3-0.3-0.3-0.5-0.5c0.2-0.3,0.3,0.2,0.4,0c-0.5-0.2-0.5-0.7-0.8-0.4c0.4,0.2,0.1,0.5,0.4,0.7c-0.1,0.1-0.2,0.2,0,0.3
		c0.9,0.3,0.3,0.7,1,1.3c0.2-0.3,0.6-0.5,0.5-1c-0.2,0.1-0.6-0.1-0.6-0.3c0.3-0.2,0.7,0.5,1,0.6c0.3-0.2-0.2-0.3-0.1-0.4
		c0.4,0.2,0.3-0.4,0.6-0.3c0.1,0.2-0.1,0.3,0,0.4c0.1-0.1,0.2,0.1,0.2,0.1c0.1-0.1,0-0.2,0.1-0.2c0.2,0.2,0.1,0.3,0.4,0.3
		c-0.2,0-0.2,0.5-0.2,0.2c-0.1-0.1,0.1-0.2,0-0.3c-0.2,0.1-0.2,0.1-0.5,0c0.2,0.2-0.2,0.3-0.1,0.5c0.2,0.1,0.4,0.3,0.4,0.5
		c0.1-0.1,0-0.2,0.1-0.2c0.2,0.2,0.2,0.1,0.4,0.3c-0.1,0.1-0.2,0.1-0.1,0.2c0.7,0.3,1.3,1.9,1.6,1.3c0.1,0.2,0.3,0.4,0.3,0.5
		c-0.4-0.5-0.4,0.5,0,0.5c0,0.2-0.3,0-0.4,0.3c-0.1-0.1-0.2-0.2-0.3-0.3c0.1-0.1,0.2-0.3,0.2-0.4c-0.4-0.3-0.6-0.5-1-0.8
		c0-0.6-0.7-0.9-0.9-0.8c0.4-0.1,0-0.5-0.3-0.5c0-0.2-0.1-0.5-0.5-0.6c0,0.2-0.1,0.5-0.4,0.5c0.2,0.2,0.2,0.3,0.3,0.5
		c0.2,0.1,0.3,0,0.5,0.2c-0.2,0.1,0.4,0.4,0.3,0.7c-0.5-0.2-0.8-0.6-1.1-1c-0.2-0.2-0.3-0.4-0.5-0.5c-0.2-0.1-0.4-0.2-0.6-0.3
		c0.3-0.2-0.4-0.7-0.6-0.6c0.2,0.2,0.2,0.4,0.2,0.5c-0.2-0.1-0.5-0.1-0.7-0.3c0-0.1,0.1-0.1,0.1-0.2c-0.6-0.6-1.6-1.5-2.1-2.1
		c-0.2,0.3-0.2,0.3-0.2,0.7c-0.1-0.1,0,0.1-0.2,0c0.1-0.1-0.2-0.2-0.3-0.4c-0.1-0.4,0.6-0.2,0.5-0.6c-0.2-0.1-0.3,0-0.5-0.1
		c0-0.2-0.2-0.8-0.3-0.8c0.2,0.2-0.1,0.4,0.2,0.6c-0.3,0-0.3,0.1-0.6,0.1c-0.4-0.6-1.3-0.4-1.5-0.9c1.1,0.4-0.1-0.4-0.3-0.9
		c0,0-0.1,0-0.2,0c-0.1,0.1,0.2,0.2,0.1,0.3c-0.2,0-0.5-0.2-0.5-0.4c0.1,0.1,0.2,0.1,0.3,0.1c-0.3-0.2-0.1-0.3-0.3-0.5
		c-0.1,0-0.2,0-0.3,0c0.3,0.2,0.3,0.4,0.3,0.7c-0.4-0.2-0.5-0.2-0.8-0.4c0.2,0.3,0.4,0.2,0.4,0.5c0.2-0.2,0.1,0,0.1,0.1
		c0.2,0,0.2-0.3,0.5,0c0,0.2-0.2,0-0.3,0.1c0.4,0.3,0.6,0.5,0.9,0.5c-0.2,0.2,0.4,0.4,0.3,0.6c-0.1-0.1-0.3-0.2-0.3-0.1
		c0.2,0.2,0.4,0.5,0.6,0.4c0.1,0.1,0.4,0.6,0.2,0.5c-0.2-0.5-1.4-1-1.7-1.2c0.3,0.1,0.1-0.2,0.4-0.2c-0.8-0.7-1.1-0.9-1.6-1
		c0-0.1,0.1-0.2-0.1-0.4c-0.1,0-0.2,0.1-0.4,0c0.2,0.2,0.6,0.4,0.5,0.5c-0.3-0.1-0.5-0.1-0.6,0c-0.2-0.4-0.4-0.4-0.5-0.8
		c0.3,0.2,0.3,0.3,0.6,0.5c0.1-0.1,0.2,0,0.3,0c-0.5-0.4-0.7-0.6-1.1-0.9l-0.1,0.1c-0.3-0.5-0.6-0.3-0.8-0.8c-0.1,0,0.2,0.3,0,0.2
		c-0.2-0.2,0-0.2,0.1-0.4c0.3,0.1,0.1,0.5,0.4,0.4c0-0.3-0.3-0.8-0.6-1.2c-0.3-0.4-0.8-0.7-1.2-0.7c0.2,0.2-0.2,0-0.4-0.1
		c0.1-0.3,0.6,0.2,0.7-0.1c-0.2-0.2-0.7-0.3-0.7-0.4c0.4,0.1,0.3-0.2,0.7-0.1c-0.1-0.1-0.2-0.1-0.2-0.2c0.1,0.2-0.1,0.1-0.1,0.2
		c-0.4-0.3-0.3-0.3-0.6-0.6c0.1,0,0.3,0.1,0.5,0c-0.4-0.3-0.6-0.5-0.9-0.6c0.1-0.3,0-0.5-0.3-0.8c0.2,0.3-0.1,0.2-0.3,0.1
		c0.1-0.1,0.1-0.2,0-0.3c-0.5,0-1-0.7-1.4-1c0.1,0,0.2,0.1,0.2,0.1c-0.2-0.1-0.3-0.2-0.4-0.3c0.1,0.3-0.2,0.1-0.3,0.1
		c0,0.4,0.7,0.5,0.8,0.8c-0.5-0.2-0.8-0.6-1.1-0.8c0,0.1-0.4,0.1-0.4-0.1c0.1,0,0.5,0.1,0.3-0.1c-0.6-0.4-0.3,0-0.9-0.2
		c0.3,0.4,1.1,0.7,1.4,1c-0.4-0.1-0.7-0.5-0.8-0.2c0.2,0,0.2,0.3,0.3,0.2c0-0.1-0.1-0.1-0.1-0.2c0.7,0.6,1.6,0.5,2.1,0.8
		c-0.4,0,0.5,0.3,0.7,0.6c-0.4-0.1-0.4,0.1-0.8-0.2c0.1,0.3-0.2,0.1-0.3,0.1c0.4,0.3,0.7,0.4,0.9,0.6c0.2,0,0-0.1,0.1-0.2
		c0.3,0,0.6,0.7,0.6,0.3l0.3,0.2c-0.2,0.4-0.7-0.3-0.9-0.2c0.4,0.4,0.7,0.4,0.9,0.8c-0.6-0.4-0.2,0.2-0.1,0.4
		C96.1,24,95.9,24.2,95.6,24z"/>
</g>
<path class="st14" d="M102.4,69c0.1-3.5,1.6-6.8,3.3-10c2.1-4.1,4.6-10.2,8.3-13.2c3.3-2.8,3.4,1.6,2.9,4.1
	c-0.8,3.9-3.4,7.8-5.6,11.1c-1.2,1.8-2.5,3.4-4,4.9C102.7,70.9,102.4,69,102.4,69z M144.2,113.2
	C144.2,113.2,144.2,113.2,144.2,113.2c0.1,0.1,0,0.1,0,0.2c0,0-0.1,0-0.1-0.1C144.1,113.2,144.2,113.3,144.2,113.2z M144.3,113.2
	C144.3,113.1,144.2,113.2,144.3,113.2c0,0,0-0.1,0-0.1C144.3,113.1,144.3,113.1,144.3,113.2z M144,114c0,0.1-0.2,0.1-0.1,0
	C143.9,114,143.9,114,144,114z M143.7,114.6c0.1-0.1,0-0.1,0-0.1c0,0,0.1,0,0.1,0C143.8,114.5,143.7,114.6,143.7,114.6z
	 M143.3,115.3C143.3,115.4,143.3,115.4,143.3,115.3C143.3,115.4,143.3,115.3,143.3,115.3c0,0,0.1,0,0.1,0
	C143.5,115.4,143.3,115.4,143.3,115.3c0,0.1,0,0.2,0,0.2C143.3,115.4,143.4,115.4,143.3,115.3z M143.5,115c0-0.1,0-0.1,0-0.2
	c0.1,0,0,0,0.1,0.1C143.6,115,143.5,115,143.5,115z M143.3,115.2C143.3,115.2,143.3,115.2,143.3,115.2
	C143.3,115.1,143.4,115.1,143.3,115.2C143.3,115.1,143.4,115.2,143.3,115.2z M142.1,118.1C142.2,118.3,142,118.4,142.1,118.1
	L142.1,118.1z M143.8,114.4c-0.1,0-0.1-0.1-0.1-0.1c0,0,0.1-0.1,0.1-0.1C143.8,114.3,143.7,114.3,143.8,114.4c0-0.1,0.1-0.2,0.1-0.2
	c-0.1,0.1,0,0.1,0,0.1C143.8,114.3,143.8,114.4,143.8,114.4z M143.7,114.5C143.7,114.6,143.6,114.6,143.7,114.5
	C143.6,114.6,143.6,114.6,143.7,114.5C143.6,114.6,143.6,114.6,143.7,114.5c-0.1,0-0.1,0.2-0.2,0.2c0-0.1,0.1-0.1,0.1-0.1
	c0,0,0,0,0,0c0,0,0,0,0,0c0,0,0,0,0-0.1C143.5,114.6,143.6,114.5,143.7,114.5z M143.5,114.2C143.6,114.3,143.5,114.3,143.5,114.2
	L143.5,114.2C143.5,114.4,143.5,114.3,143.5,114.2z M146.2,110.3C146.4,110.3,146.2,110.1,146.2,110.3L146.2,110.3z M142.3,117.3
	c0.1,0.1,0,0.7-0.2,0.5c0.1,0,0.1-0.1,0.1-0.1c-0.1-0.1,0-0.2,0-0.3C142.3,117.4,142.2,117.3,142.3,117.3z M146.8,109.5
	c0,0,0-0.1,0-0.1c0-0.1-0.1,0.1-0.1,0c0,0,0.1,0,0.1-0.1c0,0,0.1,0,0.1,0.1C146.9,109.5,146.8,109.5,146.8,109.5z M146.3,110.2
	c0,0,0-0.1,0-0.1C146.4,110.1,146.3,110.1,146.3,110.2z M145.6,111.6c0-0.1,0-0.1,0-0.2C145.7,111.5,145.6,111.6,145.6,111.6z
	 M145.3,112.2c0,0.1-0.1,0.1-0.1,0C145.2,112.2,145.3,112.1,145.3,112.2z M141.9,117.7C141.9,117.8,141.9,117.8,141.9,117.7
	C141.9,117.8,141.9,117.9,141.9,117.7C141.9,117.8,141.9,117.7,141.9,117.7z M147.1,109.3c0,0,0.1-0.1,0.1-0.1c0,0,0,0,0,0
	c0.1,0.1-0.1,0.2-0.1,0.3c-0.1,0,0-0.1-0.1-0.1c0.1-0.1,0.1-0.3,0.2-0.3C147.2,109.1,147.1,109.2,147.1,109.3z M141.8,118.1
	C141.6,118.4,141.7,118.1,141.8,118.1C141.8,118.1,141.7,118.1,141.8,118.1z M139.1,119.6c0-0.1,0.2-0.1,0.1-0.2
	c0.1,0,0.2,0.1,0.1,0.1c-0.1,0-0.3,0.1-0.4,0c0,0,0,0,0,0.1c-0.1,0,0,0-0.1-0.1C138.9,119.5,139,119.6,139.1,119.6z M141.3,118.6
	C141.4,118.5,141.3,118.4,141.3,118.6L141.3,118.6z M141.1,119.1C141,119.1,141,119.1,141.1,119.1C141,119,141.1,119,141.1,119.1z
	 M140.7,119.3c-0.1,0-0.1-0.1,0-0.1C140.7,119.2,140.7,119.3,140.7,119.3z M148.8,105.3C148.8,105.3,148.7,105.3,148.8,105.3
	C148.7,105.4,148.7,105.4,148.8,105.3z M143.6,114C143.7,114,143.7,114,143.6,114C143.7,114,143.7,114,143.6,114l0.1,0.1
	C143.6,114.1,143.6,114,143.6,114z M146.8,109.7C146.8,109.7,146.8,109.7,146.8,109.7c-0.1,0-0.1,0.1-0.1,0c0.1,0,0,0.1,0,0.1
	c0-0.1-0.1,0-0.1,0C146.6,109.7,146.7,109.7,146.8,109.7C146.8,109.6,146.7,109.7,146.8,109.7z M147.4,109l-0.1,0.1
	C147.2,109.1,147.3,109,147.4,109z M149.4,104.5c0,0-0.1,0-0.1,0C149.4,104.3,149.4,104.4,149.4,104.5z M148.4,107.5
	c0.1,0,0.2,0.1,0.2,0c0,0,0,0,0,0c0,0,0-0.1,0.1-0.1c0,0,0,0.1,0,0.1c-0.1,0-0.1,0.3-0.2,0.1c0,0,0,0,0.1,0
	C148.4,107.6,148.3,107.5,148.4,107.5z M149.2,105.8C149.2,105.8,149.2,105.8,149.2,105.8C149.2,105.8,149.2,105.8,149.2,105.8
	c0.1-0.1,0-0.1,0-0.1C149.1,105.7,149.1,105.8,149.2,105.8c-0.1-0.1-0.1-0.2-0.1-0.1c0.1-0.1-0.1,0,0-0.1c0.1,0,0.1,0,0.1,0.1
	c0.1,0,0.1,0,0.2,0C149.2,105.8,149.3,105.9,149.2,105.8z M149,105.1C149,105,149,105.1,149,105.1C148.9,105,148.9,104.9,149,105.1
	C148.9,105,149.1,105,149,105.1z M149.3,104.9c0-0.1,0-0.2,0.1-0.2C149.3,104.8,149.4,104.9,149.3,104.9z M149.2,104.9
	C149.2,105,149.1,105,149.2,104.9C149.1,105,149.2,104.8,149.2,104.9C149.2,104.9,149.1,104.9,149.2,104.9z M149.3,105.3
	c0.1,0,0.1,0.1,0,0.1C149.3,105.4,149.2,105.4,149.3,105.3z M148.3,106.5c0.1,0,0,0.1,0.1,0.1c0.1-0.1,0.1-0.2,0.2-0.2
	c-0.1,0.1-0.1,0.2-0.2,0.3c0,0-0.1,0-0.1,0C148.2,106.7,148.3,106.6,148.3,106.5C148.3,106.6,148.3,106.6,148.3,106.5z M148.4,106.1
	c0.1-0.1,0.2-0.2,0.2-0.2c0,0.1-0.2,0.3,0,0.2C148.6,106.1,148.5,106.2,148.4,106.1C148.5,106.1,148.5,106.1,148.4,106.1
	C148.5,106.1,148.4,106.1,148.4,106.1z M148.8,107.2C148.8,107.2,148.8,107.2,148.8,107.2L148.8,107.2
	C148.7,107.2,148.7,107.2,148.8,107.2C148.8,107.2,148.8,107.1,148.8,107.2z M148.4,107.3c0,0.1,0,0.1,0.1,0.1
	C148.4,107.4,148.4,107.4,148.4,107.3C148.4,107.4,148.3,107.3,148.4,107.3z M149.5,104.5C149.5,104.5,149.5,104.6,149.5,104.5
	c0-0.1,0.1-0.2,0.1-0.3C149.7,104.3,149.5,104.4,149.5,104.5z M150,102.7c0-0.1,0.1-0.2,0.1-0.1C150.1,102.6,150.1,102.7,150,102.7z
	 M149.5,104.2c-0.1,0-0.2,0-0.2,0c0.1,0.1,0.1-0.2,0.2-0.1C149.6,104.2,149.5,104.1,149.5,104.2z M149.8,104.1
	C149.8,104.1,149.7,104.1,149.8,104.1C149.8,104.1,149.8,104,149.8,104.1C149.8,104,149.8,104.1,149.8,104.1
	C149.8,104.1,149.8,104.1,149.8,104.1z M150.2,104.4C150.2,104.4,150.2,104.4,150.2,104.4c0-0.1-0.2-0.1-0.1-0.1
	C150.1,104.3,150.2,104.4,150.2,104.4c-0.1-0.1,0-0.1,0.1-0.1C150.2,104.3,150.2,104.4,150.2,104.4z M148.7,108c0-0.1,0-0.1,0-0.2
	C148.9,107.8,148.8,108.1,148.7,108z M149.7,103.3c0.1,0.1,0-0.1,0.1-0.2C149.9,103.2,149.8,103.3,149.7,103.3
	C149.7,103.4,149.7,103.3,149.7,103.3z M150.2,103.3c0.1,0,0.1-0.1,0.1-0.1c0,0,0,0.1,0,0.1C150.3,103.4,150.3,103.3,150.2,103.3z
	 M149.2,106.6C149.2,106.6,149.2,106.6,149.2,106.6c-0.1,0,0-0.1,0-0.1C149.2,106.6,149.2,106.6,149.2,106.6z M149.3,105.3
	c0,0,0.1-0.1,0.1-0.1C149.4,105.2,149.5,105.3,149.3,105.3C149.4,105.2,149.3,105.4,149.3,105.3z M148.4,107.3c0,0,0-0.1,0-0.1
	C148.5,107.2,148.5,107.3,148.4,107.3z M149.4,106.5c0.1,0.1,0,0.1-0.1,0.1L149.4,106.5C149.4,106.5,149.4,106.5,149.4,106.5z
	 M148.9,106.5L148.9,106.5l0-0.1C148.9,106.4,148.9,106.4,148.9,106.5z M149,106.5c-0.1-0.1,0-0.2-0.1-0.1c0,0,0.1-0.1,0.1-0.1
	c-0.1-0.1-0.1-0.1-0.1-0.2c0,0.1,0.1,0.1,0.1,0.1c0-0.1,0.1-0.1,0.1-0.1c0,0,0,0,0,0.1c0,0.1-0.1,0-0.1,0.1
	C149,106.3,148.9,106.3,149,106.5l0.1-0.1l0,0C149.1,106.4,149.1,106.4,149,106.5C149,106.4,149,106.3,149,106.5
	C149,106.4,149,106.4,149,106.5C149,106.4,149,106.4,149,106.5z M149.2,105.2c-0.1,0-0.2,0.2-0.3,0.2c0,0,0-0.1,0-0.1
	C149,105.4,149.1,105.1,149.2,105.2C149.1,105.2,149.2,105.2,149.2,105.2z M148.7,106.1C148.7,106,148.7,106,148.7,106.1
	c0,0,0.1-0.1,0.1-0.1C148.8,106,148.8,106,148.7,106.1L148.7,106.1z M148.6,106.4c0-0.1,0.1,0,0.1,0c0,0,0,0.1,0,0.1
	C148.7,106.4,148.7,106.4,148.6,106.4z M148.4,106.9c0.1,0,0,0.1,0,0.1c0-0.1-0.1,0-0.1,0C148.3,107,148.4,107,148.4,106.9z
	 M148.2,107.3C148.2,107.3,148.2,107.3,148.2,107.3C148.2,107.3,148.3,107.2,148.2,107.3C148.3,107.3,148.3,107.3,148.2,107.3
	C148.2,107.3,148.2,107.3,148.2,107.3z M148.7,106.3C148.7,106.2,148.7,106.2,148.7,106.3c0.1,0,0.1,0,0.1,0
	C148.7,106.3,148.8,106.3,148.7,106.3C148.7,106.3,148.7,106.3,148.7,106.3z M148.4,106.4c-0.1,0,0.1-0.2,0.1-0.1
	C148.5,106.3,148.4,106.3,148.4,106.4z M150.1,103.6c-0.1-0.1,0-0.1,0-0.2C150.3,103.4,150.1,103.5,150.1,103.6z M149.4,105.6
	c0,0-0.1-0.1,0-0.1C149.4,105.5,149.4,105.5,149.4,105.6z M149.2,106c-0.1,0-0.1-0.1-0.1-0.1c0,0,0,0.1-0.1,0.1c0.1,0-0.1-0.1,0-0.1
	c0,0.1,0,0,0.1,0L149.2,106c0-0.1,0.1-0.1,0.1-0.1c0,0,0,0,0,0.1C149.3,106,149.2,106,149.2,106z M149.5,105.6
	C149.5,105.6,149.5,105.6,149.5,105.6c0,0-0.1-0.1,0-0.1L149.5,105.6z M149,105.9C149,105.9,148.9,105.9,149,105.9
	C148.9,105.8,149.1,105.8,149,105.9z M149.4,105.7c0.1,0,0,0.2,0,0.2C149.4,105.8,149.4,105.7,149.4,105.7
	C149.3,105.7,149.3,105.8,149.4,105.7C149.3,105.7,149.4,105.7,149.4,105.7z M148.7,106.1L148.7,106.1
	C148.5,106.2,148.7,106.1,148.7,106.1z M148.9,106.1C148.9,106,149,106,148.9,106.1c0.1-0.1,0.1-0.1,0.1-0.1
	C149,106,149,106,148.9,106.1C149,106,148.9,106.1,148.9,106.1z M148.9,105.7c0,0.1-0.1,0-0.1,0.1
	C148.6,105.8,148.8,105.7,148.9,105.7z M149,105.6c0,0.1-0.1,0-0.1-0.1C148.9,105.5,148.9,105.5,149,105.6
	C148.9,105.6,149,105.5,149,105.6z M149.6,106c0,0,0.1,0.2,0,0.2C149.6,106.1,149.5,106,149.6,106z M149.2,105.3
	C149.2,105.3,149.2,105.4,149.2,105.3C149.2,105.3,149.2,105.3,149.2,105.3c0,0-0.1-0.1,0-0.1C149.3,105.2,149.2,105.3,149.2,105.3z
	 M149.2,108c-0.1-0.1-0.1-0.1-0.2-0.1c0-0.1,0.1-0.1,0.1-0.1C149.2,107.8,149.2,107.9,149.2,108z M149,107.8c0,0-0.1-0.1,0-0.1
	C148.9,107.7,149,107.7,149,107.8C149,107.7,149,107.9,149,107.8C148.9,107.8,148.9,107.8,149,107.8z M148.9,108.1
	C149,108.1,148.8,108.2,148.9,108.1C148.9,108.2,148.8,108.1,148.9,108.1z M149.6,106.4C149.5,106.3,149.3,106.3,149.6,106.4
	L149.6,106.4z M148.9,106.6C149,106.6,148.9,106.6,148.9,106.6c0.1,0,0.1-0.1,0.1,0C149,106.6,149,106.7,148.9,106.6z M148.6,108.8
	c-0.1,0-0.1,0.1-0.1,0.1c0,0,0-0.1,0-0.1c-0.1,0-0.1,0-0.2,0.1c-0.1,0-0.1-0.1,0-0.1c0,0,0.1,0.1,0.1,0c0-0.1,0,0,0.1-0.1
	c0,0,0,0,0-0.1c0,0-0.1,0.1-0.1,0c0,0,0-0.1,0-0.1C148.3,108.6,148.5,108.6,148.6,108.8z M149.7,105.8
	C149.7,105.8,149.7,105.7,149.7,105.8C149.7,105.7,149.7,105.8,149.7,105.8C149.7,105.7,149.7,105.7,149.7,105.8
	C149.7,105.7,149.8,105.7,149.7,105.8z M147.4,109.3c0,0.1-0.1,0-0.1,0C147.3,109.2,147.4,109.2,147.4,109.3z M147.6,109.1
	c0,0,0-0.1,0.1-0.1c0.1,0,0.2-0.1,0.3,0.1c0,0,0,0.1-0.1,0.1c-0.1,0,0.1-0.1,0-0.1C147.7,109,147.7,109.1,147.6,109.1
	c0.2,0.1,0,0.2,0.2,0.2c0,0.1-0.1,0.1-0.2,0.1c0,0,0.1-0.1,0-0.1c0,0-0.1,0-0.1,0C147.7,109.3,147.4,109.1,147.6,109.1
	C147.5,109.1,147.5,109.1,147.6,109.1z M139.1,119.2C139.1,119.2,139.2,119.2,139.1,119.2c0.1-0.1,0.2-0.1,0.2-0.1
	C139.2,119.2,139.2,119.2,139.1,119.2z M139.8,118.5c0,0,0.1-0.1,0.1-0.1c0,0,0,0.1,0,0.1C139.9,118.4,139.9,118.4,139.8,118.5
	C139.8,118.5,139.8,118.5,139.8,118.5z M139.7,118.8C139.8,118.8,139.7,118.9,139.7,118.8c0.1,0,0.1-0.1,0.1,0c0,0-0.1,0.1,0,0.1
	c0,0,0.1,0,0.1,0c0-0.2,0.3-0.3,0.3-0.4c-0.1,0.2-0.3,0.3-0.3,0.4c0,0,0,0,0.1,0c0,0.1-0.1,0-0.1,0.1c0,0.2,0.2-0.1,0.3,0.1
	c0,0,0.1-0.1,0.1-0.1c-0.1,0.1-0.2,0.1-0.2,0.2c0,0,0,0,0-0.1c0,0,0,0,0,0.1c-0.1,0-0.3,0-0.3,0c0.1,0,0,0,0-0.1c0.1,0,0.1,0,0.1,0
	c0,0-0.1,0-0.1,0c0,0,0.2,0,0.1,0c0,0-0.1,0-0.1,0C139.7,118.9,139.7,118.9,139.7,118.8z M140.5,118.4
	C140.6,118.3,140.6,118.4,140.5,118.4C140.6,118.3,140.6,118.3,140.5,118.4c0.1-0.1,0.1-0.2,0.2-0.2c0.1,0.1,0.1-0.1,0.1,0
	C140.8,118.3,140.6,118.5,140.5,118.4c0,0.1,0,0.1,0,0.1C140.5,118.5,140.5,118.4,140.5,118.4z M140.9,117.9
	C140.9,117.9,140.9,117.9,140.9,117.9C140.8,118,140.9,118,140.9,117.9c-0.1,0-0.1,0-0.1,0c0,0,0-0.1,0.1-0.1
	C140.9,117.9,140.9,117.9,140.9,117.9C140.9,117.9,140.9,117.9,140.9,117.9z M141,117.9c0,0-0.1-0.1,0-0.1
	C140.9,117.8,141,117.8,141,117.9z M141.1,117.8c0,0-0.1,0-0.1,0C141,117.8,141,117.7,141.1,117.8
	C141,117.7,141.1,117.7,141.1,117.8C141.1,117.7,141.1,117.8,141.1,117.8z M141,117.5c0.1,0,0.1-0.1,0.2,0c0,0.1,0,0.1-0.1,0.2
	c-0.1,0-0.1-0.2-0.1-0.3c0.1,0,0-0.1,0.1-0.1c0,0.1,0,0.1,0,0.1c0-0.1,0.1-0.2,0.1-0.3c0.1,0,0,0.2,0,0.2c0.1,0,0.2,0.1,0.1,0.1
	C141.2,117.4,141.1,117.5,141,117.5z M141.3,117.2c0.1-0.1,0-0.2,0-0.2c0,0,0,0-0.1,0C141.2,117.1,141.2,117.1,141.3,117.2
	c-0.1-0.2,0.1-0.3,0.1-0.3c-0.1,0.1,0,0.2,0,0.2C141.3,117.1,141.3,117.2,141.3,117.2z M140.8,118.8c0.1,0,0.1,0,0.1,0
	c0,0.1-0.1,0.1-0.1,0.2c0-0.1,0,0-0.1,0C140.7,118.9,140.8,118.9,140.8,118.8z M141.4,116.9C141.4,116.9,141.4,116.9,141.4,116.9
	c0-0.1,0-0.2,0.1-0.2l0.1,0C141.5,116.8,141.4,116.9,141.4,116.9z M141.5,116.7C141.5,116.6,141.5,116.6,141.5,116.7
	C141.5,116.6,141.5,116.6,141.5,116.7c0-0.1,0.1-0.1,0.1-0.1c0,0,0,0,0-0.1c0,0,0,0,0,0c0.1,0,0.1-0.1,0.1-0.1c0,0,0,0,0.1-0.1
	C141.7,116.5,141.7,116.6,141.5,116.7z M141.8,116.2c0.1,0,0.1-0.2,0.1-0.2c-0.1,0.2,0.1,0,0.1,0c0,0.1-0.2,0.1-0.1,0.2
	C141.9,116.1,141.9,116.2,141.8,116.2C141.9,116.2,141.9,116.2,141.8,116.2z M142.1,115.9c0,0,0.1-0.1,0.1-0.1c0,0,0,0,0,0
	c0,0,0,0,0.1,0c0,0,0,0.1,0,0.1c0-0.1,0.1-0.1,0.1-0.1c0,0,0.1,0,0.1,0.1c-0.1-0.1-0.1,0.1-0.1,0.1c0,0,0-0.1,0-0.1
	c-0.1,0.1-0.1,0.2-0.2,0.2C142.1,116,142.2,115.9,142.1,115.9C142.2,115.9,142.2,115.9,142.1,115.9z M142.5,115.4c0-0.1,0-0.1,0-0.1
	c0,0,0,0,0,0c0,0,0,0,0.1,0c0,0,0,0,0,0c0.1,0,0,0.1,0,0.1C142.6,115.3,142.5,115.3,142.5,115.4c0.1,0,0.2-0.1,0.2-0.1
	c0.1,0-0.1,0.1,0.1,0.1c0,0-0.1,0.1-0.1,0.1C142.8,115.3,142.6,115.4,142.5,115.4z M142.7,115.5c0,0,0.1-0.1,0.1-0.1
	C142.8,115.5,142.8,115.6,142.7,115.5C142.8,115.6,142.7,115.5,142.7,115.5z M143,114.8c0-0.1,0.1-0.1,0.1-0.1
	C143.1,114.7,143.1,114.8,143,114.8C143.1,114.8,143.1,114.8,143,114.8z M143.3,114.4C143.3,114.4,143.3,114.4,143.3,114.4
	C143.4,114.4,143.4,114.4,143.3,114.4c0,0.1,0,0.1,0,0.2C143.3,114.5,143.2,114.4,143.3,114.4z M143.2,114.4
	C143.2,114.4,143.2,114.4,143.2,114.4C143.2,114.4,143.2,114.4,143.2,114.4z M143.7,113.8c0-0.1,0.1-0.1,0.1-0.2
	C143.8,113.7,143.7,113.8,143.7,113.8z M147.1,108.5C147.1,108.5,147.1,108.5,147.1,108.5c0.1,0,0.1,0,0.1,0c0-0.1,0.2-0.1,0.1-0.2
	c0.1,0,0.1,0,0.1,0.1c0,0.1-0.2,0.1-0.2,0.3c-0.1,0,0-0.1,0-0.1c-0.1,0-0.1,0-0.1,0.1C147.2,108.6,147.2,108.5,147.1,108.5
	C147.2,108.5,147.1,108.5,147.1,108.5z M147.5,108.2c0.1,0,0-0.1,0-0.1c0,0.1,0.1,0.1,0.1,0.2C147.6,108.2,147.5,108.2,147.5,108.2z
	 M147.5,108.6c0.1,0.1,0.1,0,0.2,0c0,0.1-0.1,0-0.1,0.1C147.5,108.6,147.4,108.6,147.5,108.6z M147.9,107.6c-0.1,0-0.2,0.1-0.2,0.2
	c0-0.1,0-0.1,0.1-0.2C147.8,107.7,147.8,107.6,147.9,107.6z M147.9,107.3c0,0.1,0,0.2-0.1,0.1c0,0,0-0.1,0-0.1c0,0,0,0,0,0
	C147.8,107.3,147.9,107.2,147.9,107.3C147.8,107.3,147.9,107.3,147.9,107.3z M147.9,107.1C147.9,107.1,147.9,107.1,147.9,107.1
	C147.9,107.1,147.9,107.1,147.9,107.1C147.9,107.1,147.9,107.1,147.9,107.1z M140.3,118C140.3,118,140.3,117.9,140.3,118
	C140.4,118,140.3,118.1,140.3,118C140.2,118,140.3,118,140.3,118z M140,118.7c0,0.1-0.1,0-0.1,0.1c-0.1,0,0-0.1-0.1-0.1
	C139.9,118.6,140,118.7,140,118.7C140,118.7,140,118.7,140,118.7z M140.3,118.2c-0.1,0.2-0.2,0.2-0.3,0.4c-0.1,0,0-0.1,0-0.1
	C140.2,118.5,140.2,118.3,140.3,118.2C140.3,118.2,140.3,118.2,140.3,118.2C140.3,118.2,140.3,118.2,140.3,118.2z M147.2,108.4
	C147.2,108.4,147.2,108.4,147.2,108.4C147.2,108.4,147.2,108.4,147.2,108.4z M142.3,115.7C142.3,115.7,142.2,115.7,142.3,115.7
	C142.3,115.6,142.4,115.6,142.3,115.7C142.4,115.6,142.4,115.7,142.3,115.7C142.3,115.7,142.3,115.7,142.3,115.7z M140.7,118
	c0.1,0,0.1,0.1,0.1,0c0,0.1-0.1,0.2-0.2,0.1C140.7,118.1,140.7,118,140.7,118z M140.8,117.7c0.1,0.1,0,0.1,0,0.2
	c-0.1-0.1,0,0.1-0.1,0C140.7,117.8,140.8,117.7,140.8,117.7z M141.6,117.3C141.6,117.3,141.6,117.3,141.6,117.3
	c0.1-0.1,0.1-0.1,0.1,0c0.1-0.1,0.1-0.2,0.2-0.2c0,0.1,0.1,0.1,0,0.1c0,0,0-0.1-0.1,0c0,0.1,0,0.2-0.1,0.3c0,0,0,0-0.1,0
	c-0.1,0.2-0.2,0.6-0.4,0.7c0.1-0.3,0.3-0.5,0.3-0.7c0,0,0,0,0,0c0-0.1,0.1,0,0.1-0.1C141.6,117.5,141.7,117.3,141.6,117.3
	C141.6,117.4,141.5,117.6,141.6,117.3z M142.8,115.7C142.8,115.7,142.8,115.7,142.8,115.7c0.1,0,0.1,0.1,0,0.1
	C142.9,115.7,142.8,115.7,142.8,115.7z M142.9,115.7c0-0.1,0.1-0.2,0-0.2c0-0.1,0.1-0.1,0.1-0.1c-0.1,0.1,0,0.1,0,0.1
	C143,115.5,143,115.7,142.9,115.7z M148.1,107.6c0.1,0,0,0.1,0,0.1C148,107.6,148.1,107.6,148.1,107.6z M148,108.1
	c0.1,0.1,0.1,0,0.2,0C148.2,108.2,147.9,108.2,148,108.1z M148,108.3L148,108.3C148.1,108.3,148.1,108.4,148,108.3
	C148.1,108.3,148.1,108.3,148,108.3C148,108.4,148,108.3,148,108.3z M148.2,107.8C148.3,107.9,148.3,107.8,148.2,107.8
	c0.1,0,0.2,0,0.2,0c0,0-0.1,0-0.1,0c0,0,0,0.1,0,0.1c0,0,0.1,0,0.1,0c0-0.1,0,0-0.1-0.1c0.1-0.1,0.1,0,0.1,0.1
	c-0.1,0.1-0.1,0.1-0.3,0.2c0,0.1,0.1,0,0.1,0c0,0.1-0.1,0.2-0.3,0.3c0-0.1-0.1-0.1,0-0.2c0,0,0.1,0.1,0.1,0c0,0-0.1-0.1-0.1-0.1
	C148.4,108.2,148.2,107.9,148.2,107.8z M137.1,120.2c0.5,0.3,1.2-0.1,1.6-0.6c0.1-0.1,0.2-0.2,0.2-0.2c0,0,0,0,0,0.1
	c0.1,0,0.1-0.1,0-0.1c0,0,0.1-0.1,0.1-0.1c0.1,0,0.1,0,0.1,0.1c0.1,0,0.1,0,0.2,0c0-0.1,0-0.1-0.1-0.2c0,0,0,0.1-0.1,0.1
	c0,0,0,0,0,0c0.1,0,0.1-0.1,0.2,0c0,0,0-0.1,0-0.1c0.1-0.1,0.2,0.1,0.1,0.2c0.2-0.1,0.1,0.1,0.3,0.2c0,0,0.1-0.1,0.1-0.2
	c0.1,0,0.2,0,0.3,0c0.1-0.3,0.5-0.3,0.7-0.3c0.1-0.1,0.2-0.3,0.2-0.4c0.1,0,0.1-0.2,0.2-0.3c0.1-0.1,0.2-0.1,0.3-0.2
	c0.1-0.1,0.2-0.3,0.3-0.5c0.1-0.2,0.1-0.4,0.2-0.5c0.1,0.2,0.3-0.2,0.3-0.4c0,0-0.1,0.1-0.2,0.2c0,0,0-0.1,0-0.1c0,0-0.1,0-0.1,0.1
	c0-0.1,0-0.2,0.1-0.3c0,0,0.1,0,0.1-0.1c0,0,0,0-0.1-0.1c0,0,0,0,0,0.1c-0.1,0,0-0.1,0-0.1c0,0,0-0.1,0-0.1c0,0,0.1,0,0.1,0
	c0,0,0,0.1,0,0.1c0,0,0.1,0,0.1,0c0-0.1,0-0.1,0-0.2c0,0-0.2,0.1-0.1,0c-0.1,0.1-0.1,0.1-0.2,0.2c0-0.1,0.1-0.2,0-0.2l0,0.1
	c0.1,0-0.1,0.1-0.1,0.1c0.1,0,0.1,0,0.1,0c-0.1,0-0.1,0.1-0.1,0.2c0,0,0-0.1-0.1-0.1c0.1-0.1,0-0.1,0-0.2c-0.1,0-0.1,0.2-0.1,0.1
	c0,0.1,0.1,0.3-0.1,0.5c0,0,0,0,0.1,0c0,0,0,0,0,0.1c-0.1,0,0-0.1,0-0.2c-0.1,0-0.1,0.2-0.2,0.3c0-0.1-0.1-0.1,0-0.2
	c0,0,0,0.1,0,0.1c0.1,0,0-0.1,0-0.1c0.1-0.1,0.1-0.1,0.2-0.2c-0.1,0-0.1,0.2-0.2,0.2c0,0,0-0.1-0.1-0.1c0,0,0.1,0,0.1-0.1
	c0,0,0,0,0,0c0.1-0.1,0.2-0.2,0.2-0.3c0,0,0.1,0,0.1,0c0-0.1,0-0.1,0-0.1c0.1-0.1,0.1-0.1,0.2,0c0-0.1,0-0.1,0.1-0.2
	c0,0,0,0.1,0,0.1c0.1-0.1,0.1,0,0.1-0.1c-0.1,0,0-0.1-0.1,0c0,0,0,0,0.1,0c0,0.1,0.1,0.1,0.1,0.2c0,0,0-0.1,0.1-0.2
	c0.1,0,0,0.1,0.1,0.2c0,0,0-0.1,0-0.1c-0.1-0.2,0.3-0.4,0.4-0.4c0,0.1-0.1,0-0.1,0.1c0.1,0,0.1,0.1,0.1,0c0-0.1,0,0-0.1,0
	c0.1-0.1,0.1-0.1,0.2-0.2l-0.1,0c0.1-0.1,0.1-0.1,0.2-0.3c0,0,0,0.1,0,0.1c0,0.1-0.1,0.1-0.1,0.1c0.1,0,0.1-0.1,0.2-0.1
	c-0.1,0-0.1-0.1-0.1-0.2c-0.1,0-0.1,0.1-0.1,0.1c0,0,0-0.1,0-0.1c0-0.1,0.1,0,0.1,0c0-0.1,0-0.2,0.2-0.4c0,0.1,0.1,0,0.1,0.1
	c0.1-0.1,0.1-0.4,0.2-0.4c0,0-0.1,0-0.1,0c0,0.1,0,0.1-0.1,0.2c0,0,0,0,0-0.1c-0.1,0-0.1,0.1-0.1,0.1c0,0.1,0,0.1-0.1,0.2
	c0,0,0-0.1,0-0.1c-0.1,0.1,0,0.1,0,0.1c0,0-0.1,0,0,0c-0.1,0,0,0-0.1,0.1c0-0.1,0-0.1,0.1-0.2c-0.1,0-0.1,0-0.2,0.1l0-0.1
	c0-0.1,0.1,0,0.1-0.1c0,0,0,0.1,0,0.1c0.1,0,0.1-0.1,0.1-0.1c0,0-0.1,0-0.1,0c0,0,0,0,0,0c0.1,0,0.3-0.3,0.2-0.1
	c0.1-0.1,0-0.3,0.1-0.4c0-0.1-0.1-0.1-0.1-0.2c0,0,0,0,0,0c0,0,0,0,0-0.1c0,0,0,0,0.1,0c0,0,0-0.1,0-0.1c0,0,0,0,0-0.1
	c0.1,0,0.1,0.2,0.2,0.1c0,0,0-0.1,0.1-0.1c0,0,0,0,0,0c-0.1,0-0.1,0-0.2-0.1c0.1-0.1,0.3-0.4,0.4-0.5c0,0,0,0,0.1,0
	c0-0.1,0-0.1,0-0.2c0,0,0,0,0,0c0.1-0.2,0.2-0.3,0.3-0.5c0,0,0,0.1,0,0.1c0,0,0.1,0,0.1,0c0,0-0.1,0,0-0.1c0,0,0,0,0,0
	c0.3-0.4,0.6-0.9,0.9-1.3c0.1,0,0.1,0,0.2,0.1c-0.1-0.1,0.2-0.1,0.1-0.3c0,0.1-0.1,0.1-0.2,0.2c0,0,0,0,0,0c0.2-0.3,0.3-0.5,0.5-0.8
	c0,0,0.1,0,0.1-0.1c0,0-0.1,0-0.1,0c0,0,0-0.1,0.1-0.1c0.1,0,0.1-0.1,0.1-0.1c0,0.1,0,0.1,0.1,0.2c0,0-0.1,0,0,0c0,0,0,0-0.1,0.1
	c0.1,0,0.1,0.1,0.1,0.2c0.1,0,0.1-0.2,0.2-0.2c0,0,0-0.2,0.1-0.2c0.1-0.1-0.1-0.1,0-0.1c0,0-0.1,0.1,0,0.1c0,0,0,0-0.1,0
	c0,0,0,0,0-0.1c-0.1,0-0.1,0-0.2,0.1c0-0.1,0-0.1-0.1,0c0.1-0.2,0.2-0.4,0.3-0.6c0,0,0,0,0,0c0,0,0,0,0,0c0-0.1,0.1-0.2,0.1-0.2
	c0,0,0,0,0,0c0,0,0-0.1,0-0.1c0.1-0.2,0.3-0.4,0.4-0.7c0,0,0,0,0,0c0,0,0,0,0,0c0-0.1,0.1-0.2,0.1-0.3c0,0,0,0,0,0.1
	c0.2,0.1-0.2,0.4-0.1,0.6c0.1-0.1,0.1-0.3,0.2-0.3c0-0.1,0-0.1,0-0.2c0,0,0,0.1,0.1,0.1c0.1-0.1,0.1,0,0.1-0.1
	c0.1,0.1,0,0.1,0.1,0.2c0,0,0,0,0.1,0c0,0,0-0.1,0-0.1c0.1,0,0.1,0.1,0,0.1c0.1,0,0.1,0,0.2,0c0.2-0.1,0.3,0,0.4-0.2
	c0,0-0.1,0-0.1-0.1c0,0.1,0,0-0.1,0.1c0,0.1,0.1,0,0.1,0.1c-0.1,0-0.1,0-0.2,0c0-0.1,0-0.1-0.1-0.1c0,0,0.1-0.1,0-0.1
	c0,0,0.1,0,0.1,0c0,0,0-0.1,0-0.1c0,0-0.1,0.1-0.1,0.1c0,0,0-0.1,0-0.1c0-0.1,0,0.1,0.1,0c-0.1-0.1-0.1-0.1-0.2-0.1c0,0,0,0,0-0.1
	c0.1,0,0.1,0.1,0.2,0c0-0.1-0.1,0-0.1-0.1c0.1-0.1,0.1,0.1,0.1,0c0,0-0.1,0-0.1-0.1c0,0,0.1,0,0.1-0.1c0.1,0.1,0.1,0.1,0,0.2
	c0,0,0.1,0,0.1,0c0,0-0.1,0.1,0,0.1c0.1,0,0-0.1,0.1-0.1c0.1,0,0,0.1,0.1,0.1c0,0,0,0,0.1,0c0-0.1,0.1-0.1,0.2-0.1
	c0.1-0.2,0.2-0.4,0.3-0.5c-0.1,0,0,0-0.1,0.1c0-0.1,0-0.1,0-0.2c-0.1,0-0.1,0-0.1-0.1c-0.1,0-0.2,0.1-0.2,0c-0.1,0,0,0.1,0,0.1
	c0,0-0.1,0-0.1,0.1c-0.1-0.1,0.1-0.2,0.1-0.3c-0.1,0,0-0.1-0.1-0.1c0,0,0,0-0.1,0c0-0.1,0-0.1,0.1-0.2c-0.1,0-0.1-0.1,0-0.1
	c0,0-0.1,0-0.1,0c0,0,0,0.1-0.1,0.1c0,0,0.1-0.2,0-0.1c-0.1,0,0-0.1,0-0.1c0,0,0.1,0,0.1,0c0,0-0.1-0.1-0.1-0.1
	c0.1-0.2,0.3-0.6,0.5-1c0,0,0,0,0,0c0,0,0,0,0,0c0-0.1,0-0.1,0.1-0.2c0,0-0.1,0.1,0,0.1c0.1-0.2,0-0.2,0.1-0.4c0,0,0,0.1,0.1,0.1
	c0-0.1,0-0.2,0.1-0.2c0-0.1,0-0.1,0.1-0.2c0,0-0.1,0-0.1,0c0,0,0,0-0.1,0.1c0.1-0.2,0.2-0.4,0.3-0.7c0,0,0,0,0,0c0,0,0,0,0,0
	c0-0.1,0-0.1,0.1-0.2c0,0,0,0,0-0.1c0,0,0-0.1,0-0.1c0,0,0,0,0.1,0c0,0,0-0.1,0-0.1c1.4-3.4,2.8-8.1-1.2-5.4
	c-0.8,0.6-1.4,1.4-1.9,2.3c-3.5,5.5-6.6,11.2-9.1,17.2C136.7,119,136.5,119.9,137.1,120.2z M98.1,17.1c0,0.5-0.2,1.1-0.5,1.5
	c-2.9,5.3-6.4,10.6-11.4,14c-0.9-2.2,0-4.7,1.1-6.8C88.1,24.3,97.9,13.3,98.1,17.1z M92.9,50.3c-0.5,0.4-1.1,0.8-1.6,0.5
	c-1.6-1,9.6-22.4,14-20.6C111.6,33,94.8,48.6,92.9,50.3z M121.2,79.9c-2,2.7-4.4,5.5-7.7,5.9c0-6,3.6-11.4,7.1-16.3
	c1.2-1.7,7.9-11,8.3-4.8C129.3,69.9,124,76.1,121.2,79.9z M138.6,80.6c-3.5-2.2-9.9,9.8-11.1,12.1c-1,1.8-1.8,3.7-2,5.7
	c-0.1,0.9,0.2,2,1,2.2c0.5,0.1,1-0.1,1.4-0.3c2.3-1.3,4-3.5,5.6-5.7C134.9,92.6,142.8,83.3,138.6,80.6z"/>
<path class="st15" d="M216.7,115.7l-2,92.7c0,0,0.2,4.3-0.7,6.8c-1,3-2.2,4.6-4.1,7.1c-1.1,1.6-1.9,2.4-3.4,3.7
	c-0.5,0.4-1.4,1-1.4,1H89.3c0,0-1-0.3-1.4-0.7c-1.4-1.5-2.2-2.7-3.4-4.4c-1.9-2.7-2.7-4.3-3.7-7.5c-0.8-2.6-1-6.8-1-6.8l-1.7-92
	H216.7z"/>
<path class="st16" d="M66,93.3c0-2.2,1.8-4.1,4.1-4.1h159.5v26.5H70.1c-2.2,0-4.1-1.8-4.1-4.1V93.3z"/>
<path class="st17" d="M229.5,89.2h7.4c2.2,0,4.1,1.8,4.1,4.1v18.3c0,2.2-1.8,4.1-4.1,4.1h-7.4V89.2z"/>
<path class="st18" d="M216.5,115.9h12.6l-2.9,93.5c0,0-1,9.5-3.6,12.8c-1.7,2.2-4.5,4.5-4.5,4.5h-12.6c0,0,6.1-5.2,7.8-9.9
	c1-2.9,1.3-7.7,1.3-7.7L216.5,115.9z"/>
<path class="st19" d="M139.6,89c2.3,0,3.6,2.6,2.1,4.4l-32,40.5c-1.1,1.4-3.2,1.4-4.3,0l-32-40.5c-1.4-1.8-0.1-4.4,2.1-4.4L139.6,89
	z"/>
<path class="st18" d="M131.2,89h17.9l-39,50.9l-9.3-11.9L131.2,89z"/>
<path class="st19" d="M130.4,177.4c-2.9,0-5.5-0.5-7.7-1.5c-2.2-1-4-2.4-5.3-4.2c-1.3-1.8-2-3.8-2-6.1h8.4c0.1,1,0.4,1.8,0.9,2.6
	c0.6,0.7,1.4,1.3,2.4,1.7c1,0.4,2.1,0.6,3.3,0.6c1.3,0,2.4-0.2,3.4-0.7c1-0.5,1.7-1.1,2.3-1.9c0.6-0.8,0.8-1.7,0.8-2.8
	c0-1.1-0.3-2-0.9-2.8c-0.6-0.8-1.4-1.5-2.5-1.9c-1.1-0.5-2.4-0.7-3.9-0.7H126v-6.2h3.7c1.3,0,2.4-0.2,3.3-0.7c1-0.4,1.7-1,2.3-1.8
	c0.5-0.8,0.8-1.7,0.8-2.8c0-1-0.2-1.9-0.7-2.6c-0.5-0.8-1.1-1.4-2-1.8c-0.8-0.4-1.8-0.6-2.9-0.6c-1.1,0-2.2,0.2-3.1,0.6
	c-0.9,0.4-1.7,1-2.3,1.7c-0.6,0.8-0.9,1.6-0.9,2.6h-8c0-2.3,0.7-4.3,2-6.1c1.3-1.7,3-3.1,5.1-4.1c2.2-1,4.6-1.5,7.3-1.5
	c2.7,0,5.1,0.5,7.2,1.5c2,1,3.6,2.3,4.8,4c1.1,1.7,1.7,3.6,1.7,5.7c0,2.2-0.7,4.1-2.1,5.6c-1.4,1.5-3.2,2.4-5.4,2.8v0.3
	c2.9,0.4,5.1,1.4,6.6,3c1.5,1.6,2.3,3.7,2.3,6.2c0,2.3-0.6,4.3-2,6c-1.3,1.8-3.1,3.1-5.4,4.2C136,176.9,133.4,177.4,130.4,177.4z"/>
<path class="st19" d="M167.2,177.8c-3.3,0-6.2-0.8-8.6-2.5c-2.4-1.6-4.2-4-5.5-7.1c-1.3-3.1-1.9-6.8-1.9-11.2c0-4.3,0.6-8,1.9-11.1
	c1.3-3.1,3.1-5.4,5.5-7c2.4-1.6,5.3-2.4,8.6-2.4c3.3,0,6.2,0.8,8.5,2.4c2.4,1.6,4.2,3.9,5.5,7c1.3,3,1.9,6.7,1.9,11.1
	c0,4.4-0.6,8.1-1.9,11.2c-1.3,3.1-3.1,5.5-5.5,7.1C173.4,177,170.5,177.8,167.2,177.8z M167.2,170.8c2.3,0,4.1-1.1,5.4-3.4
	c1.4-2.3,2-5.7,2-10.3c0-3-0.3-5.5-0.9-7.5c-0.6-2-1.5-3.5-2.6-4.5c-1.1-1-2.4-1.5-3.9-1.5c-2.3,0-4.1,1.1-5.4,3.4
	c-1.4,2.3-2,5.7-2,10.2c0,3.1,0.3,5.6,0.9,7.7c0.6,2,1.5,3.6,2.6,4.6C164.4,170.3,165.7,170.8,167.2,170.8z"/>
<path class="st19" d="M128,210.9c0,4.3-1.6,7.1-4.8,8.2c-0.8,0.3-1.6,0.4-2.4,0.4c-1.4,0-2.7-0.3-4-1v-2.1c1.2,0.7,2.5,1,3.7,1
	c1,0,1.9-0.2,2.6-0.7c1.7-1,2.5-2.9,2.5-5.6v-12.5l2.4-1.3V210.9z"/>
<path class="st19" d="M140.4,212.6c-2,0-3.6-0.7-4.7-2c-0.9-1.1-1.4-2.5-1.4-4.3v-15.6l2.4-1.3v16.8c0,2.7,1.3,4.1,3.9,4.1h1.2v2.2
	H140.4z"/>
<path class="st19" d="M147.2,192.5c-1,0-1.5-0.5-1.5-1.5c0-1,0.5-1.4,1.5-1.4c0.9,0,1.4,0.5,1.4,1.4
	C148.6,192,148.1,192.5,147.2,192.5z M152.7,210.3h1.2v2.2h-1.5c-2.1,0-3.7-0.7-4.8-2.2c-1.1,1.5-2.7,2.2-4.9,2.2h-1.5v-2.2h1.2
	c2.6,0,3.9-1.4,3.9-4.1v-7.8l2.4-1.3v9C148.8,209,150.1,210.3,152.7,210.3z"/>
<path class="st19" d="M153.3,212.6v-2.2h1.2c2.6,0,3.9-1.4,3.9-4.1v-7.8l2.4-1.3v9.1c0,2-0.6,3.6-1.7,4.7c-1.1,1-2.5,1.5-4.3,1.5
	H153.3z M154.4,219.3c-1,0-1.5-0.5-1.5-1.5c0-1,0.5-1.4,1.5-1.4c0.9,0,1.4,0.5,1.4,1.4C155.8,218.8,155.4,219.3,154.4,219.3z
	 M158.5,219.3c-1,0-1.5-0.5-1.5-1.5c0-1,0.5-1.4,1.5-1.4c0.9,0,1.4,0.5,1.4,1.4C159.9,218.8,159.4,219.3,158.5,219.3z"/>
<path class="st19" d="M164.4,212.6l1.1-2.2h6.7c1.1,0,1.9-0.3,2.3-0.8c0.5-0.5,0.7-1.5,0.7-2.9c0-3.5-1.5-6.1-4.6-7.9l1.1-2
	c3.9,2.3,5.8,5.6,5.8,9.9c0,3.9-1.7,5.9-5,5.9H164.4z"/>
<path class="st15" d="M115.1,135.1h71.4v45.5h-71.4V135.1z"/>
<path class="st19" d="M136,137v44.2h-9.3v-35.3h-0.3l-10.1,6.3v-8.3l10.9-6.9H136z"/>
<path class="st19" d="M162.5,181.8c-3,0-5.7-0.6-8.1-1.7c-2.4-1.1-4.2-2.7-5.6-4.6c-1.4-2-2.1-4.2-2.2-6.8h9
	c0.1,1.7,0.8,3.1,2.1,4.2c1.3,1.1,2.9,1.6,4.7,1.6c1.5,0,2.8-0.3,3.9-1c1.1-0.7,2-1.6,2.6-2.7c0.6-1.2,1-2.5,1-4.1
	c0-1.6-0.3-2.9-1-4.1c-0.6-1.2-1.5-2.1-2.7-2.8c-1.1-0.7-2.5-1-3.9-1c-1.3,0-2.5,0.3-3.8,0.8c-1.2,0.5-2.1,1.3-2.8,2.2l-8.3-1.5
	l2.1-23.3h26.9v7.6h-19.2l-1.1,11.1h0.3c0.8-1.1,1.9-2,3.5-2.7c1.6-0.7,3.3-1.1,5.2-1.1c2.7,0,5,0.6,7.1,1.9c2.1,1.3,3.7,3,4.9,5.2
	c1.2,2.2,1.8,4.7,1.8,7.5c0,3-0.7,5.6-2.1,7.9c-1.4,2.3-3.3,4.1-5.8,5.4C168.6,181.1,165.8,181.8,162.5,181.8z"/>
<path class="st15" d="M116.3,135.7h73.9v49.9h-73.9V135.7z"/>
<path class="st19" d="M117.7,179.1l15.6-31v-0.3h-18.1v-6.5h26.4v6.6l-15.6,31.1H117.7z"/>
<path class="st19" d="M145.1,179.6c-1.2,0-2.2-0.4-3.1-1.3c-0.9-0.9-1.3-1.9-1.3-3.1c0-1.2,0.4-2.2,1.3-3.1c0.9-0.9,1.9-1.3,3.1-1.3
	c1.2,0,2.2,0.4,3.1,1.3c0.9,0.9,1.3,1.9,1.3,3.1c0,0.8-0.2,1.6-0.6,2.2c-0.4,0.7-0.9,1.2-1.6,1.6
	C146.6,179.4,145.9,179.6,145.1,179.6z"/>
<path class="st19" d="M169.3,179.6c-2.6,0-4.9-0.5-6.9-1.4c-2-1-3.6-2.3-4.8-4c-1.2-1.7-1.8-3.6-1.9-5.8h7.7
	c0.1,1.5,0.7,2.6,1.8,3.6c1.1,0.9,2.5,1.4,4.1,1.4c1.2,0,2.3-0.3,3.3-0.8c1-0.6,1.7-1.3,2.3-2.3c0.6-1,0.8-2.2,0.8-3.5
	c0-1.3-0.3-2.5-0.8-3.5c-0.6-1-1.3-1.8-2.3-2.4c-1-0.6-2.1-0.9-3.4-0.9c-1.1,0-2.2,0.2-3.2,0.7c-1,0.5-1.8,1.1-2.4,1.9l-7.1-1.3
	l1.8-19.9h23v6.5h-16.4l-1,9.5h0.2c0.7-0.9,1.7-1.7,3-2.3c1.3-0.6,2.8-0.9,4.5-0.9c2.3,0,4.3,0.5,6.1,1.6c1.8,1.1,3.2,2.5,4.2,4.4
	c1,1.9,1.5,4,1.5,6.4c0,2.5-0.6,4.8-1.8,6.8c-1.2,2-2.8,3.5-4.9,4.6C174.5,179,172,179.6,169.3,179.6z"/>
<path class="st15" d="M113.8,140.2h70.7v41h-70.7V140.2z"/>
<path class="st19" d="M153.2,130.8v44h-9.3v-35.2h-0.3l-10,6.3v-8.3l10.8-6.9H153.2z"/>
</svg>
